<svg xmlns="http://www.w3.org/2000/svg" xmlns:xlink="http://www.w3.org/1999/xlink" width="200" zoomAndPan="magnify" viewBox="0 0 150 37.5" height="50" preserveAspectRatio="xMidYMid meet" version="1.0"><defs><g/><clipPath id="13aa10e75c"><path d="M 0.988281 0 L 149.011719 0 L 149.011719 37.007812 L 0.988281 37.007812 Z M 0.988281 0 " clip-rule="nonzero"/></clipPath><clipPath id="0f5ca040d8"><path d="M 5.414062 4.371094 L 34.398438 4.371094 L 34.398438 33.808594 L 5.414062 33.808594 Z M 5.414062 4.371094 " clip-rule="nonzero"/></clipPath><clipPath id="2321daf0fc"><path d="M 5.074219 26.550781 L 36.304688 26.550781 L 36.304688 27.292969 L 5.074219 27.292969 Z M 5.074219 26.550781 " clip-rule="nonzero"/></clipPath><clipPath id="ec6416f4d4"><path d="M 5.074219 20.078125 L 36.304688 20.078125 L 36.304688 20.820312 L 5.074219 20.820312 Z M 5.074219 20.078125 " clip-rule="nonzero"/></clipPath></defs><g clip-path="url(#13aa10e75c)"><path fill="#ffffff" d="M 0.988281 0 L 149.011719 0 L 149.011719 37.007812 L 0.988281 37.007812 Z M 0.988281 0 " fill-opacity="1" fill-rule="nonzero"/><path fill="#ffffff" d="M 0.988281 0 L 149.011719 0 L 149.011719 37.007812 L 0.988281 37.007812 Z M 0.988281 0 " fill-opacity="1" fill-rule="nonzero"/></g><g fill="#800020" fill-opacity="1"><g transform="translate(38.196457, 15.576809)"><g><path d="M 1.9375 -4.8125 L 0.03125 -4.8125 L 0.03125 -6.21875 L 5.59375 -6.21875 L 5.59375 -4.8125 L 3.703125 -4.8125 L 3.703125 0 L 1.9375 0 Z M 1.9375 -4.8125 "/></g></g></g><g fill="#800020" fill-opacity="1"><g transform="translate(43.836301, 15.576809)"><g><path d="M 0.625 -6.21875 L 2.375 -6.21875 L 2.375 0 L 0.625 0 Z M 0.625 -6.21875 "/></g></g></g><g fill="#800020" fill-opacity="1"><g transform="translate(46.847174, 15.576809)"><g><path d="M 1.9375 -4.8125 L 0.03125 -4.8125 L 0.03125 -6.21875 L 5.59375 -6.21875 L 5.59375 -4.8125 L 3.703125 -4.8125 L 3.703125 0 L 1.9375 0 Z M 1.9375 -4.8125 "/></g></g></g><g fill="#800020" fill-opacity="1"><g transform="translate(52.487018, 15.576809)"><g><path d="M 0.625 -6.21875 L 2.375 -6.21875 L 2.375 0 L 0.625 0 Z M 0.625 -6.21875 "/></g></g></g><g fill="#800020" fill-opacity="1"><g transform="translate(55.49789, 15.576809)"><g><path d="M 4.78125 -1.203125 L 2.15625 -1.203125 L 1.671875 0 L -0.125 0 L 2.625 -6.21875 L 4.34375 -6.21875 L 7.09375 0 L 5.265625 0 Z M 4.265625 -2.5 L 3.46875 -4.484375 L 2.671875 -2.5 Z M 4.265625 -2.5 "/></g></g></g><g fill="#800020" fill-opacity="1"><g transform="translate(62.478861, 15.576809)"><g><path d="M 5.390625 -3.234375 C 5.742188 -3.109375 6.019531 -2.914062 6.21875 -2.65625 C 6.425781 -2.394531 6.53125 -2.078125 6.53125 -1.703125 C 6.53125 -1.160156 6.3125 -0.738281 5.875 -0.4375 C 5.4375 -0.144531 4.800781 0 3.96875 0 L 0.625 0 L 0.625 -6.21875 L 3.796875 -6.21875 C 4.585938 -6.21875 5.191406 -6.066406 5.609375 -5.765625 C 6.023438 -5.472656 6.234375 -5.082031 6.234375 -4.59375 C 6.234375 -4.289062 6.160156 -4.019531 6.015625 -3.78125 C 5.867188 -3.550781 5.660156 -3.367188 5.390625 -3.234375 Z M 2.359375 -4.9375 L 2.359375 -3.75 L 3.5625 -3.75 C 4.15625 -3.75 4.453125 -3.945312 4.453125 -4.34375 C 4.453125 -4.738281 4.15625 -4.9375 3.5625 -4.9375 Z M 3.828125 -1.265625 C 4.441406 -1.265625 4.75 -1.476562 4.75 -1.90625 C 4.75 -2.320312 4.441406 -2.53125 3.828125 -2.53125 L 2.359375 -2.53125 L 2.359375 -1.265625 Z M 3.828125 -1.265625 "/></g></g></g><g fill="#800020" fill-opacity="1"><g transform="translate(69.308838, 15.576809)"><g><path d="M 0.625 -6.21875 L 2.375 -6.21875 L 2.375 0 L 0.625 0 Z M 0.625 -6.21875 "/></g></g></g><g fill="#800020" fill-opacity="1"><g transform="translate(72.319711, 15.576809)"><g><path d="M 3.015625 -2.25 L 2.359375 -1.546875 L 2.359375 0 L 0.625 0 L 0.625 -6.21875 L 2.359375 -6.21875 L 2.359375 -3.625 L 4.765625 -6.21875 L 6.703125 -6.21875 L 4.15625 -3.46875 L 6.828125 0 L 4.796875 0 Z M 3.015625 -2.25 "/></g></g></g><g fill="#800020" fill-opacity="1"><g transform="translate(78.998705, 15.576809)"><g><path d="M 2.796875 0.125 C 2.296875 0.125 1.804688 0.0625 1.328125 -0.0625 C 0.859375 -0.1875 0.476562 -0.351562 0.1875 -0.5625 L 0.765625 -1.859375 C 1.046875 -1.671875 1.367188 -1.519531 1.734375 -1.40625 C 2.097656 -1.300781 2.457031 -1.25 2.8125 -1.25 C 3.488281 -1.25 3.828125 -1.414062 3.828125 -1.75 C 3.828125 -1.925781 3.726562 -2.054688 3.53125 -2.140625 C 3.34375 -2.222656 3.035156 -2.3125 2.609375 -2.40625 C 2.140625 -2.507812 1.75 -2.617188 1.4375 -2.734375 C 1.125 -2.847656 0.851562 -3.03125 0.625 -3.28125 C 0.40625 -3.539062 0.296875 -3.890625 0.296875 -4.328125 C 0.296875 -4.703125 0.398438 -5.039062 0.609375 -5.34375 C 0.816406 -5.644531 1.125 -5.882812 1.53125 -6.0625 C 1.9375 -6.25 2.441406 -6.34375 3.046875 -6.34375 C 3.453125 -6.34375 3.851562 -6.296875 4.25 -6.203125 C 4.644531 -6.109375 4.992188 -5.972656 5.296875 -5.796875 L 4.75 -4.484375 C 4.164062 -4.804688 3.59375 -4.96875 3.03125 -4.96875 C 2.6875 -4.96875 2.429688 -4.914062 2.265625 -4.8125 C 2.109375 -4.707031 2.03125 -4.570312 2.03125 -4.40625 C 2.03125 -4.238281 2.125 -4.113281 2.3125 -4.03125 C 2.5 -3.945312 2.804688 -3.863281 3.234375 -3.78125 C 3.703125 -3.675781 4.09375 -3.566406 4.40625 -3.453125 C 4.71875 -3.335938 4.988281 -3.15625 5.21875 -2.90625 C 5.445312 -2.65625 5.5625 -2.3125 5.5625 -1.875 C 5.5625 -1.507812 5.457031 -1.175781 5.25 -0.875 C 5.039062 -0.570312 4.726562 -0.328125 4.3125 -0.140625 C 3.894531 0.0351562 3.390625 0.125 2.796875 0.125 Z M 2.796875 0.125 "/></g></g></g><g fill="#800020" fill-opacity="1"><g transform="translate(84.745125, 15.576809)"><g/></g></g><g fill="#800020" fill-opacity="1"><g transform="translate(87.329679, 15.576809)"><g><path d="M 6.921875 -6.21875 L 4.265625 0 L 2.53125 0 L -0.125 -6.21875 L 1.78125 -6.21875 L 3.46875 -2.171875 L 5.1875 -6.21875 Z M 6.921875 -6.21875 "/></g></g></g><g fill="#800020" fill-opacity="1"><g transform="translate(94.133015, 15.576809)"><g><path d="M 5.609375 -1.359375 L 5.609375 0 L 0.625 0 L 0.625 -6.21875 L 5.5 -6.21875 L 5.5 -4.859375 L 2.359375 -4.859375 L 2.359375 -3.8125 L 5.125 -3.8125 L 5.125 -2.5 L 2.359375 -2.5 L 2.359375 -1.359375 Z M 5.609375 -1.359375 "/></g></g></g><g fill="#800020" fill-opacity="1"><g transform="translate(100.101477, 15.576809)"><g><path d="M 6.53125 -6.21875 L 6.53125 0 L 5.078125 0 L 2.34375 -3.3125 L 2.34375 0 L 0.625 0 L 0.625 -6.21875 L 2.0625 -6.21875 L 4.8125 -2.90625 L 4.8125 -6.21875 Z M 6.53125 -6.21875 "/></g></g></g><g fill="#800020" fill-opacity="1"><g transform="translate(107.260084, 15.576809)"><g><path d="M 1.9375 -4.8125 L 0.03125 -4.8125 L 0.03125 -6.21875 L 5.59375 -6.21875 L 5.59375 -4.8125 L 3.703125 -4.8125 L 3.703125 0 L 1.9375 0 Z M 1.9375 -4.8125 "/></g></g></g><g fill="#800020" fill-opacity="1"><g transform="translate(112.899928, 15.576809)"><g><path d="M 3.484375 0.125 C 2.566406 0.125 1.847656 -0.125 1.328125 -0.625 C 0.816406 -1.132812 0.5625 -1.847656 0.5625 -2.765625 L 0.5625 -6.21875 L 2.328125 -6.21875 L 2.328125 -2.828125 C 2.328125 -1.828125 2.71875 -1.328125 3.5 -1.328125 C 4.28125 -1.328125 4.671875 -1.828125 4.671875 -2.828125 L 4.671875 -6.21875 L 6.40625 -6.21875 L 6.40625 -2.765625 C 6.40625 -1.847656 6.148438 -1.132812 5.640625 -0.625 C 5.128906 -0.125 4.410156 0.125 3.484375 0.125 Z M 3.484375 0.125 "/></g></g></g><g fill="#800020" fill-opacity="1"><g transform="translate(119.880899, 15.576809)"><g><path d="M 3.34375 -1.65625 L 2.375 -1.65625 L 2.375 0 L 0.625 0 L 0.625 -6.21875 L 3.46875 -6.21875 C 4.019531 -6.21875 4.503906 -6.125 4.921875 -5.9375 C 5.335938 -5.75 5.65625 -5.476562 5.875 -5.125 C 6.101562 -4.78125 6.21875 -4.375 6.21875 -3.90625 C 6.21875 -3.457031 6.113281 -3.066406 5.90625 -2.734375 C 5.695312 -2.398438 5.394531 -2.140625 5 -1.953125 L 6.34375 0 L 4.46875 0 Z M 4.453125 -3.90625 C 4.453125 -4.195312 4.359375 -4.421875 4.171875 -4.578125 C 3.984375 -4.742188 3.710938 -4.828125 3.359375 -4.828125 L 2.375 -4.828125 L 2.375 -3.015625 L 3.359375 -3.015625 C 3.710938 -3.015625 3.984375 -3.09375 4.171875 -3.25 C 4.359375 -3.40625 4.453125 -3.625 4.453125 -3.90625 Z M 4.453125 -3.90625 "/></g></g></g><g fill="#800020" fill-opacity="1"><g transform="translate(126.453316, 15.576809)"><g><path d="M 5.609375 -1.359375 L 5.609375 0 L 0.625 0 L 0.625 -6.21875 L 5.5 -6.21875 L 5.5 -4.859375 L 2.359375 -4.859375 L 2.359375 -3.8125 L 5.125 -3.8125 L 5.125 -2.5 L 2.359375 -2.5 L 2.359375 -1.359375 Z M 5.609375 -1.359375 "/></g></g></g><g fill="#800020" fill-opacity="1"><g transform="translate(132.421778, 15.576809)"><g><path d="M 2.796875 0.125 C 2.296875 0.125 1.804688 0.0625 1.328125 -0.0625 C 0.859375 -0.1875 0.476562 -0.351562 0.1875 -0.5625 L 0.765625 -1.859375 C 1.046875 -1.671875 1.367188 -1.519531 1.734375 -1.40625 C 2.097656 -1.300781 2.457031 -1.25 2.8125 -1.25 C 3.488281 -1.25 3.828125 -1.414062 3.828125 -1.75 C 3.828125 -1.925781 3.726562 -2.054688 3.53125 -2.140625 C 3.34375 -2.222656 3.035156 -2.3125 2.609375 -2.40625 C 2.140625 -2.507812 1.75 -2.617188 1.4375 -2.734375 C 1.125 -2.847656 0.851562 -3.03125 0.625 -3.28125 C 0.40625 -3.539062 0.296875 -3.890625 0.296875 -4.328125 C 0.296875 -4.703125 0.398438 -5.039062 0.609375 -5.34375 C 0.816406 -5.644531 1.125 -5.882812 1.53125 -6.0625 C 1.9375 -6.25 2.441406 -6.34375 3.046875 -6.34375 C 3.453125 -6.34375 3.851562 -6.296875 4.25 -6.203125 C 4.644531 -6.109375 4.992188 -5.972656 5.296875 -5.796875 L 4.75 -4.484375 C 4.164062 -4.804688 3.59375 -4.96875 3.03125 -4.96875 C 2.6875 -4.96875 2.429688 -4.914062 2.265625 -4.8125 C 2.109375 -4.707031 2.03125 -4.570312 2.03125 -4.40625 C 2.03125 -4.238281 2.125 -4.113281 2.3125 -4.03125 C 2.5 -3.945312 2.804688 -3.863281 3.234375 -3.78125 C 3.703125 -3.675781 4.09375 -3.566406 4.40625 -3.453125 C 4.71875 -3.335938 4.988281 -3.15625 5.21875 -2.90625 C 5.445312 -2.65625 5.5625 -2.3125 5.5625 -1.875 C 5.5625 -1.507812 5.457031 -1.175781 5.25 -0.875 C 5.039062 -0.570312 4.726562 -0.328125 4.3125 -0.140625 C 3.894531 0.0351562 3.390625 0.125 2.796875 0.125 Z M 2.796875 0.125 "/></g></g></g><g fill="#000000" fill-opacity="1"><g transform="translate(38.196457, 26.522656)"><g><path d="M 4.234375 -0.59375 L 4.234375 0 L 0.71875 0 L 0.71875 -4.828125 L 4.140625 -4.828125 L 4.140625 -4.234375 L 1.421875 -4.234375 L 1.421875 -2.75 L 3.84375 -2.75 L 3.84375 -2.15625 L 1.421875 -2.15625 L 1.421875 -0.59375 Z M 4.234375 -0.59375 "/></g></g></g><g fill="#000000" fill-opacity="1"><g transform="translate(42.824785, 26.522656)"><g><path d="M 2.96875 0 L 1.90625 -1.40625 L 0.828125 0 L 0.09375 0 L 1.546875 -1.875 L 0.171875 -3.65625 L 0.90625 -3.65625 L 1.90625 -2.34375 L 2.921875 -3.65625 L 3.640625 -3.65625 L 2.265625 -1.875 L 3.71875 0 Z M 2.96875 0 "/></g></g></g><g fill="#000000" fill-opacity="1"><g transform="translate(46.63798, 26.522656)"><g><path d="M 3.9375 -1.8125 C 3.9375 -1.757812 3.929688 -1.691406 3.921875 -1.609375 L 0.953125 -1.609375 C 0.992188 -1.285156 1.132812 -1.023438 1.375 -0.828125 C 1.613281 -0.628906 1.914062 -0.53125 2.28125 -0.53125 C 2.71875 -0.53125 3.066406 -0.679688 3.328125 -0.984375 L 3.703125 -0.546875 C 3.535156 -0.359375 3.328125 -0.210938 3.078125 -0.109375 C 2.835938 -0.00390625 2.566406 0.046875 2.265625 0.046875 C 1.867188 0.046875 1.519531 -0.03125 1.21875 -0.1875 C 0.925781 -0.351562 0.695312 -0.578125 0.53125 -0.859375 C 0.375 -1.148438 0.296875 -1.472656 0.296875 -1.828125 C 0.296875 -2.179688 0.375 -2.5 0.53125 -2.78125 C 0.6875 -3.070312 0.90625 -3.296875 1.1875 -3.453125 C 1.46875 -3.609375 1.78125 -3.6875 2.125 -3.6875 C 2.476562 -3.6875 2.789062 -3.609375 3.0625 -3.453125 C 3.332031 -3.296875 3.546875 -3.070312 3.703125 -2.78125 C 3.859375 -2.5 3.9375 -2.175781 3.9375 -1.8125 Z M 2.125 -3.140625 C 1.8125 -3.140625 1.546875 -3.039062 1.328125 -2.84375 C 1.117188 -2.65625 0.992188 -2.398438 0.953125 -2.078125 L 3.296875 -2.078125 C 3.265625 -2.390625 3.140625 -2.644531 2.921875 -2.84375 C 2.710938 -3.039062 2.445312 -3.140625 2.125 -3.140625 Z M 2.125 -3.140625 "/></g></g></g><g fill="#000000" fill-opacity="1"><g transform="translate(50.865651, 26.522656)"><g><path d="M 2.21875 0.046875 C 1.851562 0.046875 1.519531 -0.03125 1.21875 -0.1875 C 0.925781 -0.351562 0.695312 -0.578125 0.53125 -0.859375 C 0.375 -1.148438 0.296875 -1.472656 0.296875 -1.828125 C 0.296875 -2.191406 0.375 -2.515625 0.53125 -2.796875 C 0.695312 -3.078125 0.925781 -3.296875 1.21875 -3.453125 C 1.519531 -3.609375 1.851562 -3.6875 2.21875 -3.6875 C 2.550781 -3.6875 2.847656 -3.617188 3.109375 -3.484375 C 3.367188 -3.359375 3.570312 -3.171875 3.71875 -2.921875 L 3.21875 -2.59375 C 3.09375 -2.769531 2.945312 -2.898438 2.78125 -2.984375 C 2.613281 -3.066406 2.425781 -3.109375 2.21875 -3.109375 C 1.976562 -3.109375 1.757812 -3.054688 1.5625 -2.953125 C 1.375 -2.847656 1.222656 -2.695312 1.109375 -2.5 C 1.003906 -2.300781 0.953125 -2.078125 0.953125 -1.828125 C 0.953125 -1.566406 1.003906 -1.335938 1.109375 -1.140625 C 1.222656 -0.953125 1.375 -0.800781 1.5625 -0.6875 C 1.757812 -0.582031 1.976562 -0.53125 2.21875 -0.53125 C 2.425781 -0.53125 2.613281 -0.570312 2.78125 -0.65625 C 2.945312 -0.75 3.09375 -0.882812 3.21875 -1.0625 L 3.71875 -0.75 C 3.570312 -0.488281 3.367188 -0.289062 3.109375 -0.15625 C 2.847656 -0.0195312 2.550781 0.046875 2.21875 0.046875 Z M 2.21875 0.046875 "/></g></g></g><g fill="#000000" fill-opacity="1"><g transform="translate(54.810094, 26.522656)"><g><path d="M 4.046875 -3.65625 L 4.046875 0 L 3.40625 0 L 3.40625 -0.546875 C 3.28125 -0.359375 3.109375 -0.210938 2.890625 -0.109375 C 2.671875 -0.00390625 2.429688 0.046875 2.171875 0.046875 C 1.679688 0.046875 1.296875 -0.0859375 1.015625 -0.359375 C 0.734375 -0.628906 0.59375 -1.023438 0.59375 -1.546875 L 0.59375 -3.65625 L 1.25 -3.65625 L 1.25 -1.625 C 1.25 -1.269531 1.332031 -1 1.5 -0.8125 C 1.675781 -0.632812 1.925781 -0.546875 2.25 -0.546875 C 2.59375 -0.546875 2.863281 -0.648438 3.0625 -0.859375 C 3.269531 -1.078125 3.375 -1.378906 3.375 -1.765625 L 3.375 -3.65625 Z M 4.046875 -3.65625 "/></g></g></g><g fill="#000000" fill-opacity="1"><g transform="translate(59.486777, 26.522656)"><g><path d="M 2.6875 -0.21875 C 2.59375 -0.132812 2.472656 -0.0664062 2.328125 -0.015625 C 2.179688 0.0234375 2.035156 0.046875 1.890625 0.046875 C 1.515625 0.046875 1.222656 -0.0507812 1.015625 -0.25 C 0.816406 -0.445312 0.71875 -0.734375 0.71875 -1.109375 L 0.71875 -3.109375 L 0.109375 -3.109375 L 0.109375 -3.65625 L 0.71875 -3.65625 L 0.71875 -4.46875 L 1.390625 -4.46875 L 1.390625 -3.65625 L 2.4375 -3.65625 L 2.4375 -3.109375 L 1.390625 -3.109375 L 1.390625 -1.125 C 1.390625 -0.925781 1.4375 -0.773438 1.53125 -0.671875 C 1.632812 -0.566406 1.78125 -0.515625 1.96875 -0.515625 C 2.164062 -0.515625 2.335938 -0.570312 2.484375 -0.6875 Z M 2.6875 -0.21875 "/></g></g></g><g fill="#000000" fill-opacity="1"><g transform="translate(62.346669, 26.522656)"><g><path d="M 0.625 -3.65625 L 1.296875 -3.65625 L 1.296875 0 L 0.625 0 Z M 0.953125 -4.359375 C 0.828125 -4.359375 0.722656 -4.398438 0.640625 -4.484375 C 0.554688 -4.566406 0.515625 -4.671875 0.515625 -4.796875 C 0.515625 -4.910156 0.554688 -5.007812 0.640625 -5.09375 C 0.722656 -5.1875 0.828125 -5.234375 0.953125 -5.234375 C 1.085938 -5.234375 1.195312 -5.191406 1.28125 -5.109375 C 1.363281 -5.023438 1.40625 -4.925781 1.40625 -4.8125 C 1.40625 -4.6875 1.363281 -4.578125 1.28125 -4.484375 C 1.195312 -4.398438 1.085938 -4.359375 0.953125 -4.359375 Z M 0.953125 -4.359375 "/></g></g></g><g fill="#000000" fill-opacity="1"><g transform="translate(64.273988, 26.522656)"><g><path d="M 3.875 -3.65625 L 2.265625 0 L 1.59375 0 L -0.015625 -3.65625 L 0.671875 -3.65625 L 1.9375 -0.71875 L 3.21875 -3.65625 Z M 3.875 -3.65625 "/></g></g></g><g fill="#000000" fill-opacity="1"><g transform="translate(68.135538, 26.522656)"><g><path d="M 3.9375 -1.8125 C 3.9375 -1.757812 3.929688 -1.691406 3.921875 -1.609375 L 0.953125 -1.609375 C 0.992188 -1.285156 1.132812 -1.023438 1.375 -0.828125 C 1.613281 -0.628906 1.914062 -0.53125 2.28125 -0.53125 C 2.71875 -0.53125 3.066406 -0.679688 3.328125 -0.984375 L 3.703125 -0.546875 C 3.535156 -0.359375 3.328125 -0.210938 3.078125 -0.109375 C 2.835938 -0.00390625 2.566406 0.046875 2.265625 0.046875 C 1.867188 0.046875 1.519531 -0.03125 1.21875 -0.1875 C 0.925781 -0.351562 0.695312 -0.578125 0.53125 -0.859375 C 0.375 -1.148438 0.296875 -1.472656 0.296875 -1.828125 C 0.296875 -2.179688 0.375 -2.5 0.53125 -2.78125 C 0.6875 -3.070312 0.90625 -3.296875 1.1875 -3.453125 C 1.46875 -3.609375 1.78125 -3.6875 2.125 -3.6875 C 2.476562 -3.6875 2.789062 -3.609375 3.0625 -3.453125 C 3.332031 -3.296875 3.546875 -3.070312 3.703125 -2.78125 C 3.859375 -2.5 3.9375 -2.175781 3.9375 -1.8125 Z M 2.125 -3.140625 C 1.8125 -3.140625 1.546875 -3.039062 1.328125 -2.84375 C 1.117188 -2.65625 0.992188 -2.398438 0.953125 -2.078125 L 3.296875 -2.078125 C 3.265625 -2.390625 3.140625 -2.644531 2.921875 -2.84375 C 2.710938 -3.039062 2.445312 -3.140625 2.125 -3.140625 Z M 2.125 -3.140625 "/></g></g></g><g fill="#000000" fill-opacity="1"><g transform="translate(72.363209, 26.522656)"><g/></g></g><g fill="#000000" fill-opacity="1"><g transform="translate(74.221451, 26.522656)"><g><path d="M 2.890625 0.0625 C 2.398438 0.0625 1.960938 -0.046875 1.578125 -0.265625 C 1.191406 -0.484375 0.882812 -0.78125 0.65625 -1.15625 C 0.4375 -1.53125 0.328125 -1.953125 0.328125 -2.421875 C 0.328125 -2.890625 0.4375 -3.3125 0.65625 -3.6875 C 0.882812 -4.0625 1.191406 -4.351562 1.578125 -4.5625 C 1.972656 -4.78125 2.410156 -4.890625 2.890625 -4.890625 C 3.265625 -4.890625 3.609375 -4.828125 3.921875 -4.703125 C 4.242188 -4.578125 4.515625 -4.390625 4.734375 -4.140625 L 4.28125 -3.703125 C 3.914062 -4.085938 3.460938 -4.28125 2.921875 -4.28125 C 2.554688 -4.28125 2.226562 -4.195312 1.9375 -4.03125 C 1.65625 -3.875 1.429688 -3.648438 1.265625 -3.359375 C 1.097656 -3.078125 1.015625 -2.765625 1.015625 -2.421875 C 1.015625 -2.066406 1.097656 -1.75 1.265625 -1.46875 C 1.429688 -1.1875 1.65625 -0.960938 1.9375 -0.796875 C 2.226562 -0.640625 2.554688 -0.5625 2.921875 -0.5625 C 3.460938 -0.5625 3.914062 -0.753906 4.28125 -1.140625 L 4.734375 -0.703125 C 4.515625 -0.453125 4.242188 -0.257812 3.921875 -0.125 C 3.609375 0 3.265625 0.0625 2.890625 0.0625 Z M 2.890625 0.0625 "/></g></g></g><g fill="#000000" fill-opacity="1"><g transform="translate(79.215899, 26.522656)"><g><path d="M 2.578125 -3.6875 C 3.046875 -3.6875 3.414062 -3.550781 3.6875 -3.28125 C 3.96875 -3.019531 4.109375 -2.628906 4.109375 -2.109375 L 4.109375 0 L 3.4375 0 L 3.4375 -2.03125 C 3.4375 -2.382812 3.347656 -2.648438 3.171875 -2.828125 C 3.003906 -3.003906 2.765625 -3.09375 2.453125 -3.09375 C 2.085938 -3.09375 1.800781 -2.988281 1.59375 -2.78125 C 1.394531 -2.570312 1.296875 -2.273438 1.296875 -1.890625 L 1.296875 0 L 0.625 0 L 0.625 -5.125 L 1.296875 -5.125 L 1.296875 -3.140625 C 1.429688 -3.316406 1.609375 -3.453125 1.828125 -3.546875 C 2.054688 -3.640625 2.304688 -3.6875 2.578125 -3.6875 Z M 2.578125 -3.6875 "/></g></g></g><g fill="#000000" fill-opacity="1"><g transform="translate(83.920217, 26.522656)"><g><path d="M 1.96875 -3.6875 C 2.46875 -3.6875 2.851562 -3.5625 3.125 -3.3125 C 3.394531 -3.070312 3.53125 -2.703125 3.53125 -2.203125 L 3.53125 0 L 2.90625 0 L 2.90625 -0.484375 C 2.789062 -0.316406 2.628906 -0.1875 2.421875 -0.09375 C 2.222656 0 1.984375 0.046875 1.703125 0.046875 C 1.285156 0.046875 0.953125 -0.0507812 0.703125 -0.25 C 0.460938 -0.445312 0.34375 -0.707031 0.34375 -1.03125 C 0.34375 -1.351562 0.457031 -1.613281 0.6875 -1.8125 C 0.925781 -2.007812 1.300781 -2.109375 1.8125 -2.109375 L 2.859375 -2.109375 L 2.859375 -2.234375 C 2.859375 -2.523438 2.773438 -2.742188 2.609375 -2.890625 C 2.453125 -3.046875 2.210938 -3.125 1.890625 -3.125 C 1.671875 -3.125 1.457031 -3.085938 1.25 -3.015625 C 1.039062 -2.941406 0.863281 -2.847656 0.71875 -2.734375 L 0.453125 -3.21875 C 0.640625 -3.375 0.863281 -3.488281 1.125 -3.5625 C 1.382812 -3.644531 1.664062 -3.6875 1.96875 -3.6875 Z M 1.8125 -0.46875 C 2.0625 -0.46875 2.273438 -0.523438 2.453125 -0.640625 C 2.640625 -0.753906 2.773438 -0.914062 2.859375 -1.125 L 2.859375 -1.625 L 1.84375 -1.625 C 1.28125 -1.625 1 -1.4375 1 -1.0625 C 1 -0.875 1.066406 -0.726562 1.203125 -0.625 C 1.347656 -0.519531 1.550781 -0.46875 1.8125 -0.46875 Z M 1.8125 -0.46875 "/></g></g></g><g fill="#000000" fill-opacity="1"><g transform="translate(88.051177, 26.522656)"><g><path d="M 4.046875 -3.65625 L 4.046875 0 L 3.40625 0 L 3.40625 -0.546875 C 3.28125 -0.359375 3.109375 -0.210938 2.890625 -0.109375 C 2.671875 -0.00390625 2.429688 0.046875 2.171875 0.046875 C 1.679688 0.046875 1.296875 -0.0859375 1.015625 -0.359375 C 0.734375 -0.628906 0.59375 -1.023438 0.59375 -1.546875 L 0.59375 -3.65625 L 1.25 -3.65625 L 1.25 -1.625 C 1.25 -1.269531 1.332031 -1 1.5 -0.8125 C 1.675781 -0.632812 1.925781 -0.546875 2.25 -0.546875 C 2.59375 -0.546875 2.863281 -0.648438 3.0625 -0.859375 C 3.269531 -1.078125 3.375 -1.378906 3.375 -1.765625 L 3.375 -3.65625 Z M 4.046875 -3.65625 "/></g></g></g><g fill="#000000" fill-opacity="1"><g transform="translate(92.72786, 26.522656)"><g><path d="M 1.96875 -4.625 C 1.570312 -4.625 1.375 -4.410156 1.375 -3.984375 L 1.375 -3.65625 L 2.4375 -3.65625 L 2.4375 -3.109375 L 1.390625 -3.109375 L 1.390625 0 L 0.71875 0 L 0.71875 -3.109375 L 0.109375 -3.109375 L 0.109375 -3.65625 L 0.71875 -3.65625 L 0.71875 -3.984375 C 0.71875 -4.347656 0.820312 -4.632812 1.03125 -4.84375 C 1.25 -5.0625 1.550781 -5.171875 1.9375 -5.171875 C 2.082031 -5.171875 2.21875 -5.148438 2.34375 -5.109375 C 2.476562 -5.078125 2.585938 -5.023438 2.671875 -4.953125 L 2.484375 -4.453125 C 2.328125 -4.566406 2.15625 -4.625 1.96875 -4.625 Z M 1.96875 -4.625 "/></g></g></g><g fill="#000000" fill-opacity="1"><g transform="translate(95.166364, 26.522656)"><g><path d="M 1.96875 -4.625 C 1.570312 -4.625 1.375 -4.410156 1.375 -3.984375 L 1.375 -3.65625 L 2.4375 -3.65625 L 2.4375 -3.109375 L 1.390625 -3.109375 L 1.390625 0 L 0.71875 0 L 0.71875 -3.109375 L 0.109375 -3.109375 L 0.109375 -3.65625 L 0.71875 -3.65625 L 0.71875 -3.984375 C 0.71875 -4.347656 0.820312 -4.632812 1.03125 -4.84375 C 1.25 -5.0625 1.550781 -5.171875 1.9375 -5.171875 C 2.082031 -5.171875 2.21875 -5.148438 2.34375 -5.109375 C 2.476562 -5.078125 2.585938 -5.023438 2.671875 -4.953125 L 2.484375 -4.453125 C 2.328125 -4.566406 2.15625 -4.625 1.96875 -4.625 Z M 1.96875 -4.625 "/></g></g></g><g fill="#000000" fill-opacity="1"><g transform="translate(97.604868, 26.522656)"><g><path d="M 3.9375 -1.8125 C 3.9375 -1.757812 3.929688 -1.691406 3.921875 -1.609375 L 0.953125 -1.609375 C 0.992188 -1.285156 1.132812 -1.023438 1.375 -0.828125 C 1.613281 -0.628906 1.914062 -0.53125 2.28125 -0.53125 C 2.71875 -0.53125 3.066406 -0.679688 3.328125 -0.984375 L 3.703125 -0.546875 C 3.535156 -0.359375 3.328125 -0.210938 3.078125 -0.109375 C 2.835938 -0.00390625 2.566406 0.046875 2.265625 0.046875 C 1.867188 0.046875 1.519531 -0.03125 1.21875 -0.1875 C 0.925781 -0.351562 0.695312 -0.578125 0.53125 -0.859375 C 0.375 -1.148438 0.296875 -1.472656 0.296875 -1.828125 C 0.296875 -2.179688 0.375 -2.5 0.53125 -2.78125 C 0.6875 -3.070312 0.90625 -3.296875 1.1875 -3.453125 C 1.46875 -3.609375 1.78125 -3.6875 2.125 -3.6875 C 2.476562 -3.6875 2.789062 -3.609375 3.0625 -3.453125 C 3.332031 -3.296875 3.546875 -3.070312 3.703125 -2.78125 C 3.859375 -2.5 3.9375 -2.175781 3.9375 -1.8125 Z M 2.125 -3.140625 C 1.8125 -3.140625 1.546875 -3.039062 1.328125 -2.84375 C 1.117188 -2.65625 0.992188 -2.398438 0.953125 -2.078125 L 3.296875 -2.078125 C 3.265625 -2.390625 3.140625 -2.644531 2.921875 -2.84375 C 2.710938 -3.039062 2.445312 -3.140625 2.125 -3.140625 Z M 2.125 -3.140625 "/></g></g></g><g fill="#000000" fill-opacity="1"><g transform="translate(101.832538, 26.522656)"><g><path d="M 4.046875 -3.65625 L 4.046875 0 L 3.40625 0 L 3.40625 -0.546875 C 3.28125 -0.359375 3.109375 -0.210938 2.890625 -0.109375 C 2.671875 -0.00390625 2.429688 0.046875 2.171875 0.046875 C 1.679688 0.046875 1.296875 -0.0859375 1.015625 -0.359375 C 0.734375 -0.628906 0.59375 -1.023438 0.59375 -1.546875 L 0.59375 -3.65625 L 1.25 -3.65625 L 1.25 -1.625 C 1.25 -1.269531 1.332031 -1 1.5 -0.8125 C 1.675781 -0.632812 1.925781 -0.546875 2.25 -0.546875 C 2.59375 -0.546875 2.863281 -0.648438 3.0625 -0.859375 C 3.269531 -1.078125 3.375 -1.378906 3.375 -1.765625 L 3.375 -3.65625 Z M 4.046875 -3.65625 "/></g></g></g><g fill="#000000" fill-opacity="1"><g transform="translate(106.509222, 26.522656)"><g><path d="M 1.265625 -3.046875 C 1.378906 -3.253906 1.546875 -3.410156 1.765625 -3.515625 C 1.992188 -3.628906 2.269531 -3.6875 2.59375 -3.6875 L 2.59375 -3.046875 C 2.5625 -3.054688 2.507812 -3.0625 2.4375 -3.0625 C 2.082031 -3.0625 1.800781 -2.953125 1.59375 -2.734375 C 1.394531 -2.523438 1.296875 -2.222656 1.296875 -1.828125 L 1.296875 0 L 0.625 0 L 0.625 -3.65625 L 1.265625 -3.65625 Z M 1.265625 -3.046875 "/></g></g></g><path fill="#000000" d="M 13.871094 15.726562 C 13.871094 15.726562 12.984375 15.738281 12.949219 15.875 C 12.914062 16.011719 12.871094 16.128906 13.332031 16.066406 C 13.796875 16.003906 14.050781 15.804688 14.019531 15.773438 C 13.984375 15.738281 13.871094 15.726562 13.871094 15.726562 Z M 10.414062 16.203125 C 10.414062 16.203125 10.097656 16.210938 10.09375 16.277344 C 10.085938 16.339844 10.109375 16.414062 10.226562 16.398438 C 10.34375 16.386719 10.515625 16.289062 10.492188 16.253906 C 10.472656 16.21875 10.414062 16.203125 10.414062 16.203125 Z M 7.378906 17.625 C 9.261719 17.011719 9.996094 19.675781 8.671875 20.589844 C 9.066406 20.609375 9.359375 20.664062 9.566406 20.511719 C 10.027344 20.175781 10.296875 18.910156 9.714844 18.066406 C 9.53125 17.582031 8.835938 16.988281 8.066406 17.113281 C 7.273438 17.246094 6.882812 17.945312 6.882812 17.945312 C 6.882812 17.945312 6.882812 17.945312 6.953125 17.957031 C 7 17.964844 7.0625 17.785156 7.378906 17.625 Z M 19.878906 17.339844 C 21.609375 17.257812 22.027344 19.140625 21.597656 20.53125 L 22.996094 20.511719 C 23.671875 18.046875 22.382812 15.394531 19.5625 15.792969 C 18.328125 15.964844 17.613281 16.914062 17.375 17.238281 C 17.230469 17.433594 17.328125 17.449219 17.484375 17.296875 C 17.722656 17.066406 18.269531 16.546875 19.160156 16.285156 C 20.332031 15.941406 21.191406 16.300781 21.769531 17.042969 C 21.257812 16.703125 20.457031 16.53125 19.726562 16.699219 C 18.289062 17.027344 17.316406 18.367188 17.445312 20.46875 C 17.453125 20.636719 18.261719 20.503906 18.261719 20.503906 C 18.261719 20.503906 18.125 20.191406 18.121094 19.65625 C 18.109375 18.347656 18.761719 17.429688 19.878906 17.339844 Z M 29.429688 20.230469 C 29.429688 20.230469 31.671875 20.109375 32.324219 19.871094 C 32.527344 19.796875 32.691406 19.679688 32.824219 19.550781 C 31.386719 19.96875 25.839844 19.765625 25.839844 19.765625 C 25.839844 19.765625 25.4375 19.839844 25.417969 19.628906 C 25.402344 19.417969 25.929688 17.855469 26.363281 17.351562 C 26.660156 17.003906 28.070312 16.980469 28.476562 17.167969 C 28.714844 17.273438 28.972656 17.675781 29.292969 17.710938 C 29.613281 17.746094 31.949219 17.804688 32.289062 17.660156 C 32.625 17.515625 32.675781 17.332031 32.871094 17.292969 C 33.066406 17.253906 33.734375 17.191406 33.789062 17.238281 C 33.824219 17.269531 33.859375 17.9375 33.664062 18.558594 C 33.617188 18.726562 33.324219 19.683594 32.523438 20.097656 C 31.648438 20.546875 30.613281 20.582031 30.613281 20.582031 Z M 6.304688 18.082031 C 6.304688 18.082031 6.792969 16.648438 7.121094 16.398438 C 7.445312 16.152344 7.75 16.191406 8.070312 15.863281 C 8.390625 15.539062 9.582031 13.855469 9.8125 13.746094 C 9.855469 13.726562 10.050781 13.652344 10.34375 13.542969 C 10.21875 13.921875 9.828125 15.117188 9.886719 15.144531 C 9.949219 15.175781 10.433594 13.867188 10.613281 13.445312 C 11.269531 13.203125 12.242188 12.859375 13.15625 12.5625 C 12.941406 13.039062 12.535156 14.726562 12.535156 14.726562 C 12.535156 14.726562 12.535156 14.726562 12.550781 14.753906 C 12.558594 14.773438 13.097656 13.140625 13.511719 12.449219 C 14.496094 12.136719 15.351562 11.90625 15.582031 11.957031 C 16.011719 12.050781 16.695312 12.820312 17.226562 13.425781 C 17.121094 13.335938 17.027344 13.261719 16.960938 13.234375 C 16.707031 13.121094 15.746094 13.210938 15.53125 13.347656 C 15.320312 13.484375 15.46875 13.945312 15.46875 13.945312 C 15.46875 13.945312 15.53125 14.050781 15.695312 14.085938 C 15.859375 14.125 16.488281 14.027344 16.75 13.992188 C 16.90625 13.972656 17.132812 14.050781 17.285156 14.121094 C 15.101562 14.507812 9.1875 15.730469 9.1875 15.730469 C 9.1875 15.730469 8.769531 15.84375 8.828125 15.878906 C 8.859375 15.898438 14.117188 15.0625 18.839844 14.664062 C 20.238281 14.542969 21.609375 14.503906 22.761719 14.496094 C 22.765625 14.519531 22.773438 14.546875 22.785156 14.574219 C 22.859375 14.800781 23.957031 15.945312 24.585938 16.121094 C 25.214844 16.300781 26.371094 16.144531 26.347656 16.09375 C 26.324219 16.039062 25.523438 16.070312 25.007812 15.882812 C 24.492188 15.699219 23.601562 14.828125 23.554688 14.667969 C 23.535156 14.601562 23.554688 14.542969 23.585938 14.496094 C 24.050781 14.496094 24.457031 14.503906 24.796875 14.511719 C 25.058594 14.5625 25.332031 14.632812 25.589844 14.734375 C 26.511719 15.097656 27.332031 15.878906 27.308594 15.96875 C 27.285156 16.054688 27.128906 16.070312 27.128906 16.070312 C 27.128906 16.070312 27.492188 16.152344 27.523438 15.871094 C 27.546875 15.640625 27.109375 14.925781 26.9375 14.679688 C 27.109375 14.71875 27.417969 14.804688 27.535156 14.917969 C 27.699219 15.078125 28.40625 16.449219 28.773438 16.632812 C 29.140625 16.816406 32.988281 16.878906 33.117188 16.671875 C 33.25 16.464844 32.464844 14.757812 32.464844 14.757812 C 32.464844 14.757812 30.707031 14.332031 28.453125 14.1875 C 28.3125 14.179688 28.171875 14.171875 28.023438 14.164062 C 28.007812 14.160156 27.996094 14.160156 27.976562 14.160156 C 27.210938 14.109375 23.882812 13.972656 21.902344 14.027344 C 20.980469 14.050781 19.144531 14.234375 18.527344 13.558594 C 18.355469 13.371094 17.34375 12.460938 16.617188 11.871094 L 19.695312 13.542969 L 25.386719 13.648438 C 25.386719 13.648438 24.472656 12.855469 23.476562 12.4375 C 22.167969 11.894531 17.417969 11.328125 15.8125 11.34375 C 15.738281 11.339844 15.652344 11.34375 15.558594 11.355469 C 15.269531 11.390625 14.953125 11.492188 14.953125 11.492188 C 14.953125 11.492188 9.765625 13.378906 9.488281 13.640625 C 9.210938 13.902344 7.964844 15.714844 7.769531 15.773438 C 7.574219 15.832031 7.121094 15.875 6.925781 16.183594 C 6.808594 16.367188 6.421875 17.1875 6.277344 17.675781 C 6.183594 18.003906 6.304688 18.082031 6.304688 18.082031 " fill-opacity="1" fill-rule="evenodd"/><path stroke-linecap="round" transform="matrix(0.00674093, 0, 0, -0.00674093, 5.07574, 33.833546)" fill="none" stroke-linejoin="round" d="M 1304.769181 2686.126673 C 1304.769181 2686.126673 1173.226628 2684.388225 1168.011285 2664.106334 C 1162.795941 2643.824442 1156.421632 2626.439964 1224.800581 2635.711686 C 1293.759012 2644.983408 1331.425382 2674.537021 1326.789521 2679.172882 C 1321.574177 2684.388225 1304.769181 2686.126673 1304.769181 2686.126673 Z M 791.927069 2615.429794 C 791.927069 2615.429794 744.988977 2614.270829 744.409494 2604.419625 C 743.250529 2595.147903 746.727425 2584.137733 764.111903 2586.455664 C 781.496381 2588.194112 806.993616 2602.681177 803.516721 2607.89652 C 800.619308 2613.111864 791.927069 2615.429794 791.927069 2615.429794 Z M 341.669078 2404.498123 C 620.979698 2495.476893 729.922429 2100.269751 533.477823 1964.67082 C 592.005567 1961.773406 635.466763 1953.66065 666.179341 1976.260472 C 734.55829 2026.095977 774.54259 2213.848343 688.199681 2339.016588 C 660.963998 2410.872432 557.816093 2498.953789 443.658018 2480.410345 C 326.023047 2460.707937 268.074786 2356.980549 268.074786 2356.980549 C 268.074786 2356.980549 268.074786 2356.980549 278.505473 2355.242101 C 285.459264 2354.083136 294.730986 2380.739336 341.669078 2404.498123 Z M 2196.013441 2446.800354 C 2452.724239 2458.969489 2514.728878 2179.658869 2450.985791 1973.363059 L 2658.440566 1976.260472 C 2758.691059 2341.914001 2567.461796 2735.382695 2149.075349 2676.275469 C 1965.958843 2650.778234 1859.913525 2509.963959 1824.565086 2461.866902 C 1803.124229 2432.892771 1817.611294 2430.574841 1840.790599 2453.174663 C 1876.139038 2487.364137 1957.266604 2564.435324 2089.38864 2603.26066 C 2263.233424 2654.25513 2390.719599 2600.942729 2476.483026 2490.841033 C 2400.570803 2541.25602 2281.776868 2566.753255 2173.413619 2541.835503 C 1960.164017 2493.158963 1815.872846 2294.396427 1834.995773 1982.634781 C 1836.154738 1957.717028 1956.107639 1977.419437 1956.107639 1977.419437 C 1956.107639 1977.419437 1935.825747 2023.778046 1935.246265 2103.167164 C 1933.507817 2297.29384 2030.281413 2433.472254 2196.013441 2446.800354 Z M 3612.848431 2017.98322 C 3612.848431 2017.98322 3945.471451 2035.947181 4042.245047 2071.29562 C 4072.378143 2082.30579 4096.716413 2099.690268 4116.418822 2118.813195 C 3903.16922 2056.808555 3080.303909 2086.941651 3080.303909 2086.941651 C 3080.303909 2086.941651 3020.6172 2075.931481 3017.719787 2107.223542 C 3015.401856 2138.515604 3093.632009 2370.308649 3157.954579 2445.061906 C 3201.995258 2496.635859 3411.188481 2500.112754 3471.454673 2472.297589 C 3506.803113 2456.651558 3545.048965 2396.964849 3592.566539 2391.749506 C 3640.084114 2386.534162 3986.614716 2377.841923 4037.029704 2399.28278 C 4086.865209 2420.723636 4094.398483 2447.959319 4123.372613 2453.754145 C 4152.346744 2459.548971 4251.438271 2468.820693 4259.551027 2461.866902 C 4264.766371 2457.231041 4269.981714 2358.139514 4241.007584 2266.001779 C 4234.053792 2241.084026 4190.592596 2099.110786 4071.798661 2037.685629 C 3941.994555 1971.045128 3788.431663 1965.829785 3788.431663 1965.829785 Z M 182.311359 2336.698657 C 182.311359 2336.698657 254.746686 2549.368776 303.423225 2586.455664 C 351.520282 2622.963068 396.719926 2617.168242 444.2375 2665.844782 C 491.755075 2713.941839 668.497272 2963.698845 702.686746 2979.924358 C 709.061055 2982.821771 738.035185 2993.831941 781.496381 3010.057454 C 762.952938 2953.847641 705.004677 2776.525961 713.696916 2772.469583 C 722.968638 2767.833722 794.824482 2961.960397 821.480682 3024.54452 C 918.833761 3060.472442 1063.124932 3111.466912 1198.723863 3155.50759 C 1166.852319 3084.810711 1106.586128 2834.474222 1106.586128 2834.474222 C 1106.586128 2834.474222 1106.586128 2834.474222 1108.904058 2830.417844 C 1110.063023 2827.520431 1190.031624 3069.744163 1251.456781 3172.312586 C 1397.4864 3218.671195 1524.393092 3252.860669 1558.582566 3245.327395 C 1622.325654 3231.419813 1723.735111 3117.261738 1802.544746 3027.441933 C 1786.898716 3040.770033 1772.991133 3051.780202 1763.139929 3055.836581 C 1725.473559 3072.641576 1582.920836 3059.313476 1551.049292 3039.031585 C 1519.757231 3018.749693 1541.77757 2950.370745 1541.77757 2950.370745 C 1541.77757 2950.370745 1551.049292 2934.724714 1575.387562 2929.509371 C 1599.725832 2923.714545 1693.022532 2938.20161 1731.847868 2943.416954 C 1755.027172 2946.314367 1788.637164 2934.724714 1811.236986 2924.294027 C 1487.306205 2866.925249 609.969528 2685.547191 609.969528 2685.547191 C 609.969528 2685.547191 547.964888 2668.742195 556.657127 2663.526851 C 561.292988 2660.629438 1341.276586 2784.638718 2041.871066 2843.745944 C 2249.325841 2861.709905 2452.724239 2867.504731 2623.67161 2868.663696 C 2624.251092 2865.186801 2625.410057 2861.130423 2627.148505 2857.074044 C 2638.158675 2823.464053 2800.993289 2653.675647 2894.28999 2627.598929 C 2987.586691 2600.942729 3159.113544 2624.122034 3155.636649 2631.655308 C 3152.159753 2639.768064 3033.365817 2635.132203 2956.874112 2662.947369 C 2880.382407 2690.183052 2748.260372 2819.407674 2741.30658 2843.166461 C 2738.409167 2853.017666 2741.30658 2861.709905 2745.942441 2868.663696 C 2814.900872 2868.663696 2875.167064 2867.504731 2925.582051 2866.345766 C 2964.407386 2858.812492 3004.971169 2848.381805 3043.217022 2833.315257 C 3179.974919 2779.423374 3301.666267 2663.526851 3298.189372 2650.198751 C 3294.712476 2637.450134 3271.533171 2635.132203 3271.533171 2635.132203 C 3271.533171 2635.132203 3325.425055 2622.963068 3330.060915 2664.685817 C 3333.537811 2698.875291 3268.635758 2804.920609 3243.138523 2841.428014 C 3268.635758 2835.633188 3314.414885 2822.88457 3331.799363 2806.079574 C 3356.137633 2782.320787 3461.023986 2578.92239 3515.495352 2551.686707 C 3569.966717 2524.451024 4140.757092 2515.179302 4159.880018 2545.891881 C 4179.582427 2576.604459 4063.106421 2829.838361 4063.106421 2829.838361 C 4063.106421 2829.838361 3802.339245 2893.001966 3467.977777 2914.442823 C 3447.116403 2915.601788 3426.255029 2916.760753 3404.23469 2917.919719 C 3401.916759 2918.499201 3400.178312 2918.499201 3397.280899 2918.499201 C 3283.702306 2926.032475 2789.98312 2946.314367 2496.185435 2938.20161 C 2359.427538 2934.724714 2087.07071 2907.489032 1995.512457 3007.739524 C 1970.015222 3035.554689 1819.929225 3170.574138 1712.145459 3258.076013 L 2168.777758 3010.057454 L 3013.083926 2994.411424 C 3013.083926 2994.411424 2877.484994 3112.046394 2729.716928 3174.051034 C 2535.590252 3254.599117 1830.939394 3338.624096 1592.77204 3336.306166 C 1581.761871 3336.885648 1569.013253 3336.306166 1555.10567 3334.567718 C 1512.223957 3329.352374 1465.285865 3314.285826 1465.285865 3314.285826 C 1465.285865 3314.285826 695.732955 3034.395724 654.589689 2995.570389 C 613.446424 2956.745054 428.59147 2687.865121 399.617339 2679.172882 C 370.643209 2670.480643 303.423225 2664.106334 274.449095 2618.327207 C 257.064616 2591.091525 199.695838 2469.400176 178.254981 2396.964849 C 164.347398 2348.28831 182.311359 2336.698657 182.311359 2336.698657 Z M 182.311359 2336.698657 " stroke="#000000" stroke-width="2.268" stroke-opacity="1" stroke-miterlimit="10"/><g clip-path="url(#0f5ca040d8)"><path fill="#800020" d="M 6.65625 15.128906 C 5.96875 12.292969 5.453125 10.019531 5.472656 9.710938 C 5.617188 7.359375 8.542969 5.8125 12.511719 5.03125 C 14.734375 4.59375 17.320312 4.371094 19.910156 4.371094 C 22.503906 4.371094 25.089844 4.589844 27.308594 5.03125 C 31.273438 5.8125 34.191406 7.355469 34.339844 9.710938 C 34.355469 9.984375 33.949219 11.804688 33.378906 14.195312 C 32.894531 14.042969 32.300781 13.882812 31.679688 13.726562 C 32.199219 11.582031 32.566406 10 32.554688 9.816406 C 32.46875 8.441406 30.144531 7.414062 26.96875 6.789062 C 24.839844 6.367188 22.375 6.160156 19.910156 6.160156 C 17.449219 6.160156 14.984375 6.367188 12.855469 6.789062 C 9.671875 7.417969 7.34375 8.441406 7.257812 9.816406 C 7.246094 9.996094 7.605469 11.558594 8.121094 13.679688 L 7.925781 14.09375 C 7.78125 14.394531 7.140625 14.824219 6.722656 15.074219 C 6.699219 15.089844 6.675781 15.105469 6.65625 15.128906 Z M 19.4375 33.703125 L 10.230469 28.324219 C 9.988281 28.183594 9.839844 27.949219 9.796875 27.695312 C 9.765625 27.5625 9.6875 27.261719 9.574219 26.824219 L 11.414062 26.804688 L 11.453125 26.960938 L 19.90625 31.898438 L 28.359375 26.960938 L 28.453125 26.601562 L 30.300781 26.578125 C 30.109375 27.320312 29.996094 27.761719 29.996094 27.769531 C 29.933594 28.011719 29.777344 28.203125 29.578125 28.320312 L 29.582031 28.324219 L 20.355469 33.710938 C 20.0625 33.882812 19.710938 33.867188 19.4375 33.703125 " fill-opacity="1" fill-rule="nonzero"/></g><path fill="#000000" d="M 32.53125 15.070312 C 32.550781 15.078125 32.898438 15.152344 33.09375 15.40625 C 33.292969 15.65625 33.398438 15.980469 33.433594 15.96875 C 33.46875 15.957031 33.335938 15.253906 33.054688 15.015625 C 32.773438 14.777344 32.351562 14.730469 32.351562 14.730469 C 32.351562 14.730469 32.339844 14.980469 32.351562 15.003906 C 32.363281 15.027344 32.53125 15.070312 32.53125 15.070312 " fill-opacity="1" fill-rule="evenodd"/><path fill="#ffffff" d="M 30.304688 16.363281 C 30.304688 16.363281 29.589844 14.929688 29.636719 14.800781 C 29.679688 14.675781 29.800781 14.773438 29.84375 14.820312 C 29.886719 14.871094 30.398438 16.371094 30.363281 16.386719 C 30.328125 16.402344 30.304688 16.363281 30.304688 16.363281 Z M 31.335938 16.464844 C 31.335938 16.464844 30.625 15.03125 30.667969 14.902344 C 30.710938 14.777344 30.835938 14.875 30.875 14.921875 C 30.917969 14.96875 31.429688 16.472656 31.398438 16.488281 C 31.363281 16.503906 31.335938 16.464844 31.335938 16.464844 Z M 32.335938 16.421875 C 32.335938 16.421875 31.734375 15.089844 31.785156 14.972656 C 31.839844 14.855469 31.957031 14.949219 31.992188 14.992188 C 32.03125 15.035156 32.429688 16.429688 32.394531 16.441406 C 32.359375 16.457031 32.335938 16.421875 32.335938 16.421875 Z M 29.347656 16.332031 C 29.347656 16.332031 28.539062 14.945312 28.574219 14.816406 C 28.609375 14.6875 28.738281 14.777344 28.785156 14.824219 C 28.828125 14.871094 29.441406 16.339844 29.40625 16.355469 C 29.375 16.371094 29.347656 16.332031 29.347656 16.332031 " fill-opacity="1" fill-rule="evenodd"/><g clip-path="url(#2321daf0fc)"><path fill="#800020" d="M 5.074219 26.554688 L 36.304688 26.554688 C 36.304688 26.554688 34.496094 26.910156 31.15625 27.078125 C 28.304688 27.21875 22.523438 27.238281 20.90625 27.242188 C 20.90625 27.242188 20.828125 27.242188 20.691406 27.242188 C 20.550781 27.242188 20.476562 27.242188 20.476562 27.242188 L 20.472656 27.242188 C 18.855469 27.238281 13.078125 27.21875 10.222656 27.078125 C 6.882812 26.910156 5.074219 26.554688 5.074219 26.554688 " fill-opacity="1" fill-rule="evenodd"/></g><g clip-path="url(#ec6416f4d4)"><path fill="#800020" d="M 5.074219 20.8125 L 36.304688 20.8125 C 36.304688 20.8125 34.496094 20.457031 31.15625 20.292969 C 28.304688 20.152344 22.523438 20.128906 20.90625 20.125 C 20.90625 20.125 20.828125 20.125 20.691406 20.125 C 20.550781 20.125 20.476562 20.125 20.476562 20.125 L 20.472656 20.125 C 18.855469 20.128906 13.078125 20.152344 10.222656 20.292969 C 6.882812 20.457031 5.074219 20.8125 5.074219 20.8125 " fill-opacity="1" fill-rule="evenodd"/></g><g fill="#800020" fill-opacity="1"><g transform="translate(3.953165, 24.105987)"><g><path d="M 0.65625 -1.609375 L 0.015625 -1.609375 L 0.015625 -2.078125 L 1.875 -2.078125 L 1.875 -1.609375 L 1.234375 -1.609375 L 1.234375 0 L 0.65625 0 Z M 0.65625 -1.609375 "/></g></g></g><g fill="#800020" fill-opacity="1"><g transform="translate(5.841706, 24.105987)"><g><path d="M 0.203125 -2.078125 L 0.796875 -2.078125 L 0.796875 0 L 0.203125 0 Z M 0.203125 -2.078125 "/></g></g></g><g fill="#800020" fill-opacity="1"><g transform="translate(6.849918, 24.105987)"><g><path d="M 0.65625 -1.609375 L 0.015625 -1.609375 L 0.015625 -2.078125 L 1.875 -2.078125 L 1.875 -1.609375 L 1.234375 -1.609375 L 1.234375 0 L 0.65625 0 Z M 0.65625 -1.609375 "/></g></g></g><g fill="#800020" fill-opacity="1"><g transform="translate(8.738459, 24.105987)"><g><path d="M 0.203125 -2.078125 L 0.796875 -2.078125 L 0.796875 0 L 0.203125 0 Z M 0.203125 -2.078125 "/></g></g></g><g fill="#800020" fill-opacity="1"><g transform="translate(9.746671, 24.105987)"><g><path d="M 1.59375 -0.40625 L 0.71875 -0.40625 L 0.5625 0 L -0.046875 0 L 0.875 -2.078125 L 1.453125 -2.078125 L 2.375 0 L 1.765625 0 Z M 1.421875 -0.84375 L 1.15625 -1.5 L 0.890625 -0.84375 Z M 1.421875 -0.84375 "/></g></g></g><g fill="#800020" fill-opacity="1"><g transform="translate(12.084297, 24.105987)"><g><path d="M 1.8125 -1.078125 C 1.925781 -1.035156 2.015625 -0.96875 2.078125 -0.875 C 2.148438 -0.789062 2.1875 -0.6875 2.1875 -0.5625 C 2.1875 -0.382812 2.113281 -0.242188 1.96875 -0.140625 C 1.820312 -0.046875 1.609375 0 1.328125 0 L 0.203125 0 L 0.203125 -2.078125 L 1.265625 -2.078125 C 1.535156 -2.078125 1.738281 -2.023438 1.875 -1.921875 C 2.007812 -1.828125 2.078125 -1.695312 2.078125 -1.53125 C 2.078125 -1.4375 2.050781 -1.347656 2 -1.265625 C 1.957031 -1.191406 1.894531 -1.128906 1.8125 -1.078125 Z M 0.796875 -1.65625 L 0.796875 -1.25 L 1.1875 -1.25 C 1.382812 -1.25 1.484375 -1.316406 1.484375 -1.453125 C 1.484375 -1.585938 1.382812 -1.65625 1.1875 -1.65625 Z M 1.28125 -0.421875 C 1.488281 -0.421875 1.59375 -0.492188 1.59375 -0.640625 C 1.59375 -0.773438 1.488281 -0.84375 1.28125 -0.84375 L 0.796875 -0.84375 L 0.796875 -0.421875 Z M 1.28125 -0.421875 "/></g></g></g><g fill="#800020" fill-opacity="1"><g transform="translate(14.371363, 24.105987)"><g><path d="M 0.203125 -2.078125 L 0.796875 -2.078125 L 0.796875 0 L 0.203125 0 Z M 0.203125 -2.078125 "/></g></g></g><g fill="#800020" fill-opacity="1"><g transform="translate(15.379574, 24.105987)"><g><path d="M 1.015625 -0.75 L 0.796875 -0.515625 L 0.796875 0 L 0.203125 0 L 0.203125 -2.078125 L 0.796875 -2.078125 L 0.796875 -1.21875 L 1.59375 -2.078125 L 2.234375 -2.078125 L 1.390625 -1.15625 L 2.28125 0 L 1.609375 0 Z M 1.015625 -0.75 "/></g></g></g><g fill="#800020" fill-opacity="1"><g transform="translate(17.616082, 24.105987)"><g><path d="M 0.9375 0.046875 C 0.769531 0.046875 0.601562 0.0234375 0.4375 -0.015625 C 0.28125 -0.0546875 0.15625 -0.113281 0.0625 -0.1875 L 0.25 -0.625 C 0.34375 -0.5625 0.453125 -0.507812 0.578125 -0.46875 C 0.703125 -0.4375 0.820312 -0.421875 0.9375 -0.421875 C 1.164062 -0.421875 1.28125 -0.472656 1.28125 -0.578125 C 1.28125 -0.640625 1.25 -0.6875 1.1875 -0.71875 C 1.125 -0.75 1.019531 -0.78125 0.875 -0.8125 C 0.71875 -0.84375 0.585938 -0.875 0.484375 -0.90625 C 0.378906 -0.945312 0.285156 -1.007812 0.203125 -1.09375 C 0.128906 -1.1875 0.09375 -1.304688 0.09375 -1.453125 C 0.09375 -1.578125 0.128906 -1.6875 0.203125 -1.78125 C 0.273438 -1.882812 0.378906 -1.96875 0.515625 -2.03125 C 0.648438 -2.09375 0.816406 -2.125 1.015625 -2.125 C 1.148438 -2.125 1.285156 -2.109375 1.421875 -2.078125 C 1.554688 -2.046875 1.671875 -2 1.765625 -1.9375 L 1.59375 -1.5 C 1.394531 -1.601562 1.203125 -1.65625 1.015625 -1.65625 C 0.898438 -1.65625 0.816406 -1.640625 0.765625 -1.609375 C 0.710938 -1.578125 0.6875 -1.53125 0.6875 -1.46875 C 0.6875 -1.414062 0.71875 -1.375 0.78125 -1.34375 C 0.84375 -1.320312 0.941406 -1.296875 1.078125 -1.265625 C 1.234375 -1.234375 1.363281 -1.195312 1.46875 -1.15625 C 1.570312 -1.113281 1.660156 -1.050781 1.734375 -0.96875 C 1.816406 -0.882812 1.859375 -0.769531 1.859375 -0.625 C 1.859375 -0.5 1.820312 -0.382812 1.75 -0.28125 C 1.6875 -0.1875 1.582031 -0.109375 1.4375 -0.046875 C 1.300781 0.015625 1.132812 0.046875 0.9375 0.046875 Z M 0.9375 0.046875 "/></g></g></g><g fill="#800020" fill-opacity="1"><g transform="translate(19.540311, 24.105987)"><g/></g></g><g fill="#800020" fill-opacity="1"><g transform="translate(20.405766, 24.105987)"><g><path d="M 2.3125 -2.078125 L 1.421875 0 L 0.84375 0 L -0.046875 -2.078125 L 0.59375 -2.078125 L 1.15625 -0.71875 L 1.734375 -2.078125 Z M 2.3125 -2.078125 "/></g></g></g><g fill="#800020" fill-opacity="1"><g transform="translate(22.683911, 24.105987)"><g><path d="M 1.875 -0.453125 L 1.875 0 L 0.203125 0 L 0.203125 -2.078125 L 1.84375 -2.078125 L 1.84375 -1.625 L 0.796875 -1.625 L 0.796875 -1.28125 L 1.71875 -1.28125 L 1.71875 -0.828125 L 0.796875 -0.828125 L 0.796875 -0.453125 Z M 1.875 -0.453125 "/></g></g></g><g fill="#800020" fill-opacity="1"><g transform="translate(24.682492, 24.105987)"><g><path d="M 2.1875 -2.078125 L 2.1875 0 L 1.703125 0 L 0.78125 -1.109375 L 0.78125 0 L 0.203125 0 L 0.203125 -2.078125 L 0.6875 -2.078125 L 1.609375 -0.96875 L 1.609375 -2.078125 Z M 2.1875 -2.078125 "/></g></g></g><g fill="#800020" fill-opacity="1"><g transform="translate(27.079601, 24.105987)"><g><path d="M 0.65625 -1.609375 L 0.015625 -1.609375 L 0.015625 -2.078125 L 1.875 -2.078125 L 1.875 -1.609375 L 1.234375 -1.609375 L 1.234375 0 L 0.65625 0 Z M 0.65625 -1.609375 "/></g></g></g><g fill="#800020" fill-opacity="1"><g transform="translate(28.968142, 24.105987)"><g><path d="M 1.171875 0.046875 C 0.859375 0.046875 0.613281 -0.0351562 0.4375 -0.203125 C 0.269531 -0.378906 0.1875 -0.617188 0.1875 -0.921875 L 0.1875 -2.078125 L 0.78125 -2.078125 L 0.78125 -0.9375 C 0.78125 -0.613281 0.910156 -0.453125 1.171875 -0.453125 C 1.429688 -0.453125 1.5625 -0.613281 1.5625 -0.9375 L 1.5625 -2.078125 L 2.140625 -2.078125 L 2.140625 -0.921875 C 2.140625 -0.617188 2.050781 -0.378906 1.875 -0.203125 C 1.707031 -0.0351562 1.472656 0.046875 1.171875 0.046875 Z M 1.171875 0.046875 "/></g></g></g><g fill="#800020" fill-opacity="1"><g transform="translate(31.305769, 24.105987)"><g><path d="M 1.109375 -0.546875 L 0.796875 -0.546875 L 0.796875 0 L 0.203125 0 L 0.203125 -2.078125 L 1.15625 -2.078125 C 1.34375 -2.078125 1.503906 -2.046875 1.640625 -1.984375 C 1.785156 -1.921875 1.894531 -1.832031 1.96875 -1.71875 C 2.039062 -1.601562 2.078125 -1.46875 2.078125 -1.3125 C 2.078125 -1.15625 2.039062 -1.019531 1.96875 -0.90625 C 1.90625 -0.800781 1.804688 -0.71875 1.671875 -0.65625 L 2.125 0 L 1.5 0 Z M 1.484375 -1.3125 C 1.484375 -1.40625 1.453125 -1.476562 1.390625 -1.53125 C 1.328125 -1.582031 1.238281 -1.609375 1.125 -1.609375 L 0.796875 -1.609375 L 0.796875 -1 L 1.125 -1 C 1.238281 -1 1.328125 -1.023438 1.390625 -1.078125 C 1.453125 -1.128906 1.484375 -1.207031 1.484375 -1.3125 Z M 1.484375 -1.3125 "/></g></g></g><g fill="#800020" fill-opacity="1"><g transform="translate(33.506588, 24.105987)"><g><path d="M 1.875 -0.453125 L 1.875 0 L 0.203125 0 L 0.203125 -2.078125 L 1.84375 -2.078125 L 1.84375 -1.625 L 0.796875 -1.625 L 0.796875 -1.28125 L 1.71875 -1.28125 L 1.71875 -0.828125 L 0.796875 -0.828125 L 0.796875 -0.453125 Z M 1.875 -0.453125 "/></g></g></g><g fill="#800020" fill-opacity="1"><g transform="translate(35.505169, 24.105987)"><g><path d="M 0.9375 0.046875 C 0.769531 0.046875 0.601562 0.0234375 0.4375 -0.015625 C 0.28125 -0.0546875 0.15625 -0.113281 0.0625 -0.1875 L 0.25 -0.625 C 0.34375 -0.5625 0.453125 -0.507812 0.578125 -0.46875 C 0.703125 -0.4375 0.820312 -0.421875 0.9375 -0.421875 C 1.164062 -0.421875 1.28125 -0.472656 1.28125 -0.578125 C 1.28125 -0.640625 1.25 -0.6875 1.1875 -0.71875 C 1.125 -0.75 1.019531 -0.78125 0.875 -0.8125 C 0.71875 -0.84375 0.585938 -0.875 0.484375 -0.90625 C 0.378906 -0.945312 0.285156 -1.007812 0.203125 -1.09375 C 0.128906 -1.1875 0.09375 -1.304688 0.09375 -1.453125 C 0.09375 -1.578125 0.128906 -1.6875 0.203125 -1.78125 C 0.273438 -1.882812 0.378906 -1.96875 0.515625 -2.03125 C 0.648438 -2.09375 0.816406 -2.125 1.015625 -2.125 C 1.148438 -2.125 1.285156 -2.109375 1.421875 -2.078125 C 1.554688 -2.046875 1.671875 -2 1.765625 -1.9375 L 1.59375 -1.5 C 1.394531 -1.601562 1.203125 -1.65625 1.015625 -1.65625 C 0.898438 -1.65625 0.816406 -1.640625 0.765625 -1.609375 C 0.710938 -1.578125 0.6875 -1.53125 0.6875 -1.46875 C 0.6875 -1.414062 0.71875 -1.375 0.78125 -1.34375 C 0.84375 -1.320312 0.941406 -1.296875 1.078125 -1.265625 C 1.234375 -1.234375 1.363281 -1.195312 1.46875 -1.15625 C 1.570312 -1.113281 1.660156 -1.050781 1.734375 -0.96875 C 1.816406 -0.882812 1.859375 -0.769531 1.859375 -0.625 C 1.859375 -0.5 1.820312 -0.382812 1.75 -0.28125 C 1.6875 -0.1875 1.582031 -0.109375 1.4375 -0.046875 C 1.300781 0.015625 1.132812 0.046875 0.9375 0.046875 Z M 0.9375 0.046875 "/></g></g></g></svg>