<svg xmlns="http://www.w3.org/2000/svg" xmlns:xlink="http://www.w3.org/1999/xlink" width="200" zoomAndPan="magnify" viewBox="0 0 150 37.5" height="50" preserveAspectRatio="xMidYMid meet" version="1.0"><defs><g/><clipPath id="30ee4bf866"><path d="M 0.988281 0 L 149.011719 0 L 149.011719 37.007812 L 0.988281 37.007812 Z M 0.988281 0 " clip-rule="nonzero"/></clipPath><clipPath id="135eb79064"><path d="M 5.03125 4.011719 L 34.730469 4.011719 L 34.730469 34.195312 L 5.03125 34.195312 Z M 5.03125 4.011719 " clip-rule="nonzero"/></clipPath><clipPath id="d66833e150"><path d="M 4.6875 26.734375 L 36.511719 26.734375 L 36.511719 27.492188 L 4.6875 27.492188 Z M 4.6875 26.734375 " clip-rule="nonzero"/></clipPath><clipPath id="5edb1f01ab"><path d="M 4.6875 20.101562 L 36.511719 20.101562 L 36.511719 20.863281 L 4.6875 20.863281 Z M 4.6875 20.101562 " clip-rule="nonzero"/></clipPath></defs><g clip-path="url(#30ee4bf866)"><path fill="#ffffff" d="M 0.988281 0 L 149.011719 0 L 149.011719 37.007812 L 0.988281 37.007812 Z M 0.988281 0 " fill-opacity="1" fill-rule="nonzero"/><path fill="#ffffff" d="M 0.988281 0 L 149.011719 0 L 149.011719 37.007812 L 0.988281 37.007812 Z M 0.988281 0 " fill-opacity="1" fill-rule="nonzero"/></g><path fill="#000000" d="M 13.699219 15.644531 C 13.699219 15.644531 12.792969 15.65625 12.757812 15.796875 C 12.71875 15.9375 12.675781 16.054688 13.148438 15.988281 C 13.621094 15.925781 13.882812 15.722656 13.851562 15.691406 C 13.816406 15.65625 13.699219 15.644531 13.699219 15.644531 Z M 10.15625 16.132812 C 10.15625 16.132812 9.835938 16.140625 9.828125 16.207031 C 9.820312 16.273438 9.847656 16.347656 9.964844 16.332031 C 10.082031 16.316406 10.257812 16.222656 10.238281 16.183594 C 10.214844 16.148438 10.15625 16.132812 10.15625 16.132812 Z M 7.046875 17.589844 C 8.976562 16.960938 9.730469 19.6875 8.371094 20.625 C 8.777344 20.644531 9.078125 20.703125 9.285156 20.546875 C 9.757812 20.203125 10.035156 18.90625 9.441406 18.039062 C 9.253906 17.542969 8.539062 16.9375 7.753906 17.066406 C 6.941406 17.199219 6.539062 17.914062 6.539062 17.914062 C 6.539062 17.914062 6.539062 17.914062 6.613281 17.929688 C 6.660156 17.9375 6.722656 17.753906 7.046875 17.589844 Z M 19.855469 17.292969 C 21.625 17.214844 22.058594 19.144531 21.613281 20.566406 L 23.050781 20.546875 C 23.742188 18.019531 22.421875 15.304688 19.53125 15.710938 C 18.265625 15.890625 17.535156 16.863281 17.289062 17.191406 C 17.144531 17.390625 17.242188 17.410156 17.402344 17.253906 C 17.648438 17.015625 18.203125 16.484375 19.117188 16.214844 C 20.320312 15.863281 21.199219 16.234375 21.792969 16.992188 C 21.269531 16.644531 20.445312 16.464844 19.699219 16.636719 C 18.226562 16.976562 17.230469 18.347656 17.359375 20.5 C 17.371094 20.675781 18.199219 20.539062 18.199219 20.539062 C 18.199219 20.539062 18.058594 20.21875 18.054688 19.667969 C 18.042969 18.328125 18.710938 17.386719 19.855469 17.292969 Z M 29.640625 20.257812 C 29.640625 20.257812 31.9375 20.132812 32.605469 19.890625 C 32.8125 19.816406 32.984375 19.691406 33.121094 19.5625 C 31.644531 19.992188 25.960938 19.78125 25.960938 19.78125 C 25.960938 19.78125 25.546875 19.859375 25.53125 19.644531 C 25.511719 19.425781 26.054688 17.824219 26.5 17.308594 C 26.804688 16.953125 28.246094 16.929688 28.664062 17.117188 C 28.90625 17.230469 29.171875 17.640625 29.5 17.675781 C 29.828125 17.714844 32.222656 17.773438 32.570312 17.625 C 32.917969 17.476562 32.964844 17.285156 33.164062 17.25 C 33.367188 17.210938 34.050781 17.144531 34.105469 17.191406 C 34.140625 17.222656 34.179688 17.90625 33.980469 18.546875 C 33.933594 18.71875 33.632812 19.699219 32.8125 20.121094 C 31.914062 20.582031 30.855469 20.617188 30.855469 20.617188 Z M 5.945312 18.054688 C 5.945312 18.054688 6.445312 16.589844 6.78125 16.332031 C 7.117188 16.078125 7.429688 16.117188 7.757812 15.785156 C 8.085938 15.449219 9.304688 13.722656 9.542969 13.613281 C 9.585938 13.597656 9.785156 13.519531 10.085938 13.40625 C 9.957031 13.792969 9.558594 15.019531 9.617188 15.046875 C 9.679688 15.078125 10.179688 13.738281 10.359375 13.304688 C 11.035156 13.058594 12.03125 12.707031 12.96875 12.402344 C 12.746094 12.890625 12.332031 14.621094 12.332031 14.621094 C 12.332031 14.621094 12.332031 14.621094 12.347656 14.648438 C 12.355469 14.664062 12.90625 12.992188 13.332031 12.285156 C 14.339844 11.964844 15.21875 11.726562 15.453125 11.78125 C 15.894531 11.875 16.59375 12.664062 17.136719 13.285156 C 17.03125 13.191406 16.933594 13.117188 16.867188 13.089844 C 16.605469 12.972656 15.621094 13.066406 15.402344 13.203125 C 15.183594 13.34375 15.335938 13.816406 15.335938 13.816406 C 15.335938 13.816406 15.402344 13.929688 15.570312 13.964844 C 15.734375 14 16.378906 13.902344 16.648438 13.867188 C 16.808594 13.84375 17.042969 13.929688 17.199219 13.996094 C 14.960938 14.394531 8.898438 15.648438 8.898438 15.648438 C 8.898438 15.648438 8.472656 15.761719 8.53125 15.800781 C 8.5625 15.820312 13.953125 14.960938 18.792969 14.550781 C 20.222656 14.429688 21.625 14.390625 22.808594 14.382812 C 22.816406 14.40625 22.820312 14.433594 22.832031 14.460938 C 22.910156 14.691406 24.035156 15.867188 24.679688 16.046875 C 25.320312 16.230469 26.507812 16.074219 26.484375 16.019531 C 26.457031 15.960938 25.636719 15.992188 25.109375 15.804688 C 24.582031 15.617188 23.667969 14.722656 23.621094 14.558594 C 23.601562 14.492188 23.621094 14.429688 23.65625 14.382812 C 24.128906 14.382812 24.546875 14.390625 24.894531 14.398438 C 25.160156 14.449219 25.441406 14.523438 25.703125 14.625 C 26.652344 14.996094 27.492188 15.800781 27.464844 15.890625 C 27.441406 15.980469 27.285156 15.992188 27.285156 15.992188 C 27.285156 15.992188 27.65625 16.078125 27.6875 15.792969 C 27.710938 15.554688 27.265625 14.824219 27.085938 14.570312 C 27.261719 14.613281 27.578125 14.699219 27.699219 14.8125 C 27.867188 14.980469 28.589844 16.382812 28.96875 16.570312 C 29.34375 16.757812 33.285156 16.824219 33.421875 16.613281 C 33.554688 16.402344 32.753906 14.652344 32.753906 14.652344 C 32.753906 14.652344 30.949219 14.214844 28.640625 14.066406 C 28.496094 14.058594 28.351562 14.050781 28.199219 14.042969 C 28.183594 14.039062 28.171875 14.039062 28.152344 14.039062 C 27.367188 13.984375 23.957031 13.84375 21.925781 13.902344 C 20.984375 13.929688 19.101562 14.113281 18.472656 13.421875 C 18.296875 13.230469 17.257812 12.300781 16.515625 11.695312 L 19.667969 13.40625 L 25.5 13.515625 C 25.5 13.515625 24.5625 12.699219 23.542969 12.273438 C 22.199219 11.714844 17.335938 11.136719 15.691406 11.15625 C 15.613281 11.148438 15.523438 11.152344 15.429688 11.164062 C 15.132812 11.203125 14.808594 11.304688 14.808594 11.304688 C 14.808594 11.304688 9.492188 13.238281 9.210938 13.507812 C 8.921875 13.773438 7.648438 15.632812 7.445312 15.691406 C 7.246094 15.753906 6.785156 15.796875 6.585938 16.113281 C 6.464844 16.300781 6.066406 17.140625 5.921875 17.636719 C 5.820312 17.980469 5.945312 18.054688 5.945312 18.054688 " fill-opacity="1" fill-rule="evenodd"/><path stroke-linecap="round" transform="matrix(0.00690678, 0, 0, -0.00690678, 4.6875, 34.195835)" fill="none" stroke-linejoin="round" d="M 1304.763529 2685.954223 C 1304.763529 2685.954223 1173.551941 2684.257522 1168.461836 2663.897103 C 1162.806164 2643.536684 1156.584925 2626.569669 1225.018555 2636.184311 C 1293.452185 2645.233386 1331.345187 2674.64288 1326.820649 2679.167417 C 1321.730544 2684.257522 1304.763529 2685.954223 1304.763529 2685.954223 Z M 791.794088 2615.258325 C 791.794088 2615.258325 745.417578 2614.12719 744.286444 2604.512548 C 743.155309 2594.897906 747.11428 2584.152129 764.081295 2586.414398 C 781.048311 2588.676667 806.498835 2602.250279 803.670999 2607.905951 C 800.277596 2612.996056 791.794088 2615.258325 791.794088 2615.258325 Z M 341.602605 2404.301763 C 620.992796 2495.358081 730.147264 2100.592182 533.329882 1964.856057 C 592.14887 1962.028221 635.697543 1953.544713 665.672604 1976.167401 C 734.106234 2025.937313 774.261505 2213.70562 688.295292 2339.261536 C 661.148067 2411.088569 557.649271 2498.751484 443.970266 2480.087766 C 326.332291 2460.858482 268.07887 2357.359686 268.07887 2357.359686 C 268.07887 2357.359686 268.07887 2357.359686 278.824647 2355.097418 C 285.611453 2353.966283 294.660528 2380.547941 341.602605 2404.301763 Z M 2196.097419 2447.284869 C 2452.299356 2458.596213 2515.077314 2179.206022 2450.602655 1973.339565 L 2658.73138 1976.167401 C 2758.836773 2342.089372 2567.675063 2735.158569 2149.155343 2676.339581 C 1965.911573 2650.32349 1860.150509 2509.49726 1824.519776 2461.989616 C 1803.59379 2433.14569 1817.73297 2430.317854 1840.921224 2452.940541 C 1876.551957 2487.44014 1956.862498 2564.357278 2089.205221 2603.381414 C 2263.399915 2654.282461 2390.652533 2600.553578 2476.618745 2490.833543 C 2400.832742 2541.169023 2281.498065 2567.185114 2173.474732 2542.300157 C 1960.255901 2493.095812 1816.036268 2294.581728 1834.699985 1982.954207 C 1836.396687 1957.503683 1956.296931 1977.298535 1956.296931 1977.298535 C 1956.296931 1977.298535 1935.936512 2023.675044 1935.370945 2103.420018 C 1933.674243 2297.409564 2030.386233 2433.711257 2196.097419 2447.284869 Z M 3612.843229 2018.019373 C 3612.843229 2018.019373 3945.396737 2036.117523 4042.108726 2071.182688 C 4072.083787 2081.928465 4096.968743 2100.026615 4116.763595 2118.690332 C 3902.979197 2056.477941 3080.078937 2087.01857 3080.078937 2087.01857 C 3080.078937 2087.01857 3020.128815 2075.707226 3017.866546 2106.813421 C 3015.03871 2138.485184 3093.652549 2370.367732 3158.127209 2445.022601 C 3202.24145 2496.489215 3410.935743 2499.882618 3471.451432 2472.735393 C 3506.516598 2456.333944 3544.975166 2396.94939 3592.48281 2391.859285 C 3639.990454 2386.203613 3986.683142 2377.720105 4037.018621 2399.211658 C 4087.354101 2420.703212 4094.140908 2448.416004 4122.984834 2453.506109 C 4152.394328 2459.16178 4251.368586 2468.776423 4259.286527 2461.989616 C 4264.376632 2457.465079 4270.032304 2358.490821 4241.188377 2265.737802 C 4234.401571 2240.852845 4190.852897 2098.895481 4072.083787 2037.814224 C 3942.003334 1971.077296 3788.734625 1965.987191 3788.734625 1965.987191 Z M 182.112657 2336.999267 C 182.112657 2336.999267 254.505258 2549.086964 303.144036 2586.414398 C 351.782814 2623.176265 397.028189 2617.520593 444.535833 2665.593805 C 492.043477 2714.232583 668.50044 2964.213281 703.000039 2980.049162 C 709.221278 2982.311431 738.065205 2993.622775 781.613878 3010.024223 C 762.950161 2954.033071 705.262308 2776.444974 713.745816 2772.486003 C 722.794891 2767.961466 795.187491 2961.951012 821.203582 3024.72897 C 919.046705 3060.359703 1063.266339 3111.26075 1199.002464 3155.374991 C 1166.765134 3084.679092 1106.815012 2834.132827 1106.815012 2834.132827 C 1106.815012 2834.132827 1106.815012 2834.132827 1109.077281 2830.173857 C 1110.208415 2827.911588 1189.953389 3069.974345 1251.600213 3172.342006 C 1397.516548 3218.718516 1524.769165 3253.218115 1558.703197 3245.300174 C 1622.612289 3231.726561 1723.848816 3117.481989 1802.462655 3027.556806 C 1787.192341 3041.130418 1773.053162 3051.876195 1763.438519 3055.835165 C 1725.545518 3072.802181 1583.022586 3059.228569 1551.350823 3039.433717 C 1519.679061 3019.073298 1541.736181 2950.639668 1541.736181 2950.639668 C 1541.736181 2950.639668 1551.350823 2934.23822 1575.670212 2929.148115 C 1599.424034 2924.05801 1692.742621 2938.19719 1731.766757 2943.287295 C 1754.955012 2946.680698 1788.889043 2934.23822 1811.51173 2924.623577 C 1487.441731 2866.935724 609.681453 2685.388656 609.681453 2685.388656 C 609.681453 2685.388656 548.034629 2668.987208 556.518137 2663.331536 C 561.042674 2660.5037 1341.525396 2784.928482 2042.263144 2844.313036 C 2249.260735 2861.845619 2452.299356 2867.501291 2623.666215 2868.632426 C 2624.797349 2865.239023 2625.362916 2861.280052 2627.059618 2857.321082 C 2638.370962 2823.952618 2801.254312 2653.716894 2894.572898 2627.700803 C 2987.325918 2601.119145 3159.258343 2623.741833 3155.86494 2631.659773 C 3151.90597 2640.143281 3033.13686 2635.618744 2956.785289 2662.765969 C 2880.433719 2689.913194 2748.090996 2819.42808 2741.30419 2843.181902 C 2738.476354 2852.796544 2741.30419 2861.845619 2746.394295 2868.632426 C 2814.827925 2868.632426 2875.343614 2867.501291 2925.679094 2866.370157 C 2964.137663 2859.017783 3004.8585 2848.272007 3042.751502 2833.56726 C 3180.184329 2779.838377 3301.781275 2663.331536 3297.822305 2650.32349 C 3294.428902 2637.315445 3271.806214 2635.618744 3271.806214 2635.618744 C 3271.806214 2635.618744 3325.535097 2623.176265 3330.059634 2664.46267 C 3333.453038 2698.962269 3268.978378 2804.723333 3242.962287 2841.485201 C 3268.412811 2835.263961 3314.223753 2822.821483 3331.756336 2806.420035 C 3356.075725 2782.100646 3460.705655 2579.062025 3515.565673 2551.914799 C 3569.860123 2524.767574 4140.517417 2515.152932 4160.312269 2545.69356 C 4179.541553 2576.234189 4063.600279 2829.60829 4063.600279 2829.60829 C 4063.600279 2829.60829 3802.308238 2892.951815 3468.058029 2914.443368 C 3447.132043 2915.574502 3426.206057 2916.705637 3404.148936 2917.836771 C 3401.886668 2918.402338 3400.189966 2918.402338 3397.36213 2918.402338 C 3283.683125 2926.320279 2789.942968 2946.680698 2495.84803 2938.19719 C 2359.546337 2934.23822 2086.942952 2907.656562 1995.886634 3007.761954 C 1970.436111 3035.474747 1819.995238 3170.079738 1712.537472 3257.742652 L 2168.950194 3010.024223 L 3013.342008 2994.188342 C 3013.342008 2994.188342 2877.605883 3112.391884 2729.992846 3174.038708 C 2535.437733 3254.914816 1831.306582 3338.61876 1593.202795 3335.790924 C 1581.891452 3336.922059 1568.883406 3336.356491 1555.309794 3334.65979 C 1512.326687 3329.004118 1465.38461 3314.299371 1465.38461 3314.299371 C 1465.38461 3314.299371 695.647665 3034.343612 654.926828 2995.319476 C 613.074856 2956.860907 428.699952 2687.650925 399.290458 2679.167417 C 370.446531 2670.118342 303.709603 2663.897103 274.865676 2618.086161 C 257.333094 2590.938936 199.64524 2469.34199 178.719254 2397.514957 C 164.014507 2347.745044 182.112657 2336.999267 182.112657 2336.999267 Z M 182.112657 2336.999267 " stroke="#000000" stroke-width="2.268" stroke-opacity="1" stroke-miterlimit="10"/><g clip-path="url(#135eb79064)"><path fill="#800020" d="M 6.304688 15.03125 C 5.605469 12.125 5.074219 9.796875 5.09375 9.476562 C 5.242188 7.070312 8.238281 5.488281 12.304688 4.683594 C 14.582031 4.234375 17.234375 4.011719 19.886719 4.011719 C 22.542969 4.011719 25.191406 4.234375 27.46875 4.683594 C 31.53125 5.484375 34.519531 7.066406 34.671875 9.476562 C 34.6875 9.761719 34.273438 11.625 33.6875 14.074219 C 33.191406 13.921875 32.582031 13.753906 31.945312 13.59375 C 32.480469 11.398438 32.851562 9.773438 32.84375 9.585938 C 32.753906 8.175781 30.371094 7.128906 27.117188 6.484375 C 24.9375 6.054688 22.410156 5.839844 19.886719 5.839844 C 17.367188 5.839844 14.839844 6.054688 12.65625 6.484375 C 9.398438 7.128906 7.011719 8.179688 6.921875 9.585938 C 6.910156 9.773438 7.28125 11.371094 7.804688 13.546875 L 7.605469 13.96875 C 7.460938 14.277344 6.804688 14.71875 6.375 14.976562 C 6.351562 14.988281 6.328125 15.007812 6.304688 15.03125 Z M 19.40625 34.0625 L 9.96875 28.550781 C 9.722656 28.40625 9.566406 28.167969 9.523438 27.90625 C 9.492188 27.773438 9.410156 27.460938 9.296875 27.015625 L 11.179688 26.992188 L 11.222656 27.15625 L 19.882812 32.214844 L 28.542969 27.15625 L 28.636719 26.785156 L 30.53125 26.761719 C 30.339844 27.519531 30.222656 27.976562 30.21875 27.984375 C 30.15625 28.230469 30 28.425781 29.792969 28.546875 L 29.796875 28.550781 L 20.34375 34.070312 C 20.042969 34.246094 19.683594 34.230469 19.40625 34.0625 " fill-opacity="1" fill-rule="nonzero"/></g><path fill="#000000" d="M 32.820312 14.972656 C 32.835938 14.980469 33.191406 15.054688 33.394531 15.3125 C 33.601562 15.570312 33.707031 15.902344 33.742188 15.890625 C 33.777344 15.878906 33.644531 15.15625 33.355469 14.914062 C 33.066406 14.671875 32.632812 14.625 32.632812 14.625 C 32.632812 14.625 32.621094 14.878906 32.632812 14.902344 C 32.644531 14.925781 32.820312 14.972656 32.820312 14.972656 " fill-opacity="1" fill-rule="evenodd"/><path fill="#ffffff" d="M 30.535156 16.292969 C 30.535156 16.292969 29.804688 14.824219 29.851562 14.695312 C 29.894531 14.566406 30.023438 14.667969 30.066406 14.714844 C 30.109375 14.765625 30.632812 16.304688 30.597656 16.320312 C 30.5625 16.335938 30.535156 16.292969 30.535156 16.292969 Z M 31.59375 16.398438 C 31.59375 16.398438 30.863281 14.929688 30.910156 14.800781 C 30.953125 14.671875 31.082031 14.769531 31.125 14.820312 C 31.167969 14.867188 31.691406 16.410156 31.65625 16.421875 C 31.621094 16.4375 31.59375 16.398438 31.59375 16.398438 Z M 32.617188 16.355469 C 32.617188 16.355469 32 14.992188 32.054688 14.871094 C 32.109375 14.753906 32.226562 14.84375 32.269531 14.890625 C 32.308594 14.9375 32.714844 16.363281 32.675781 16.378906 C 32.640625 16.390625 32.617188 16.355469 32.617188 16.355469 Z M 29.554688 16.265625 C 29.554688 16.265625 28.726562 14.84375 28.765625 14.710938 C 28.800781 14.578125 28.933594 14.671875 28.980469 14.71875 C 29.027344 14.765625 29.652344 16.269531 29.617188 16.285156 C 29.582031 16.304688 29.554688 16.265625 29.554688 16.265625 " fill-opacity="1" fill-rule="evenodd"/><g clip-path="url(#d66833e150)"><path fill="#800020" d="M 4.6875 26.738281 L 36.6875 26.738281 C 36.6875 26.738281 34.832031 27.101562 31.410156 27.273438 C 28.488281 27.417969 22.566406 27.4375 20.90625 27.441406 C 20.90625 27.441406 20.828125 27.441406 20.6875 27.441406 C 20.542969 27.441406 20.464844 27.441406 20.464844 27.441406 C 18.804688 27.4375 12.886719 27.417969 9.960938 27.273438 C 6.539062 27.101562 4.6875 26.738281 4.6875 26.738281 " fill-opacity="1" fill-rule="evenodd"/></g><g clip-path="url(#5edb1f01ab)"><path fill="#800020" d="M 4.6875 20.855469 L 36.6875 20.855469 C 36.6875 20.855469 34.832031 20.492188 31.410156 20.320312 C 28.488281 20.175781 22.566406 20.15625 20.90625 20.152344 C 20.90625 20.152344 20.828125 20.152344 20.6875 20.152344 C 20.542969 20.152344 20.464844 20.152344 20.464844 20.152344 C 18.804688 20.15625 12.886719 20.175781 9.960938 20.320312 C 6.539062 20.492188 4.6875 20.855469 4.6875 20.855469 " fill-opacity="1" fill-rule="evenodd"/></g><g fill="#800020" fill-opacity="1"><g transform="translate(38.196457, 15.576809)"><g><path d="M 1.9375 -4.8125 L 0.03125 -4.8125 L 0.03125 -6.21875 L 5.59375 -6.21875 L 5.59375 -4.8125 L 3.703125 -4.8125 L 3.703125 0 L 1.9375 0 Z M 1.9375 -4.8125 "/></g></g></g><g fill="#800020" fill-opacity="1"><g transform="translate(43.836301, 15.576809)"><g><path d="M 0.625 -6.21875 L 2.375 -6.21875 L 2.375 0 L 0.625 0 Z M 0.625 -6.21875 "/></g></g></g><g fill="#800020" fill-opacity="1"><g transform="translate(46.847174, 15.576809)"><g><path d="M 1.9375 -4.8125 L 0.03125 -4.8125 L 0.03125 -6.21875 L 5.59375 -6.21875 L 5.59375 -4.8125 L 3.703125 -4.8125 L 3.703125 0 L 1.9375 0 Z M 1.9375 -4.8125 "/></g></g></g><g fill="#800020" fill-opacity="1"><g transform="translate(52.487018, 15.576809)"><g><path d="M 0.625 -6.21875 L 2.375 -6.21875 L 2.375 0 L 0.625 0 Z M 0.625 -6.21875 "/></g></g></g><g fill="#800020" fill-opacity="1"><g transform="translate(55.49789, 15.576809)"><g><path d="M 4.78125 -1.203125 L 2.15625 -1.203125 L 1.671875 0 L -0.125 0 L 2.625 -6.21875 L 4.34375 -6.21875 L 7.09375 0 L 5.265625 0 Z M 4.265625 -2.5 L 3.46875 -4.484375 L 2.671875 -2.5 Z M 4.265625 -2.5 "/></g></g></g><g fill="#800020" fill-opacity="1"><g transform="translate(62.478861, 15.576809)"><g><path d="M 5.390625 -3.234375 C 5.742188 -3.109375 6.019531 -2.914062 6.21875 -2.65625 C 6.425781 -2.394531 6.53125 -2.078125 6.53125 -1.703125 C 6.53125 -1.160156 6.3125 -0.738281 5.875 -0.4375 C 5.4375 -0.144531 4.800781 0 3.96875 0 L 0.625 0 L 0.625 -6.21875 L 3.796875 -6.21875 C 4.585938 -6.21875 5.191406 -6.066406 5.609375 -5.765625 C 6.023438 -5.472656 6.234375 -5.082031 6.234375 -4.59375 C 6.234375 -4.289062 6.160156 -4.019531 6.015625 -3.78125 C 5.867188 -3.550781 5.660156 -3.367188 5.390625 -3.234375 Z M 2.359375 -4.9375 L 2.359375 -3.75 L 3.5625 -3.75 C 4.15625 -3.75 4.453125 -3.945312 4.453125 -4.34375 C 4.453125 -4.738281 4.15625 -4.9375 3.5625 -4.9375 Z M 3.828125 -1.265625 C 4.441406 -1.265625 4.75 -1.476562 4.75 -1.90625 C 4.75 -2.320312 4.441406 -2.53125 3.828125 -2.53125 L 2.359375 -2.53125 L 2.359375 -1.265625 Z M 3.828125 -1.265625 "/></g></g></g><g fill="#800020" fill-opacity="1"><g transform="translate(69.308838, 15.576809)"><g><path d="M 0.625 -6.21875 L 2.375 -6.21875 L 2.375 0 L 0.625 0 Z M 0.625 -6.21875 "/></g></g></g><g fill="#800020" fill-opacity="1"><g transform="translate(72.319711, 15.576809)"><g><path d="M 3.015625 -2.25 L 2.359375 -1.546875 L 2.359375 0 L 0.625 0 L 0.625 -6.21875 L 2.359375 -6.21875 L 2.359375 -3.625 L 4.765625 -6.21875 L 6.703125 -6.21875 L 4.15625 -3.46875 L 6.828125 0 L 4.796875 0 Z M 3.015625 -2.25 "/></g></g></g><g fill="#800020" fill-opacity="1"><g transform="translate(78.998705, 15.576809)"><g><path d="M 2.796875 0.125 C 2.296875 0.125 1.804688 0.0625 1.328125 -0.0625 C 0.859375 -0.1875 0.476562 -0.351562 0.1875 -0.5625 L 0.765625 -1.859375 C 1.046875 -1.671875 1.367188 -1.519531 1.734375 -1.40625 C 2.097656 -1.300781 2.457031 -1.25 2.8125 -1.25 C 3.488281 -1.25 3.828125 -1.414062 3.828125 -1.75 C 3.828125 -1.925781 3.726562 -2.054688 3.53125 -2.140625 C 3.34375 -2.222656 3.035156 -2.3125 2.609375 -2.40625 C 2.140625 -2.507812 1.75 -2.617188 1.4375 -2.734375 C 1.125 -2.847656 0.851562 -3.03125 0.625 -3.28125 C 0.40625 -3.539062 0.296875 -3.890625 0.296875 -4.328125 C 0.296875 -4.703125 0.398438 -5.039062 0.609375 -5.34375 C 0.816406 -5.644531 1.125 -5.882812 1.53125 -6.0625 C 1.9375 -6.25 2.441406 -6.34375 3.046875 -6.34375 C 3.453125 -6.34375 3.851562 -6.296875 4.25 -6.203125 C 4.644531 -6.109375 4.992188 -5.972656 5.296875 -5.796875 L 4.75 -4.484375 C 4.164062 -4.804688 3.59375 -4.96875 3.03125 -4.96875 C 2.6875 -4.96875 2.429688 -4.914062 2.265625 -4.8125 C 2.109375 -4.707031 2.03125 -4.570312 2.03125 -4.40625 C 2.03125 -4.238281 2.125 -4.113281 2.3125 -4.03125 C 2.5 -3.945312 2.804688 -3.863281 3.234375 -3.78125 C 3.703125 -3.675781 4.09375 -3.566406 4.40625 -3.453125 C 4.71875 -3.335938 4.988281 -3.15625 5.21875 -2.90625 C 5.445312 -2.65625 5.5625 -2.3125 5.5625 -1.875 C 5.5625 -1.507812 5.457031 -1.175781 5.25 -0.875 C 5.039062 -0.570312 4.726562 -0.328125 4.3125 -0.140625 C 3.894531 0.0351562 3.390625 0.125 2.796875 0.125 Z M 2.796875 0.125 "/></g></g></g><g fill="#800020" fill-opacity="1"><g transform="translate(84.745125, 15.576809)"><g/></g></g><g fill="#800020" fill-opacity="1"><g transform="translate(87.329679, 15.576809)"><g><path d="M 6.921875 -6.21875 L 4.265625 0 L 2.53125 0 L -0.125 -6.21875 L 1.78125 -6.21875 L 3.46875 -2.171875 L 5.1875 -6.21875 Z M 6.921875 -6.21875 "/></g></g></g><g fill="#800020" fill-opacity="1"><g transform="translate(94.133015, 15.576809)"><g><path d="M 5.609375 -1.359375 L 5.609375 0 L 0.625 0 L 0.625 -6.21875 L 5.5 -6.21875 L 5.5 -4.859375 L 2.359375 -4.859375 L 2.359375 -3.8125 L 5.125 -3.8125 L 5.125 -2.5 L 2.359375 -2.5 L 2.359375 -1.359375 Z M 5.609375 -1.359375 "/></g></g></g><g fill="#800020" fill-opacity="1"><g transform="translate(100.101477, 15.576809)"><g><path d="M 6.53125 -6.21875 L 6.53125 0 L 5.078125 0 L 2.34375 -3.3125 L 2.34375 0 L 0.625 0 L 0.625 -6.21875 L 2.0625 -6.21875 L 4.8125 -2.90625 L 4.8125 -6.21875 Z M 6.53125 -6.21875 "/></g></g></g><g fill="#800020" fill-opacity="1"><g transform="translate(107.260084, 15.576809)"><g><path d="M 1.9375 -4.8125 L 0.03125 -4.8125 L 0.03125 -6.21875 L 5.59375 -6.21875 L 5.59375 -4.8125 L 3.703125 -4.8125 L 3.703125 0 L 1.9375 0 Z M 1.9375 -4.8125 "/></g></g></g><g fill="#800020" fill-opacity="1"><g transform="translate(112.899928, 15.576809)"><g><path d="M 3.484375 0.125 C 2.566406 0.125 1.847656 -0.125 1.328125 -0.625 C 0.816406 -1.132812 0.5625 -1.847656 0.5625 -2.765625 L 0.5625 -6.21875 L 2.328125 -6.21875 L 2.328125 -2.828125 C 2.328125 -1.828125 2.71875 -1.328125 3.5 -1.328125 C 4.28125 -1.328125 4.671875 -1.828125 4.671875 -2.828125 L 4.671875 -6.21875 L 6.40625 -6.21875 L 6.40625 -2.765625 C 6.40625 -1.847656 6.148438 -1.132812 5.640625 -0.625 C 5.128906 -0.125 4.410156 0.125 3.484375 0.125 Z M 3.484375 0.125 "/></g></g></g><g fill="#800020" fill-opacity="1"><g transform="translate(119.880899, 15.576809)"><g><path d="M 3.34375 -1.65625 L 2.375 -1.65625 L 2.375 0 L 0.625 0 L 0.625 -6.21875 L 3.46875 -6.21875 C 4.019531 -6.21875 4.503906 -6.125 4.921875 -5.9375 C 5.335938 -5.75 5.65625 -5.476562 5.875 -5.125 C 6.101562 -4.78125 6.21875 -4.375 6.21875 -3.90625 C 6.21875 -3.457031 6.113281 -3.066406 5.90625 -2.734375 C 5.695312 -2.398438 5.394531 -2.140625 5 -1.953125 L 6.34375 0 L 4.46875 0 Z M 4.453125 -3.90625 C 4.453125 -4.195312 4.359375 -4.421875 4.171875 -4.578125 C 3.984375 -4.742188 3.710938 -4.828125 3.359375 -4.828125 L 2.375 -4.828125 L 2.375 -3.015625 L 3.359375 -3.015625 C 3.710938 -3.015625 3.984375 -3.09375 4.171875 -3.25 C 4.359375 -3.40625 4.453125 -3.625 4.453125 -3.90625 Z M 4.453125 -3.90625 "/></g></g></g><g fill="#800020" fill-opacity="1"><g transform="translate(126.453316, 15.576809)"><g><path d="M 5.609375 -1.359375 L 5.609375 0 L 0.625 0 L 0.625 -6.21875 L 5.5 -6.21875 L 5.5 -4.859375 L 2.359375 -4.859375 L 2.359375 -3.8125 L 5.125 -3.8125 L 5.125 -2.5 L 2.359375 -2.5 L 2.359375 -1.359375 Z M 5.609375 -1.359375 "/></g></g></g><g fill="#800020" fill-opacity="1"><g transform="translate(132.421778, 15.576809)"><g><path d="M 2.796875 0.125 C 2.296875 0.125 1.804688 0.0625 1.328125 -0.0625 C 0.859375 -0.1875 0.476562 -0.351562 0.1875 -0.5625 L 0.765625 -1.859375 C 1.046875 -1.671875 1.367188 -1.519531 1.734375 -1.40625 C 2.097656 -1.300781 2.457031 -1.25 2.8125 -1.25 C 3.488281 -1.25 3.828125 -1.414062 3.828125 -1.75 C 3.828125 -1.925781 3.726562 -2.054688 3.53125 -2.140625 C 3.34375 -2.222656 3.035156 -2.3125 2.609375 -2.40625 C 2.140625 -2.507812 1.75 -2.617188 1.4375 -2.734375 C 1.125 -2.847656 0.851562 -3.03125 0.625 -3.28125 C 0.40625 -3.539062 0.296875 -3.890625 0.296875 -4.328125 C 0.296875 -4.703125 0.398438 -5.039062 0.609375 -5.34375 C 0.816406 -5.644531 1.125 -5.882812 1.53125 -6.0625 C 1.9375 -6.25 2.441406 -6.34375 3.046875 -6.34375 C 3.453125 -6.34375 3.851562 -6.296875 4.25 -6.203125 C 4.644531 -6.109375 4.992188 -5.972656 5.296875 -5.796875 L 4.75 -4.484375 C 4.164062 -4.804688 3.59375 -4.96875 3.03125 -4.96875 C 2.6875 -4.96875 2.429688 -4.914062 2.265625 -4.8125 C 2.109375 -4.707031 2.03125 -4.570312 2.03125 -4.40625 C 2.03125 -4.238281 2.125 -4.113281 2.3125 -4.03125 C 2.5 -3.945312 2.804688 -3.863281 3.234375 -3.78125 C 3.703125 -3.675781 4.09375 -3.566406 4.40625 -3.453125 C 4.71875 -3.335938 4.988281 -3.15625 5.21875 -2.90625 C 5.445312 -2.65625 5.5625 -2.3125 5.5625 -1.875 C 5.5625 -1.507812 5.457031 -1.175781 5.25 -0.875 C 5.039062 -0.570312 4.726562 -0.328125 4.3125 -0.140625 C 3.894531 0.0351562 3.390625 0.125 2.796875 0.125 Z M 2.796875 0.125 "/></g></g></g><g fill="#000000" fill-opacity="1"><g transform="translate(38.196457, 26.522656)"><g><path d="M 4.234375 -0.59375 L 4.234375 0 L 0.71875 0 L 0.71875 -4.828125 L 4.140625 -4.828125 L 4.140625 -4.234375 L 1.421875 -4.234375 L 1.421875 -2.75 L 3.84375 -2.75 L 3.84375 -2.15625 L 1.421875 -2.15625 L 1.421875 -0.59375 Z M 4.234375 -0.59375 "/></g></g></g><g fill="#000000" fill-opacity="1"><g transform="translate(42.824785, 26.522656)"><g><path d="M 2.96875 0 L 1.90625 -1.40625 L 0.828125 0 L 0.09375 0 L 1.546875 -1.875 L 0.171875 -3.65625 L 0.90625 -3.65625 L 1.90625 -2.34375 L 2.921875 -3.65625 L 3.640625 -3.65625 L 2.265625 -1.875 L 3.71875 0 Z M 2.96875 0 "/></g></g></g><g fill="#000000" fill-opacity="1"><g transform="translate(46.63798, 26.522656)"><g><path d="M 3.9375 -1.8125 C 3.9375 -1.757812 3.929688 -1.691406 3.921875 -1.609375 L 0.953125 -1.609375 C 0.992188 -1.285156 1.132812 -1.023438 1.375 -0.828125 C 1.613281 -0.628906 1.914062 -0.53125 2.28125 -0.53125 C 2.71875 -0.53125 3.066406 -0.679688 3.328125 -0.984375 L 3.703125 -0.546875 C 3.535156 -0.359375 3.328125 -0.210938 3.078125 -0.109375 C 2.835938 -0.00390625 2.566406 0.046875 2.265625 0.046875 C 1.867188 0.046875 1.519531 -0.03125 1.21875 -0.1875 C 0.925781 -0.351562 0.695312 -0.578125 0.53125 -0.859375 C 0.375 -1.148438 0.296875 -1.472656 0.296875 -1.828125 C 0.296875 -2.179688 0.375 -2.5 0.53125 -2.78125 C 0.6875 -3.070312 0.90625 -3.296875 1.1875 -3.453125 C 1.46875 -3.609375 1.78125 -3.6875 2.125 -3.6875 C 2.476562 -3.6875 2.789062 -3.609375 3.0625 -3.453125 C 3.332031 -3.296875 3.546875 -3.070312 3.703125 -2.78125 C 3.859375 -2.5 3.9375 -2.175781 3.9375 -1.8125 Z M 2.125 -3.140625 C 1.8125 -3.140625 1.546875 -3.039062 1.328125 -2.84375 C 1.117188 -2.65625 0.992188 -2.398438 0.953125 -2.078125 L 3.296875 -2.078125 C 3.265625 -2.390625 3.140625 -2.644531 2.921875 -2.84375 C 2.710938 -3.039062 2.445312 -3.140625 2.125 -3.140625 Z M 2.125 -3.140625 "/></g></g></g><g fill="#000000" fill-opacity="1"><g transform="translate(50.865651, 26.522656)"><g><path d="M 2.21875 0.046875 C 1.851562 0.046875 1.519531 -0.03125 1.21875 -0.1875 C 0.925781 -0.351562 0.695312 -0.578125 0.53125 -0.859375 C 0.375 -1.148438 0.296875 -1.472656 0.296875 -1.828125 C 0.296875 -2.191406 0.375 -2.515625 0.53125 -2.796875 C 0.695312 -3.078125 0.925781 -3.296875 1.21875 -3.453125 C 1.519531 -3.609375 1.851562 -3.6875 2.21875 -3.6875 C 2.550781 -3.6875 2.847656 -3.617188 3.109375 -3.484375 C 3.367188 -3.359375 3.570312 -3.171875 3.71875 -2.921875 L 3.21875 -2.59375 C 3.09375 -2.769531 2.945312 -2.898438 2.78125 -2.984375 C 2.613281 -3.066406 2.425781 -3.109375 2.21875 -3.109375 C 1.976562 -3.109375 1.757812 -3.054688 1.5625 -2.953125 C 1.375 -2.847656 1.222656 -2.695312 1.109375 -2.5 C 1.003906 -2.300781 0.953125 -2.078125 0.953125 -1.828125 C 0.953125 -1.566406 1.003906 -1.335938 1.109375 -1.140625 C 1.222656 -0.953125 1.375 -0.800781 1.5625 -0.6875 C 1.757812 -0.582031 1.976562 -0.53125 2.21875 -0.53125 C 2.425781 -0.53125 2.613281 -0.570312 2.78125 -0.65625 C 2.945312 -0.75 3.09375 -0.882812 3.21875 -1.0625 L 3.71875 -0.75 C 3.570312 -0.488281 3.367188 -0.289062 3.109375 -0.15625 C 2.847656 -0.0195312 2.550781 0.046875 2.21875 0.046875 Z M 2.21875 0.046875 "/></g></g></g><g fill="#000000" fill-opacity="1"><g transform="translate(54.810094, 26.522656)"><g><path d="M 4.046875 -3.65625 L 4.046875 0 L 3.40625 0 L 3.40625 -0.546875 C 3.28125 -0.359375 3.109375 -0.210938 2.890625 -0.109375 C 2.671875 -0.00390625 2.429688 0.046875 2.171875 0.046875 C 1.679688 0.046875 1.296875 -0.0859375 1.015625 -0.359375 C 0.734375 -0.628906 0.59375 -1.023438 0.59375 -1.546875 L 0.59375 -3.65625 L 1.25 -3.65625 L 1.25 -1.625 C 1.25 -1.269531 1.332031 -1 1.5 -0.8125 C 1.675781 -0.632812 1.925781 -0.546875 2.25 -0.546875 C 2.59375 -0.546875 2.863281 -0.648438 3.0625 -0.859375 C 3.269531 -1.078125 3.375 -1.378906 3.375 -1.765625 L 3.375 -3.65625 Z M 4.046875 -3.65625 "/></g></g></g><g fill="#000000" fill-opacity="1"><g transform="translate(59.486777, 26.522656)"><g><path d="M 2.6875 -0.21875 C 2.59375 -0.132812 2.472656 -0.0664062 2.328125 -0.015625 C 2.179688 0.0234375 2.035156 0.046875 1.890625 0.046875 C 1.515625 0.046875 1.222656 -0.0507812 1.015625 -0.25 C 0.816406 -0.445312 0.71875 -0.734375 0.71875 -1.109375 L 0.71875 -3.109375 L 0.109375 -3.109375 L 0.109375 -3.65625 L 0.71875 -3.65625 L 0.71875 -4.46875 L 1.390625 -4.46875 L 1.390625 -3.65625 L 2.4375 -3.65625 L 2.4375 -3.109375 L 1.390625 -3.109375 L 1.390625 -1.125 C 1.390625 -0.925781 1.4375 -0.773438 1.53125 -0.671875 C 1.632812 -0.566406 1.78125 -0.515625 1.96875 -0.515625 C 2.164062 -0.515625 2.335938 -0.570312 2.484375 -0.6875 Z M 2.6875 -0.21875 "/></g></g></g><g fill="#000000" fill-opacity="1"><g transform="translate(62.346669, 26.522656)"><g><path d="M 0.625 -3.65625 L 1.296875 -3.65625 L 1.296875 0 L 0.625 0 Z M 0.953125 -4.359375 C 0.828125 -4.359375 0.722656 -4.398438 0.640625 -4.484375 C 0.554688 -4.566406 0.515625 -4.671875 0.515625 -4.796875 C 0.515625 -4.910156 0.554688 -5.007812 0.640625 -5.09375 C 0.722656 -5.1875 0.828125 -5.234375 0.953125 -5.234375 C 1.085938 -5.234375 1.195312 -5.191406 1.28125 -5.109375 C 1.363281 -5.023438 1.40625 -4.925781 1.40625 -4.8125 C 1.40625 -4.6875 1.363281 -4.578125 1.28125 -4.484375 C 1.195312 -4.398438 1.085938 -4.359375 0.953125 -4.359375 Z M 0.953125 -4.359375 "/></g></g></g><g fill="#000000" fill-opacity="1"><g transform="translate(64.273988, 26.522656)"><g><path d="M 3.875 -3.65625 L 2.265625 0 L 1.59375 0 L -0.015625 -3.65625 L 0.671875 -3.65625 L 1.9375 -0.71875 L 3.21875 -3.65625 Z M 3.875 -3.65625 "/></g></g></g><g fill="#000000" fill-opacity="1"><g transform="translate(68.135538, 26.522656)"><g><path d="M 3.9375 -1.8125 C 3.9375 -1.757812 3.929688 -1.691406 3.921875 -1.609375 L 0.953125 -1.609375 C 0.992188 -1.285156 1.132812 -1.023438 1.375 -0.828125 C 1.613281 -0.628906 1.914062 -0.53125 2.28125 -0.53125 C 2.71875 -0.53125 3.066406 -0.679688 3.328125 -0.984375 L 3.703125 -0.546875 C 3.535156 -0.359375 3.328125 -0.210938 3.078125 -0.109375 C 2.835938 -0.00390625 2.566406 0.046875 2.265625 0.046875 C 1.867188 0.046875 1.519531 -0.03125 1.21875 -0.1875 C 0.925781 -0.351562 0.695312 -0.578125 0.53125 -0.859375 C 0.375 -1.148438 0.296875 -1.472656 0.296875 -1.828125 C 0.296875 -2.179688 0.375 -2.5 0.53125 -2.78125 C 0.6875 -3.070312 0.90625 -3.296875 1.1875 -3.453125 C 1.46875 -3.609375 1.78125 -3.6875 2.125 -3.6875 C 2.476562 -3.6875 2.789062 -3.609375 3.0625 -3.453125 C 3.332031 -3.296875 3.546875 -3.070312 3.703125 -2.78125 C 3.859375 -2.5 3.9375 -2.175781 3.9375 -1.8125 Z M 2.125 -3.140625 C 1.8125 -3.140625 1.546875 -3.039062 1.328125 -2.84375 C 1.117188 -2.65625 0.992188 -2.398438 0.953125 -2.078125 L 3.296875 -2.078125 C 3.265625 -2.390625 3.140625 -2.644531 2.921875 -2.84375 C 2.710938 -3.039062 2.445312 -3.140625 2.125 -3.140625 Z M 2.125 -3.140625 "/></g></g></g><g fill="#000000" fill-opacity="1"><g transform="translate(72.363209, 26.522656)"><g/></g></g><g fill="#000000" fill-opacity="1"><g transform="translate(74.221451, 26.522656)"><g><path d="M 2.890625 0.0625 C 2.398438 0.0625 1.960938 -0.046875 1.578125 -0.265625 C 1.191406 -0.484375 0.882812 -0.78125 0.65625 -1.15625 C 0.4375 -1.53125 0.328125 -1.953125 0.328125 -2.421875 C 0.328125 -2.890625 0.4375 -3.3125 0.65625 -3.6875 C 0.882812 -4.0625 1.191406 -4.351562 1.578125 -4.5625 C 1.972656 -4.78125 2.410156 -4.890625 2.890625 -4.890625 C 3.265625 -4.890625 3.609375 -4.828125 3.921875 -4.703125 C 4.242188 -4.578125 4.515625 -4.390625 4.734375 -4.140625 L 4.28125 -3.703125 C 3.914062 -4.085938 3.460938 -4.28125 2.921875 -4.28125 C 2.554688 -4.28125 2.226562 -4.195312 1.9375 -4.03125 C 1.65625 -3.875 1.429688 -3.648438 1.265625 -3.359375 C 1.097656 -3.078125 1.015625 -2.765625 1.015625 -2.421875 C 1.015625 -2.066406 1.097656 -1.75 1.265625 -1.46875 C 1.429688 -1.1875 1.65625 -0.960938 1.9375 -0.796875 C 2.226562 -0.640625 2.554688 -0.5625 2.921875 -0.5625 C 3.460938 -0.5625 3.914062 -0.753906 4.28125 -1.140625 L 4.734375 -0.703125 C 4.515625 -0.453125 4.242188 -0.257812 3.921875 -0.125 C 3.609375 0 3.265625 0.0625 2.890625 0.0625 Z M 2.890625 0.0625 "/></g></g></g><g fill="#000000" fill-opacity="1"><g transform="translate(79.215899, 26.522656)"><g><path d="M 2.578125 -3.6875 C 3.046875 -3.6875 3.414062 -3.550781 3.6875 -3.28125 C 3.96875 -3.019531 4.109375 -2.628906 4.109375 -2.109375 L 4.109375 0 L 3.4375 0 L 3.4375 -2.03125 C 3.4375 -2.382812 3.347656 -2.648438 3.171875 -2.828125 C 3.003906 -3.003906 2.765625 -3.09375 2.453125 -3.09375 C 2.085938 -3.09375 1.800781 -2.988281 1.59375 -2.78125 C 1.394531 -2.570312 1.296875 -2.273438 1.296875 -1.890625 L 1.296875 0 L 0.625 0 L 0.625 -5.125 L 1.296875 -5.125 L 1.296875 -3.140625 C 1.429688 -3.316406 1.609375 -3.453125 1.828125 -3.546875 C 2.054688 -3.640625 2.304688 -3.6875 2.578125 -3.6875 Z M 2.578125 -3.6875 "/></g></g></g><g fill="#000000" fill-opacity="1"><g transform="translate(83.920217, 26.522656)"><g><path d="M 1.96875 -3.6875 C 2.46875 -3.6875 2.851562 -3.5625 3.125 -3.3125 C 3.394531 -3.070312 3.53125 -2.703125 3.53125 -2.203125 L 3.53125 0 L 2.90625 0 L 2.90625 -0.484375 C 2.789062 -0.316406 2.628906 -0.1875 2.421875 -0.09375 C 2.222656 0 1.984375 0.046875 1.703125 0.046875 C 1.285156 0.046875 0.953125 -0.0507812 0.703125 -0.25 C 0.460938 -0.445312 0.34375 -0.707031 0.34375 -1.03125 C 0.34375 -1.351562 0.457031 -1.613281 0.6875 -1.8125 C 0.925781 -2.007812 1.300781 -2.109375 1.8125 -2.109375 L 2.859375 -2.109375 L 2.859375 -2.234375 C 2.859375 -2.523438 2.773438 -2.742188 2.609375 -2.890625 C 2.453125 -3.046875 2.210938 -3.125 1.890625 -3.125 C 1.671875 -3.125 1.457031 -3.085938 1.25 -3.015625 C 1.039062 -2.941406 0.863281 -2.847656 0.71875 -2.734375 L 0.453125 -3.21875 C 0.640625 -3.375 0.863281 -3.488281 1.125 -3.5625 C 1.382812 -3.644531 1.664062 -3.6875 1.96875 -3.6875 Z M 1.8125 -0.46875 C 2.0625 -0.46875 2.273438 -0.523438 2.453125 -0.640625 C 2.640625 -0.753906 2.773438 -0.914062 2.859375 -1.125 L 2.859375 -1.625 L 1.84375 -1.625 C 1.28125 -1.625 1 -1.4375 1 -1.0625 C 1 -0.875 1.066406 -0.726562 1.203125 -0.625 C 1.347656 -0.519531 1.550781 -0.46875 1.8125 -0.46875 Z M 1.8125 -0.46875 "/></g></g></g><g fill="#000000" fill-opacity="1"><g transform="translate(88.051177, 26.522656)"><g><path d="M 4.046875 -3.65625 L 4.046875 0 L 3.40625 0 L 3.40625 -0.546875 C 3.28125 -0.359375 3.109375 -0.210938 2.890625 -0.109375 C 2.671875 -0.00390625 2.429688 0.046875 2.171875 0.046875 C 1.679688 0.046875 1.296875 -0.0859375 1.015625 -0.359375 C 0.734375 -0.628906 0.59375 -1.023438 0.59375 -1.546875 L 0.59375 -3.65625 L 1.25 -3.65625 L 1.25 -1.625 C 1.25 -1.269531 1.332031 -1 1.5 -0.8125 C 1.675781 -0.632812 1.925781 -0.546875 2.25 -0.546875 C 2.59375 -0.546875 2.863281 -0.648438 3.0625 -0.859375 C 3.269531 -1.078125 3.375 -1.378906 3.375 -1.765625 L 3.375 -3.65625 Z M 4.046875 -3.65625 "/></g></g></g><g fill="#000000" fill-opacity="1"><g transform="translate(92.72786, 26.522656)"><g><path d="M 1.96875 -4.625 C 1.570312 -4.625 1.375 -4.410156 1.375 -3.984375 L 1.375 -3.65625 L 2.4375 -3.65625 L 2.4375 -3.109375 L 1.390625 -3.109375 L 1.390625 0 L 0.71875 0 L 0.71875 -3.109375 L 0.109375 -3.109375 L 0.109375 -3.65625 L 0.71875 -3.65625 L 0.71875 -3.984375 C 0.71875 -4.347656 0.820312 -4.632812 1.03125 -4.84375 C 1.25 -5.0625 1.550781 -5.171875 1.9375 -5.171875 C 2.082031 -5.171875 2.21875 -5.148438 2.34375 -5.109375 C 2.476562 -5.078125 2.585938 -5.023438 2.671875 -4.953125 L 2.484375 -4.453125 C 2.328125 -4.566406 2.15625 -4.625 1.96875 -4.625 Z M 1.96875 -4.625 "/></g></g></g><g fill="#000000" fill-opacity="1"><g transform="translate(95.166364, 26.522656)"><g><path d="M 1.96875 -4.625 C 1.570312 -4.625 1.375 -4.410156 1.375 -3.984375 L 1.375 -3.65625 L 2.4375 -3.65625 L 2.4375 -3.109375 L 1.390625 -3.109375 L 1.390625 0 L 0.71875 0 L 0.71875 -3.109375 L 0.109375 -3.109375 L 0.109375 -3.65625 L 0.71875 -3.65625 L 0.71875 -3.984375 C 0.71875 -4.347656 0.820312 -4.632812 1.03125 -4.84375 C 1.25 -5.0625 1.550781 -5.171875 1.9375 -5.171875 C 2.082031 -5.171875 2.21875 -5.148438 2.34375 -5.109375 C 2.476562 -5.078125 2.585938 -5.023438 2.671875 -4.953125 L 2.484375 -4.453125 C 2.328125 -4.566406 2.15625 -4.625 1.96875 -4.625 Z M 1.96875 -4.625 "/></g></g></g><g fill="#000000" fill-opacity="1"><g transform="translate(97.604868, 26.522656)"><g><path d="M 3.9375 -1.8125 C 3.9375 -1.757812 3.929688 -1.691406 3.921875 -1.609375 L 0.953125 -1.609375 C 0.992188 -1.285156 1.132812 -1.023438 1.375 -0.828125 C 1.613281 -0.628906 1.914062 -0.53125 2.28125 -0.53125 C 2.71875 -0.53125 3.066406 -0.679688 3.328125 -0.984375 L 3.703125 -0.546875 C 3.535156 -0.359375 3.328125 -0.210938 3.078125 -0.109375 C 2.835938 -0.00390625 2.566406 0.046875 2.265625 0.046875 C 1.867188 0.046875 1.519531 -0.03125 1.21875 -0.1875 C 0.925781 -0.351562 0.695312 -0.578125 0.53125 -0.859375 C 0.375 -1.148438 0.296875 -1.472656 0.296875 -1.828125 C 0.296875 -2.179688 0.375 -2.5 0.53125 -2.78125 C 0.6875 -3.070312 0.90625 -3.296875 1.1875 -3.453125 C 1.46875 -3.609375 1.78125 -3.6875 2.125 -3.6875 C 2.476562 -3.6875 2.789062 -3.609375 3.0625 -3.453125 C 3.332031 -3.296875 3.546875 -3.070312 3.703125 -2.78125 C 3.859375 -2.5 3.9375 -2.175781 3.9375 -1.8125 Z M 2.125 -3.140625 C 1.8125 -3.140625 1.546875 -3.039062 1.328125 -2.84375 C 1.117188 -2.65625 0.992188 -2.398438 0.953125 -2.078125 L 3.296875 -2.078125 C 3.265625 -2.390625 3.140625 -2.644531 2.921875 -2.84375 C 2.710938 -3.039062 2.445312 -3.140625 2.125 -3.140625 Z M 2.125 -3.140625 "/></g></g></g><g fill="#000000" fill-opacity="1"><g transform="translate(101.832538, 26.522656)"><g><path d="M 4.046875 -3.65625 L 4.046875 0 L 3.40625 0 L 3.40625 -0.546875 C 3.28125 -0.359375 3.109375 -0.210938 2.890625 -0.109375 C 2.671875 -0.00390625 2.429688 0.046875 2.171875 0.046875 C 1.679688 0.046875 1.296875 -0.0859375 1.015625 -0.359375 C 0.734375 -0.628906 0.59375 -1.023438 0.59375 -1.546875 L 0.59375 -3.65625 L 1.25 -3.65625 L 1.25 -1.625 C 1.25 -1.269531 1.332031 -1 1.5 -0.8125 C 1.675781 -0.632812 1.925781 -0.546875 2.25 -0.546875 C 2.59375 -0.546875 2.863281 -0.648438 3.0625 -0.859375 C 3.269531 -1.078125 3.375 -1.378906 3.375 -1.765625 L 3.375 -3.65625 Z M 4.046875 -3.65625 "/></g></g></g><g fill="#000000" fill-opacity="1"><g transform="translate(106.509222, 26.522656)"><g><path d="M 1.265625 -3.046875 C 1.378906 -3.253906 1.546875 -3.410156 1.765625 -3.515625 C 1.992188 -3.628906 2.269531 -3.6875 2.59375 -3.6875 L 2.59375 -3.046875 C 2.5625 -3.054688 2.507812 -3.0625 2.4375 -3.0625 C 2.082031 -3.0625 1.800781 -2.953125 1.59375 -2.734375 C 1.394531 -2.523438 1.296875 -2.222656 1.296875 -1.828125 L 1.296875 0 L 0.625 0 L 0.625 -3.65625 L 1.265625 -3.65625 Z M 1.265625 -3.046875 "/></g></g></g></svg>