<svg xmlns="http://www.w3.org/2000/svg" xmlns:xlink="http://www.w3.org/1999/xlink" width="500" zoomAndPan="magnify" viewBox="0 0 375 374.999991" height="500" preserveAspectRatio="xMidYMid meet" version="1.0"><defs><g/><clipPath id="18da9661be"><path d="M 72 37.5625 L 291 37.5625 L 291 260.25 L 72 260.25 Z M 72 37.5625 " clip-rule="nonzero"/></clipPath><clipPath id="6486fb88c0"><path d="M 69.359375 205.34375 L 305.609375 205.34375 L 305.609375 210.953125 L 69.359375 210.953125 Z M 69.359375 205.34375 " clip-rule="nonzero"/></clipPath><clipPath id="72de82c037"><path d="M 69.359375 156.386719 L 305.609375 156.386719 L 305.609375 161.996094 L 69.359375 161.996094 Z M 69.359375 156.386719 " clip-rule="nonzero"/></clipPath></defs><path fill="#000000" d="M 135.914062 123.460938 C 135.914062 123.460938 129.207031 123.550781 128.9375 124.585938 C 128.671875 125.617188 128.332031 126.492188 131.832031 126.015625 C 135.332031 125.550781 137.257812 124.042969 137.011719 123.800781 C 136.765625 123.550781 135.914062 123.460938 135.914062 123.460938 Z M 109.734375 127.074219 C 109.734375 127.074219 107.363281 127.113281 107.316406 127.609375 C 107.269531 128.105469 107.449219 128.660156 108.324219 128.554688 C 109.199219 128.4375 110.503906 127.726562 110.347656 127.457031 C 110.183594 127.183594 109.734375 127.074219 109.734375 127.074219 Z M 86.792969 137.824219 C 101.023438 133.183594 106.582031 153.324219 96.566406 160.242188 C 99.558594 160.390625 101.765625 160.804688 103.320312 159.664062 C 106.808594 157.117188 108.847656 147.546875 104.46875 141.152344 C 103.0625 137.492188 97.800781 133 91.996094 133.957031 C 85.988281 134.949219 83.023438 140.238281 83.023438 140.238281 C 83.023438 140.238281 83.023438 140.238281 83.566406 140.328125 C 83.925781 140.386719 84.386719 139.03125 86.792969 137.824219 Z M 181.347656 135.648438 C 194.429688 135.050781 197.617188 149.296875 194.347656 159.796875 L 204.941406 159.664062 C 210.058594 141.003906 200.308594 120.945312 178.957031 123.957031 C 169.628906 125.269531 164.210938 132.453125 162.40625 134.898438 C 161.328125 136.363281 162.058594 136.488281 163.25 135.335938 C 165.046875 133.589844 169.164062 129.671875 175.910156 127.683594 C 184.777344 125.066406 191.269531 127.8125 195.664062 133.414062 C 191.796875 130.839844 185.714844 129.535156 180.1875 130.804688 C 169.332031 133.285156 161.960938 143.425781 162.929688 159.320312 C 163.011719 160.617188 169.121094 159.613281 169.121094 159.613281 C 169.121094 159.613281 168.097656 157.226562 168.066406 153.183594 C 167.96875 143.277344 172.90625 136.332031 181.347656 135.648438 Z M 253.597656 157.519531 C 253.597656 157.519531 270.558594 156.609375 275.496094 154.8125 C 277.027344 154.253906 278.289062 153.351562 279.292969 152.382812 C 268.402344 155.5625 226.445312 154.015625 226.445312 154.015625 C 226.445312 154.015625 223.394531 154.585938 223.257812 152.988281 C 223.128906 151.386719 227.136719 139.554688 230.40625 135.761719 C 232.664062 133.132812 243.3125 132.949219 246.390625 134.351562 C 248.183594 135.171875 250.160156 138.203125 252.578125 138.472656 C 255.003906 138.738281 272.683594 139.179688 275.238281 138.085938 C 277.792969 136.996094 278.152344 135.59375 279.632812 135.304688 C 281.109375 135.023438 286.183594 134.527344 286.582031 134.886719 C 286.839844 135.117188 287.117188 140.167969 285.648438 144.882812 C 285.292969 146.152344 283.070312 153.40625 277.019531 156.511719 C 270.382812 159.925781 262.578125 160.195312 262.578125 160.195312 Z M 78.652344 141.269531 C 78.652344 141.269531 82.351562 130.4375 84.824219 128.554688 C 87.289062 126.667969 89.597656 126.960938 92.023438 124.492188 C 94.445312 122.027344 103.457031 109.289062 105.207031 108.480469 C 105.523438 108.335938 106.992188 107.765625 109.207031 106.945312 C 108.273438 109.789062 105.316406 118.839844 105.769531 119.066406 C 106.230469 119.296875 109.898438 109.390625 111.242188 106.203125 C 116.230469 104.375 123.585938 101.773438 130.5 99.523438 C 128.875 103.136719 125.792969 115.90625 125.792969 115.90625 C 125.792969 115.90625 125.792969 115.90625 125.910156 116.101562 C 125.976562 116.230469 130.054688 103.882812 133.1875 98.660156 C 140.632812 96.300781 147.109375 94.550781 148.851562 94.929688 C 152.109375 95.644531 157.277344 101.460938 161.28125 106.050781 C 160.488281 105.359375 159.777344 104.816406 159.28125 104.601562 C 157.347656 103.746094 150.085938 104.417969 148.472656 105.449219 C 146.859375 106.488281 147.976562 109.980469 147.976562 109.980469 C 147.976562 109.980469 148.472656 110.792969 149.707031 111.054688 C 150.933594 111.328125 155.695312 110.609375 157.667969 110.335938 C 158.859375 110.175781 160.578125 110.792969 161.734375 111.300781 C 145.203125 114.222656 100.453125 123.488281 100.453125 123.488281 C 100.453125 123.488281 97.3125 124.335938 97.738281 124.605469 C 97.980469 124.757812 137.765625 118.421875 173.503906 115.402344 C 184.0625 114.507812 194.429688 114.195312 203.15625 114.136719 C 203.207031 114.324219 203.257812 114.527344 203.328125 114.738281 C 203.910156 116.441406 212.210938 125.101562 216.964844 126.445312 C 221.71875 127.785156 230.46875 126.625 230.289062 126.21875 C 230.105469 125.8125 224.050781 126.046875 220.152344 124.648438 C 216.246094 123.257812 209.519531 116.667969 209.160156 115.449219 C 209.011719 114.949219 209.171875 114.496094 209.410156 114.136719 C 212.902344 114.148438 215.996094 114.203125 218.554688 114.265625 C 220.523438 114.644531 222.59375 115.1875 224.546875 115.945312 C 231.546875 118.6875 237.738281 124.605469 237.554688 125.277344 C 237.375 125.949219 236.210938 126.046875 236.210938 126.046875 C 236.210938 126.046875 238.945312 126.667969 239.171875 124.558594 C 239.355469 122.816406 236.0625 117.40625 234.753906 115.527344 C 236.054688 115.835938 238.375 116.488281 239.261719 117.335938 C 240.515625 118.550781 245.855469 128.914062 248.632812 130.300781 C 251.414062 131.691406 280.527344 132.1875 281.515625 130.613281 C 282.5 129.046875 276.582031 116.128906 276.582031 116.128906 C 276.582031 116.128906 263.261719 112.894531 246.214844 111.824219 C 245.164062 111.753906 244.082031 111.6875 242.972656 111.625 C 242.855469 111.621094 242.75 111.605469 242.625 111.601562 C 236.835938 111.214844 211.632812 110.183594 196.652344 110.597656 C 189.683594 110.792969 175.800781 112.152344 171.136719 107.0625 C 169.832031 105.636719 162.183594 98.761719 156.683594 94.292969 L 179.957031 106.933594 L 223.019531 107.738281 C 223.019531 107.738281 216.109375 101.726562 208.578125 98.585938 C 198.667969 94.457031 162.746094 90.167969 150.601562 90.3125 C 150.03125 90.265625 149.367188 90.296875 148.679688 90.386719 L 148.675781 90.386719 C 146.476562 90.664062 144.097656 91.433594 144.097656 91.433594 C 144.097656 91.433594 104.847656 105.699219 102.746094 107.675781 C 100.636719 109.644531 91.214844 123.371094 89.730469 123.820312 C 88.253906 124.269531 84.84375 124.585938 83.363281 126.917969 C 82.480469 128.300781 79.535156 134.519531 78.460938 138.1875 C 77.730469 140.699219 78.652344 141.269531 78.652344 141.269531 " fill-opacity="1" fill-rule="evenodd"/><path stroke-linecap="round" transform="matrix(0.0509979, 0, 0, -0.0509979, 69.359935, 260.443048)" fill="none" stroke-linejoin="round" d="M 1305.035668 2686.032374 C 1305.035668 2686.032374 1173.519932 2684.270661 1168.234792 2663.972658 C 1163.026248 2643.751252 1156.362376 2626.593696 1224.992602 2635.938436 C 1293.622829 2645.053388 1331.384773 2674.619535 1326.55921 2679.368501 C 1321.733647 2684.270661 1305.035668 2686.032374 1305.035668 2686.032374 Z M 791.687701 2615.180857 C 791.687701 2615.180857 745.193786 2614.414894 744.274632 2604.687172 C 743.355477 2594.959451 746.878904 2584.082785 764.03646 2586.150884 C 781.194017 2588.448771 806.777159 2602.389285 803.71331 2607.674426 C 800.496268 2613.036162 791.687701 2615.180857 791.687701 2615.180857 Z M 341.838013 2404.388018 C 620.878097 2495.384345 729.874539 2100.454158 533.481793 1964.802225 C 592.154509 1961.891569 635.431382 1953.772368 665.916683 1976.138468 C 734.317121 2026.079213 774.300356 2213.739989 688.435976 2339.128026 C 660.861332 2410.898698 557.686203 2498.984368 443.864198 2480.218291 C 326.059189 2460.762847 267.922646 2357.051545 267.922646 2357.051545 C 267.922646 2357.051545 267.922646 2357.051545 278.569523 2355.289831 C 285.616377 2354.140888 294.654732 2380.719781 341.838013 2404.388018 Z M 2195.926477 2447.052121 C 2452.447268 2458.771345 2514.949795 2179.424876 2450.838747 1973.534196 L 2658.567736 1976.138468 C 2758.908804 2342.038683 2567.724601 2735.360349 2149.049581 2676.304652 C 1966.137772 2650.568317 1859.898794 2509.707841 1824.511333 2461.758598 C 1803.370772 2433.03501 1817.694268 2430.58393 1841.05612 2453.17982 C 1876.290388 2487.418337 1957.02282 2564.24436 2089.304518 2603.231844 C 2263.177971 2654.551321 2390.480913 2600.704168 2476.651678 2490.865167 C 2400.821405 2541.342086 2281.561067 2566.925229 2173.177395 2542.031452 C 1960.316458 2493.392843 1815.779363 2294.549017 1834.775229 1982.878937 C 1836.38375 1957.448987 1956.180261 1977.134219 1956.180261 1977.134219 C 1956.180261 1977.134219 1936.112048 2023.934519 1935.499278 2103.211622 C 1933.584372 2297.459674 2030.402013 2433.64778 2195.926477 2447.052121 Z M 3612.650439 2018.189801 C 3612.650439 2018.189801 3945.231291 2036.036724 4042.048932 2071.270992 C 4072.074656 2082.224254 4096.81524 2099.917984 4116.500472 2118.91385 C 3902.950169 2056.564515 3080.230009 2086.896624 3080.230009 2086.896624 C 3080.230009 2086.896624 3020.40835 2075.713574 3017.727482 2107.041434 C 3015.199806 2138.44589 3093.787543 2370.455886 3157.898592 2444.83083 C 3202.171215 2496.380096 3410.972552 2499.980119 3471.330385 2472.482071 C 3506.488057 2456.396861 3545.245752 2396.958183 3592.658821 2391.673043 C 3640.225083 2386.464499 3986.899643 2377.809124 4036.99358 2399.25607 C 4087.087518 2420.62642 4094.134372 2448.124468 4123.164345 2453.79259 C 4152.117722 2459.307518 4251.616231 2469.03524 4259.429047 2461.988387 C 4264.484398 2457.469209 4269.922731 2358.430277 4241.122547 2265.978621 C 4234.152289 2241.084845 4190.569032 2098.845637 4071.921464 2037.95163 C 3941.78446 1971.00652 3788.745183 1965.72138 3788.745183 1965.72138 Z M 182.211459 2336.830139 C 182.211459 2336.830139 254.748094 2549.231498 303.233511 2586.150884 C 351.565735 2623.146865 396.83411 2617.402147 444.400372 2665.810968 C 491.890037 2714.143192 668.597551 2963.923514 702.912665 2979.778935 C 709.11696 2982.612996 737.917144 2993.796046 781.347209 3009.881255 C 763.040709 2954.119196 705.057359 2776.64572 713.942522 2772.203138 C 722.980878 2767.68396 794.904743 2961.932012 821.253848 3024.43454 C 919.06724 3060.281578 1063.29795 3111.29467 1198.873286 3155.414102 C 1167.009252 3084.562584 1106.574823 2834.169492 1106.574823 2834.169492 C 1106.574823 2834.169492 1106.574823 2834.169492 1108.87271 2830.339681 C 1110.174846 2827.812005 1190.141315 3069.932704 1251.571496 3172.34187 C 1397.56392 3218.605996 1524.560477 3252.921109 1558.722398 3245.491274 C 1622.603658 3231.474163 1723.940477 3117.422369 1802.451618 3027.421793 C 1786.902582 3040.979327 1772.962067 3051.626203 1763.234345 3055.838996 C 1725.319209 3072.613572 1582.926808 3059.439019 1551.292563 3039.217613 C 1519.658318 3018.843015 1541.564841 2950.365981 1541.564841 2950.365981 C 1541.564841 2950.365981 1551.292563 2934.433964 1575.496973 2929.302016 C 1599.548191 2923.94028 1692.919002 2938.033987 1731.6001 2943.395723 C 1754.961952 2946.536169 1788.664295 2934.433964 1811.336781 2924.476453 C 1487.181514 2867.18247 609.695047 2685.4962 609.695047 2685.4962 C 609.695047 2685.4962 548.111674 2668.874817 556.460663 2663.589677 C 561.20963 2660.602424 1341.342283 2784.841517 2042.121237 2844.050407 C 2249.16086 2861.590944 2452.447268 2867.718643 2623.563257 2868.867587 C 2624.559008 2865.190968 2625.554759 2861.207963 2626.933491 2857.071767 C 2638.34633 2823.675808 2801.113329 2653.861955 2894.330947 2627.51285 C 2987.548565 2601.240342 3159.124131 2623.989424 3155.600705 2631.955432 C 3152.000682 2639.92144 3033.276517 2635.325666 2956.833475 2662.747119 C 2880.23724 2690.015378 2748.338523 2819.233227 2741.29167 2843.131252 C 2738.381013 2852.93557 2741.521458 2861.820733 2746.193829 2868.867587 C 2814.670863 2868.637798 2875.335081 2867.565451 2925.505615 2866.339911 C 2964.110117 2858.910076 3004.706122 2848.2632 3043.004239 2833.40353 C 3180.264692 2779.632973 3301.669725 2663.589677 3298.069702 2650.415125 C 3294.546275 2637.240572 3271.720597 2635.325666 3271.720597 2635.325666 C 3271.720597 2635.325666 3325.337961 2623.146865 3329.780543 2664.508832 C 3333.380566 2698.670753 3268.80994 2804.756538 3243.150201 2841.599327 C 3268.656747 2835.548225 3314.154911 2822.756653 3331.542256 2806.13527 C 3356.129648 2782.313841 3460.836701 2579.10403 3515.296624 2551.912367 C 3569.833143 2524.644107 4140.704883 2514.916385 4160.08373 2545.784668 C 4179.385981 2576.499758 4063.342685 2829.803507 4063.342685 2829.803507 C 4063.342685 2829.803507 3802.149524 2893.22519 3467.883555 2914.212558 C 3447.279167 2915.59129 3426.06201 2916.893426 3404.30868 2918.118966 C 3402.010793 2918.195562 3399.942694 2918.501947 3397.491615 2918.578543 C 3283.975994 2926.161571 2789.777086 2946.382977 2496.030525 2938.263776 C 2359.382842 2934.433964 2087.159823 2907.778474 1995.703918 3007.583368 C 1970.120776 3035.540994 1820.145348 3170.350368 1712.297849 3257.97646 L 2168.658217 3010.111044 L 3013.055111 2994.33222 C 3013.055111 2994.33222 2877.556372 3112.213825 2729.878831 3173.797198 C 2535.554183 3254.759419 1831.175206 3338.862085 1593.037511 3336.028024 C 1581.854461 3336.947179 1568.833101 3336.334409 1555.42876 3334.572695 L 1555.275567 3334.572695 C 1512.151887 3329.134363 1465.50478 3314.044904 1465.50478 3314.044904 C 1465.50478 3314.044904 695.865811 3034.315454 654.657037 2995.557759 C 613.29507 2956.953257 428.544951 2687.794087 399.438382 2678.98552 C 370.485005 2670.176953 303.616492 2663.972658 274.586519 2618.244706 C 257.27577 2591.129639 199.522208 2469.188433 178.458244 2397.264568 C 164.134748 2348.013189 182.211459 2336.830139 182.211459 2336.830139 Z M 182.211459 2336.830139 " stroke="#000000" stroke-width="2.268" stroke-opacity="1" stroke-miterlimit="10"/><g clip-path="url(#18da9661be)"><path fill="#800020" d="M 81.308594 118.921875 C 76.128906 97.480469 72.214844 80.28125 72.359375 77.9375 C 73.46875 60.148438 95.585938 48.464844 125.613281 42.539062 C 142.421875 39.222656 161.996094 37.558594 181.597656 37.558594 C 201.199219 37.558594 220.765625 39.214844 237.574219 42.539062 C 267.5625 48.457031 289.640625 60.132812 290.753906 77.9375 C 290.882812 80.019531 287.808594 93.800781 283.496094 111.855469 C 279.816406 110.730469 275.324219 109.515625 270.632812 108.324219 C 274.574219 92.101562 277.324219 80.117188 277.246094 78.730469 C 276.59375 68.328125 259.003906 60.578125 234.976562 55.835938 C 218.882812 52.65625 200.226562 51.066406 181.597656 51.066406 C 162.972656 51.066406 144.308594 52.660156 128.207031 55.835938 C 104.140625 60.589844 86.519531 68.339844 85.867188 78.730469 C 85.785156 80.113281 88.5 91.921875 92.390625 107.964844 L 90.910156 111.089844 C 89.839844 113.375 84.992188 116.636719 81.816406 118.53125 C 81.648438 118.632812 81.476562 118.761719 81.308594 118.921875 Z M 178.023438 259.453125 L 108.351562 218.757812 C 106.535156 217.695312 105.398438 215.925781 105.078125 214 C 104.828125 213.007812 104.242188 210.722656 103.402344 207.429688 L 117.296875 207.265625 L 117.601562 208.457031 L 181.554688 245.8125 L 245.507812 208.457031 L 246.207031 205.726562 L 260.191406 205.554688 C 258.757812 211.15625 257.898438 214.515625 257.886719 214.566406 C 257.417969 216.394531 256.25 217.851562 254.746094 218.734375 L 254.757812 218.757812 L 184.96875 259.515625 C 182.746094 260.816406 180.085938 260.703125 178.023438 259.453125 " fill-opacity="1" fill-rule="nonzero"/></g><path fill="#000000" d="M 277.078125 118.503906 C 277.210938 118.550781 279.835938 119.113281 281.335938 121.019531 C 282.839844 122.921875 283.617188 125.367188 283.890625 125.277344 C 284.160156 125.1875 283.171875 119.875 281.042969 118.078125 C 278.914062 116.285156 275.703125 115.925781 275.703125 115.925781 C 275.703125 115.925781 275.617188 117.8125 275.703125 117.988281 C 275.792969 118.171875 277.078125 118.503906 277.078125 118.503906 " fill-opacity="1" fill-rule="evenodd"/><path fill="#ffffff" d="M 260.222656 128.261719 C 260.222656 128.261719 254.832031 117.417969 255.164062 116.460938 C 255.496094 115.5 256.421875 116.242188 256.738281 116.605469 C 257.0625 116.972656 260.933594 128.34375 260.679688 128.453125 C 260.414062 128.558594 260.222656 128.261719 260.222656 128.261719 Z M 268.035156 129.035156 C 268.035156 129.035156 262.644531 118.191406 262.976562 117.226562 C 263.308594 116.273438 264.238281 117.011719 264.554688 117.378906 C 264.875 117.734375 268.746094 129.109375 268.492188 129.21875 C 268.234375 129.324219 268.035156 129.035156 268.035156 129.035156 Z M 275.589844 128.703125 C 275.589844 128.703125 271.03125 118.652344 271.441406 117.765625 C 271.839844 116.875 272.714844 117.5625 273.007812 117.898438 C 273.296875 118.238281 276.296875 128.777344 276.023438 128.878906 C 275.761719 128.980469 275.589844 128.703125 275.589844 128.703125 Z M 252.972656 128.046875 C 252.972656 128.046875 246.863281 117.539062 247.136719 116.5625 C 247.402344 115.59375 248.375 116.277344 248.722656 116.625 C 249.066406 116.972656 253.6875 128.085938 253.433594 128.207031 C 253.183594 128.328125 252.972656 128.046875 252.972656 128.046875 " fill-opacity="1" fill-rule="evenodd"/><g clip-path="url(#6486fb88c0)"><path fill="#800020" d="M 69.359375 205.378906 L 305.625 205.378906 C 305.625 205.378906 291.941406 208.070312 266.679688 209.328125 C 245.09375 210.398438 201.371094 210.554688 189.128906 210.582031 L 189.121094 210.582031 C 189.121094 210.582031 188.542969 210.582031 187.492188 210.582031 C 186.441406 210.582031 185.863281 210.582031 185.863281 210.582031 L 185.859375 210.582031 C 173.609375 210.554688 129.890625 210.398438 108.304688 209.328125 C 83.046875 208.070312 69.359375 205.378906 69.359375 205.378906 " fill-opacity="1" fill-rule="evenodd"/></g><g clip-path="url(#72de82c037)"><path fill="#800020" d="M 69.359375 161.945312 L 305.625 161.945312 C 305.625 161.945312 291.941406 159.25 266.679688 158 C 245.09375 156.925781 201.371094 156.769531 189.128906 156.742188 L 189.121094 156.742188 C 189.121094 156.742188 188.542969 156.742188 187.492188 156.742188 C 186.441406 156.742188 185.863281 156.742188 185.863281 156.742188 L 185.859375 156.742188 C 173.609375 156.769531 129.890625 156.925781 108.304688 158 C 83.046875 159.25 69.359375 161.945312 69.359375 161.945312 " fill-opacity="1" fill-rule="evenodd"/></g><g fill="#800020" fill-opacity="1"><g transform="translate(60.867188, 186.850008)"><g><path d="M 4.921875 -12.21875 L 0.09375 -12.21875 L 0.09375 -15.75 L 14.203125 -15.75 L 14.203125 -12.21875 L 9.375 -12.21875 L 9.375 0 L 4.921875 0 Z M 4.921875 -12.21875 "/></g></g></g><g fill="#800020" fill-opacity="1"><g transform="translate(75.154792, 186.850008)"><g><path d="M 1.578125 -15.75 L 6.03125 -15.75 L 6.03125 0 L 1.578125 0 Z M 1.578125 -15.75 "/></g></g></g><g fill="#800020" fill-opacity="1"><g transform="translate(82.782336, 186.850008)"><g><path d="M 4.921875 -12.21875 L 0.09375 -12.21875 L 0.09375 -15.75 L 14.203125 -15.75 L 14.203125 -12.21875 L 9.375 -12.21875 L 9.375 0 L 4.921875 0 Z M 4.921875 -12.21875 "/></g></g></g><g fill="#800020" fill-opacity="1"><g transform="translate(97.069941, 186.850008)"><g><path d="M 1.578125 -15.75 L 6.03125 -15.75 L 6.03125 0 L 1.578125 0 Z M 1.578125 -15.75 "/></g></g></g><g fill="#800020" fill-opacity="1"><g transform="translate(104.697484, 186.850008)"><g><path d="M 12.125 -3.0625 L 5.46875 -3.0625 L 4.234375 0 L -0.3125 0 L 6.640625 -15.75 L 11.03125 -15.75 L 18 0 L 13.359375 0 Z M 10.828125 -6.34375 L 8.796875 -11.390625 L 6.765625 -6.34375 Z M 10.828125 -6.34375 "/></g></g></g><g fill="#800020" fill-opacity="1"><g transform="translate(122.382611, 186.850008)"><g><path d="M 13.6875 -8.21875 C 14.582031 -7.894531 15.285156 -7.398438 15.796875 -6.734375 C 16.304688 -6.066406 16.5625 -5.257812 16.5625 -4.3125 C 16.5625 -2.9375 16.003906 -1.875 14.890625 -1.125 C 13.785156 -0.375 12.179688 0 10.078125 0 L 1.578125 0 L 1.578125 -15.75 L 9.625 -15.75 C 11.632812 -15.75 13.164062 -15.375 14.21875 -14.625 C 15.269531 -13.882812 15.796875 -12.882812 15.796875 -11.625 C 15.796875 -10.875 15.609375 -10.203125 15.234375 -9.609375 C 14.867188 -9.023438 14.351562 -8.5625 13.6875 -8.21875 Z M 5.984375 -12.53125 L 5.984375 -9.5 L 9.046875 -9.5 C 10.546875 -9.5 11.296875 -10.007812 11.296875 -11.03125 C 11.296875 -12.03125 10.546875 -12.53125 9.046875 -12.53125 Z M 9.71875 -3.21875 C 11.28125 -3.21875 12.0625 -3.75 12.0625 -4.8125 C 12.0625 -5.875 11.28125 -6.40625 9.71875 -6.40625 L 5.984375 -6.40625 L 5.984375 -3.21875 Z M 9.71875 -3.21875 "/></g></g></g><g fill="#800020" fill-opacity="1"><g transform="translate(139.685218, 186.850008)"><g><path d="M 1.578125 -15.75 L 6.03125 -15.75 L 6.03125 0 L 1.578125 0 Z M 1.578125 -15.75 "/></g></g></g><g fill="#800020" fill-opacity="1"><g transform="translate(147.312762, 186.850008)"><g><path d="M 7.65625 -5.71875 L 5.984375 -3.9375 L 5.984375 0 L 1.578125 0 L 1.578125 -15.75 L 5.984375 -15.75 L 5.984375 -9.203125 L 12.078125 -15.75 L 16.984375 -15.75 L 10.546875 -8.78125 L 17.328125 0 L 12.15625 0 Z M 7.65625 -5.71875 "/></g></g></g><g fill="#800020" fill-opacity="1"><g transform="translate(164.232879, 186.850008)"><g><path d="M 7.109375 0.3125 C 5.835938 0.3125 4.597656 0.15625 3.390625 -0.15625 C 2.191406 -0.46875 1.21875 -0.890625 0.46875 -1.421875 L 1.9375 -4.703125 C 2.644531 -4.234375 3.460938 -3.859375 4.390625 -3.578125 C 5.316406 -3.296875 6.226562 -3.15625 7.125 -3.15625 C 8.84375 -3.15625 9.703125 -3.582031 9.703125 -4.4375 C 9.703125 -4.882812 9.457031 -5.21875 8.96875 -5.4375 C 8.476562 -5.65625 7.691406 -5.882812 6.609375 -6.125 C 5.429688 -6.375 4.441406 -6.644531 3.640625 -6.9375 C 2.847656 -7.226562 2.164062 -7.695312 1.59375 -8.34375 C 1.03125 -8.988281 0.75 -9.859375 0.75 -10.953125 C 0.75 -11.910156 1.007812 -12.773438 1.53125 -13.546875 C 2.050781 -14.328125 2.832031 -14.941406 3.875 -15.390625 C 4.914062 -15.835938 6.195312 -16.0625 7.71875 -16.0625 C 8.75 -16.0625 9.765625 -15.945312 10.765625 -15.71875 C 11.773438 -15.488281 12.664062 -15.144531 13.4375 -14.6875 L 12.0625 -11.390625 C 10.5625 -12.191406 9.101562 -12.59375 7.6875 -12.59375 C 6.8125 -12.59375 6.171875 -12.460938 5.765625 -12.203125 C 5.359375 -11.941406 5.15625 -11.601562 5.15625 -11.1875 C 5.15625 -10.757812 5.394531 -10.441406 5.875 -10.234375 C 6.351562 -10.023438 7.125 -9.804688 8.1875 -9.578125 C 9.382812 -9.328125 10.378906 -9.054688 11.171875 -8.765625 C 11.960938 -8.472656 12.644531 -8.003906 13.21875 -7.359375 C 13.789062 -6.722656 14.078125 -5.859375 14.078125 -4.765625 C 14.078125 -3.828125 13.816406 -2.972656 13.296875 -2.203125 C 12.773438 -1.441406 11.988281 -0.832031 10.9375 -0.375 C 9.882812 0.0820312 8.609375 0.3125 7.109375 0.3125 Z M 7.109375 0.3125 "/></g></g></g><g fill="#800020" fill-opacity="1"><g transform="translate(178.790478, 186.850008)"><g/></g></g><g fill="#800020" fill-opacity="1"><g transform="translate(185.338015, 186.850008)"><g><path d="M 17.546875 -15.75 L 10.796875 0 L 6.40625 0 L -0.3125 -15.75 L 4.5 -15.75 L 8.78125 -5.484375 L 13.140625 -15.75 Z M 17.546875 -15.75 "/></g></g></g><g fill="#800020" fill-opacity="1"><g transform="translate(202.573131, 186.850008)"><g><path d="M 14.21875 -3.4375 L 14.21875 0 L 1.578125 0 L 1.578125 -15.75 L 13.921875 -15.75 L 13.921875 -12.3125 L 5.984375 -12.3125 L 5.984375 -9.65625 L 12.984375 -9.65625 L 12.984375 -6.328125 L 5.984375 -6.328125 L 5.984375 -3.4375 Z M 14.21875 -3.4375 "/></g></g></g><g fill="#800020" fill-opacity="1"><g transform="translate(217.693235, 186.850008)"><g><path d="M 16.5625 -15.75 L 16.5625 0 L 12.890625 0 L 5.9375 -8.390625 L 5.9375 0 L 1.578125 0 L 1.578125 -15.75 L 5.25 -15.75 L 12.1875 -7.359375 L 12.1875 -15.75 Z M 16.5625 -15.75 "/></g></g></g><g fill="#800020" fill-opacity="1"><g transform="translate(235.828372, 186.850008)"><g><path d="M 4.921875 -12.21875 L 0.09375 -12.21875 L 0.09375 -15.75 L 14.203125 -15.75 L 14.203125 -12.21875 L 9.375 -12.21875 L 9.375 0 L 4.921875 0 Z M 4.921875 -12.21875 "/></g></g></g><g fill="#800020" fill-opacity="1"><g transform="translate(250.115976, 186.850008)"><g><path d="M 8.84375 0.3125 C 6.5 0.3125 4.675781 -0.320312 3.375 -1.59375 C 2.082031 -2.875 1.4375 -4.679688 1.4375 -7.015625 L 1.4375 -15.75 L 5.890625 -15.75 L 5.890625 -7.15625 C 5.890625 -4.632812 6.890625 -3.375 8.890625 -3.375 C 10.867188 -3.375 11.859375 -4.632812 11.859375 -7.15625 L 11.859375 -15.75 L 16.25 -15.75 L 16.25 -7.015625 C 16.25 -4.679688 15.597656 -2.875 14.296875 -1.59375 C 13.003906 -0.320312 11.1875 0.3125 8.84375 0.3125 Z M 8.84375 0.3125 "/></g></g></g><g fill="#800020" fill-opacity="1"><g transform="translate(267.801102, 186.850008)"><g><path d="M 8.453125 -4.1875 L 6.03125 -4.1875 L 6.03125 0 L 1.578125 0 L 1.578125 -15.75 L 8.78125 -15.75 C 10.195312 -15.75 11.429688 -15.507812 12.484375 -15.03125 C 13.535156 -14.5625 14.34375 -13.890625 14.90625 -13.015625 C 15.476562 -12.140625 15.765625 -11.109375 15.765625 -9.921875 C 15.765625 -8.785156 15.5 -7.789062 14.96875 -6.9375 C 14.4375 -6.09375 13.675781 -5.429688 12.6875 -4.953125 L 16.09375 0 L 11.3125 0 Z M 11.265625 -9.921875 C 11.265625 -10.660156 11.03125 -11.226562 10.5625 -11.625 C 10.101562 -12.03125 9.414062 -12.234375 8.5 -12.234375 L 6.03125 -12.234375 L 6.03125 -7.625 L 8.5 -7.625 C 9.414062 -7.625 10.101562 -7.820312 10.5625 -8.21875 C 11.03125 -8.613281 11.265625 -9.179688 11.265625 -9.921875 Z M 11.265625 -9.921875 "/></g></g></g><g fill="#800020" fill-opacity="1"><g transform="translate(284.451225, 186.850008)"><g><path d="M 14.21875 -3.4375 L 14.21875 0 L 1.578125 0 L 1.578125 -15.75 L 13.921875 -15.75 L 13.921875 -12.3125 L 5.984375 -12.3125 L 5.984375 -9.65625 L 12.984375 -9.65625 L 12.984375 -6.328125 L 5.984375 -6.328125 L 5.984375 -3.4375 Z M 14.21875 -3.4375 "/></g></g></g><g fill="#800020" fill-opacity="1"><g transform="translate(299.57133, 186.850008)"><g><path d="M 7.109375 0.3125 C 5.835938 0.3125 4.597656 0.15625 3.390625 -0.15625 C 2.191406 -0.46875 1.21875 -0.890625 0.46875 -1.421875 L 1.9375 -4.703125 C 2.644531 -4.234375 3.460938 -3.859375 4.390625 -3.578125 C 5.316406 -3.296875 6.226562 -3.15625 7.125 -3.15625 C 8.84375 -3.15625 9.703125 -3.582031 9.703125 -4.4375 C 9.703125 -4.882812 9.457031 -5.21875 8.96875 -5.4375 C 8.476562 -5.65625 7.691406 -5.882812 6.609375 -6.125 C 5.429688 -6.375 4.441406 -6.644531 3.640625 -6.9375 C 2.847656 -7.226562 2.164062 -7.695312 1.59375 -8.34375 C 1.03125 -8.988281 0.75 -9.859375 0.75 -10.953125 C 0.75 -11.910156 1.007812 -12.773438 1.53125 -13.546875 C 2.050781 -14.328125 2.832031 -14.941406 3.875 -15.390625 C 4.914062 -15.835938 6.195312 -16.0625 7.71875 -16.0625 C 8.75 -16.0625 9.765625 -15.945312 10.765625 -15.71875 C 11.773438 -15.488281 12.664062 -15.144531 13.4375 -14.6875 L 12.0625 -11.390625 C 10.5625 -12.191406 9.101562 -12.59375 7.6875 -12.59375 C 6.8125 -12.59375 6.171875 -12.460938 5.765625 -12.203125 C 5.359375 -11.941406 5.15625 -11.601562 5.15625 -11.1875 C 5.15625 -10.757812 5.394531 -10.441406 5.875 -10.234375 C 6.351562 -10.023438 7.125 -9.804688 8.1875 -9.578125 C 9.382812 -9.328125 10.378906 -9.054688 11.171875 -8.765625 C 11.960938 -8.472656 12.644531 -8.003906 13.21875 -7.359375 C 13.789062 -6.722656 14.078125 -5.859375 14.078125 -4.765625 C 14.078125 -3.828125 13.816406 -2.972656 13.296875 -2.203125 C 12.773438 -1.441406 11.988281 -0.832031 10.9375 -0.375 C 9.882812 0.0820312 8.609375 0.3125 7.109375 0.3125 Z M 7.109375 0.3125 "/></g></g></g><g fill="#000000" fill-opacity="1"><g transform="translate(97.374843, 284.502513)"><g><path d="M 10.734375 -1.515625 L 10.734375 0 L 1.84375 0 L 1.84375 -12.25 L 10.484375 -12.25 L 10.484375 -10.734375 L 3.59375 -10.734375 L 3.59375 -6.96875 L 9.734375 -6.96875 L 9.734375 -5.484375 L 3.59375 -5.484375 L 3.59375 -1.515625 Z M 10.734375 -1.515625 "/></g></g></g><g fill="#000000" fill-opacity="1"><g transform="translate(109.099941, 284.502513)"><g><path d="M 7.5 0 L 4.828125 -3.546875 L 2.125 0 L 0.25 0 L 3.90625 -4.75 L 0.421875 -9.28125 L 2.296875 -9.28125 L 4.84375 -5.9375 L 7.390625 -9.28125 L 9.21875 -9.28125 L 5.71875 -4.75 L 9.421875 0 Z M 7.5 0 "/></g></g></g><g fill="#000000" fill-opacity="1"><g transform="translate(118.760036, 284.502513)"><g><path d="M 9.96875 -4.578125 C 9.96875 -4.453125 9.957031 -4.285156 9.9375 -4.078125 L 2.421875 -4.078125 C 2.523438 -3.265625 2.878906 -2.609375 3.484375 -2.109375 C 4.097656 -1.609375 4.863281 -1.359375 5.78125 -1.359375 C 6.882812 -1.359375 7.773438 -1.734375 8.453125 -2.484375 L 9.375 -1.40625 C 8.957031 -0.914062 8.4375 -0.539062 7.8125 -0.28125 C 7.1875 -0.0195312 6.488281 0.109375 5.71875 0.109375 C 4.738281 0.109375 3.867188 -0.09375 3.109375 -0.5 C 2.359375 -0.90625 1.773438 -1.46875 1.359375 -2.1875 C 0.941406 -2.90625 0.734375 -3.722656 0.734375 -4.640625 C 0.734375 -5.535156 0.929688 -6.34375 1.328125 -7.0625 C 1.734375 -7.789062 2.289062 -8.351562 3 -8.75 C 3.707031 -9.15625 4.503906 -9.359375 5.390625 -9.359375 C 6.273438 -9.359375 7.0625 -9.15625 7.75 -8.75 C 8.445312 -8.351562 8.988281 -7.789062 9.375 -7.0625 C 9.769531 -6.34375 9.96875 -5.515625 9.96875 -4.578125 Z M 5.390625 -7.9375 C 4.585938 -7.9375 3.914062 -7.691406 3.375 -7.203125 C 2.832031 -6.710938 2.515625 -6.070312 2.421875 -5.28125 L 8.359375 -5.28125 C 8.265625 -6.0625 7.945312 -6.695312 7.40625 -7.1875 C 6.863281 -7.6875 6.191406 -7.9375 5.390625 -7.9375 Z M 5.390625 -7.9375 "/></g></g></g><g fill="#000000" fill-opacity="1"><g transform="translate(129.470134, 284.502513)"><g><path d="M 5.640625 0.109375 C 4.691406 0.109375 3.847656 -0.09375 3.109375 -0.5 C 2.367188 -0.914062 1.785156 -1.476562 1.359375 -2.1875 C 0.941406 -2.90625 0.734375 -3.722656 0.734375 -4.640625 C 0.734375 -5.546875 0.941406 -6.359375 1.359375 -7.078125 C 1.785156 -7.796875 2.367188 -8.351562 3.109375 -8.75 C 3.847656 -9.15625 4.691406 -9.359375 5.640625 -9.359375 C 6.472656 -9.359375 7.21875 -9.1875 7.875 -8.84375 C 8.539062 -8.507812 9.054688 -8.023438 9.421875 -7.390625 L 8.140625 -6.5625 C 7.847656 -7.007812 7.484375 -7.34375 7.046875 -7.5625 C 6.617188 -7.78125 6.144531 -7.890625 5.625 -7.890625 C 5.007812 -7.890625 4.457031 -7.753906 3.96875 -7.484375 C 3.488281 -7.222656 3.113281 -6.84375 2.84375 -6.34375 C 2.570312 -5.84375 2.4375 -5.273438 2.4375 -4.640625 C 2.4375 -3.984375 2.570312 -3.40625 2.84375 -2.90625 C 3.113281 -2.414062 3.488281 -2.035156 3.96875 -1.765625 C 4.457031 -1.492188 5.007812 -1.359375 5.625 -1.359375 C 6.144531 -1.359375 6.617188 -1.46875 7.046875 -1.6875 C 7.484375 -1.914062 7.847656 -2.25 8.140625 -2.6875 L 9.421875 -1.890625 C 9.054688 -1.242188 8.539062 -0.75 7.875 -0.40625 C 7.21875 -0.0625 6.472656 0.109375 5.640625 0.109375 Z M 5.640625 0.109375 "/></g></g></g><g fill="#000000" fill-opacity="1"><g transform="translate(139.462725, 284.502513)"><g><path d="M 10.234375 -9.28125 L 10.234375 0 L 8.640625 0 L 8.640625 -1.40625 C 8.304688 -0.925781 7.859375 -0.550781 7.296875 -0.28125 C 6.742188 -0.0195312 6.144531 0.109375 5.5 0.109375 C 4.257812 0.109375 3.28125 -0.226562 2.5625 -0.90625 C 1.851562 -1.59375 1.5 -2.601562 1.5 -3.9375 L 1.5 -9.28125 L 3.1875 -9.28125 L 3.1875 -4.125 C 3.1875 -3.226562 3.398438 -2.550781 3.828125 -2.09375 C 4.265625 -1.632812 4.882812 -1.40625 5.6875 -1.40625 C 6.570312 -1.40625 7.269531 -1.671875 7.78125 -2.203125 C 8.300781 -2.742188 8.5625 -3.503906 8.5625 -4.484375 L 8.5625 -9.28125 Z M 10.234375 -9.28125 "/></g></g></g><g fill="#000000" fill-opacity="1"><g transform="translate(151.310323, 284.502513)"><g><path d="M 6.8125 -0.546875 C 6.5625 -0.335938 6.253906 -0.175781 5.890625 -0.0625 C 5.535156 0.0507812 5.164062 0.109375 4.78125 0.109375 C 3.84375 0.109375 3.117188 -0.140625 2.609375 -0.640625 C 2.097656 -1.148438 1.84375 -1.867188 1.84375 -2.796875 L 1.84375 -7.890625 L 0.265625 -7.890625 L 0.265625 -9.28125 L 1.84375 -9.28125 L 1.84375 -11.3125 L 3.515625 -11.3125 L 3.515625 -9.28125 L 6.171875 -9.28125 L 6.171875 -7.890625 L 3.515625 -7.890625 L 3.515625 -2.875 C 3.515625 -2.375 3.640625 -1.988281 3.890625 -1.71875 C 4.140625 -1.445312 4.5 -1.3125 4.96875 -1.3125 C 5.476562 -1.3125 5.914062 -1.457031 6.28125 -1.75 Z M 6.8125 -0.546875 "/></g></g></g><g fill="#000000" fill-opacity="1"><g transform="translate(158.555383, 284.502513)"><g><path d="M 1.59375 -9.28125 L 3.265625 -9.28125 L 3.265625 0 L 1.59375 0 Z M 2.4375 -11.0625 C 2.113281 -11.0625 1.84375 -11.164062 1.625 -11.375 C 1.40625 -11.582031 1.296875 -11.835938 1.296875 -12.140625 C 1.296875 -12.441406 1.40625 -12.703125 1.625 -12.921875 C 1.84375 -13.140625 2.113281 -13.25 2.4375 -13.25 C 2.757812 -13.25 3.03125 -13.144531 3.25 -12.9375 C 3.46875 -12.738281 3.578125 -12.488281 3.578125 -12.1875 C 3.578125 -11.863281 3.46875 -11.59375 3.25 -11.375 C 3.03125 -11.164062 2.757812 -11.0625 2.4375 -11.0625 Z M 2.4375 -11.0625 "/></g></g></g><g fill="#000000" fill-opacity="1"><g transform="translate(163.437924, 284.502513)"><g><path d="M 9.796875 -9.28125 L 5.734375 0 L 4.03125 0 L -0.03125 -9.28125 L 1.71875 -9.28125 L 4.90625 -1.84375 L 8.15625 -9.28125 Z M 9.796875 -9.28125 "/></g></g></g><g fill="#000000" fill-opacity="1"><g transform="translate(173.220518, 284.502513)"><g><path d="M 9.96875 -4.578125 C 9.96875 -4.453125 9.957031 -4.285156 9.9375 -4.078125 L 2.421875 -4.078125 C 2.523438 -3.265625 2.878906 -2.609375 3.484375 -2.109375 C 4.097656 -1.609375 4.863281 -1.359375 5.78125 -1.359375 C 6.882812 -1.359375 7.773438 -1.734375 8.453125 -2.484375 L 9.375 -1.40625 C 8.957031 -0.914062 8.4375 -0.539062 7.8125 -0.28125 C 7.1875 -0.0195312 6.488281 0.109375 5.71875 0.109375 C 4.738281 0.109375 3.867188 -0.09375 3.109375 -0.5 C 2.359375 -0.90625 1.773438 -1.46875 1.359375 -2.1875 C 0.941406 -2.90625 0.734375 -3.722656 0.734375 -4.640625 C 0.734375 -5.535156 0.929688 -6.34375 1.328125 -7.0625 C 1.734375 -7.789062 2.289062 -8.351562 3 -8.75 C 3.707031 -9.15625 4.503906 -9.359375 5.390625 -9.359375 C 6.273438 -9.359375 7.0625 -9.15625 7.75 -8.75 C 8.445312 -8.351562 8.988281 -7.789062 9.375 -7.0625 C 9.769531 -6.34375 9.96875 -5.515625 9.96875 -4.578125 Z M 5.390625 -7.9375 C 4.585938 -7.9375 3.914062 -7.691406 3.375 -7.203125 C 2.832031 -6.710938 2.515625 -6.070312 2.421875 -5.28125 L 8.359375 -5.28125 C 8.265625 -6.0625 7.945312 -6.695312 7.40625 -7.1875 C 6.863281 -7.6875 6.191406 -7.9375 5.390625 -7.9375 Z M 5.390625 -7.9375 "/></g></g></g><g fill="#000000" fill-opacity="1"><g transform="translate(183.930616, 284.502513)"><g/></g></g><g fill="#000000" fill-opacity="1"><g transform="translate(188.638164, 284.502513)"><g><path d="M 7.3125 0.140625 C 6.09375 0.140625 4.988281 -0.128906 4 -0.671875 C 3.007812 -1.210938 2.234375 -1.957031 1.671875 -2.90625 C 1.117188 -3.863281 0.84375 -4.9375 0.84375 -6.125 C 0.84375 -7.3125 1.117188 -8.378906 1.671875 -9.328125 C 2.234375 -10.285156 3.007812 -11.035156 4 -11.578125 C 5 -12.117188 6.109375 -12.390625 7.328125 -12.390625 C 8.285156 -12.390625 9.160156 -12.226562 9.953125 -11.90625 C 10.742188 -11.582031 11.421875 -11.109375 11.984375 -10.484375 L 10.84375 -9.375 C 9.925781 -10.34375 8.78125 -10.828125 7.40625 -10.828125 C 6.488281 -10.828125 5.660156 -10.625 4.921875 -10.21875 C 4.191406 -9.8125 3.617188 -9.25 3.203125 -8.53125 C 2.796875 -7.8125 2.59375 -7.007812 2.59375 -6.125 C 2.59375 -5.238281 2.796875 -4.4375 3.203125 -3.71875 C 3.617188 -3 4.191406 -2.4375 4.921875 -2.03125 C 5.660156 -1.625 6.488281 -1.421875 7.40625 -1.421875 C 8.769531 -1.421875 9.914062 -1.910156 10.84375 -2.890625 L 11.984375 -1.78125 C 11.421875 -1.15625 10.738281 -0.675781 9.9375 -0.34375 C 9.144531 -0.0195312 8.269531 0.140625 7.3125 0.140625 Z M 7.3125 0.140625 "/></g></g></g><g fill="#000000" fill-opacity="1"><g transform="translate(201.290766, 284.502513)"><g><path d="M 6.546875 -9.359375 C 7.722656 -9.359375 8.65625 -9.015625 9.34375 -8.328125 C 10.039062 -7.648438 10.390625 -6.65625 10.390625 -5.34375 L 10.390625 0 L 8.71875 0 L 8.71875 -5.140625 C 8.71875 -6.046875 8.5 -6.722656 8.0625 -7.171875 C 7.632812 -7.628906 7.019531 -7.859375 6.21875 -7.859375 C 5.300781 -7.859375 4.578125 -7.59375 4.046875 -7.0625 C 3.523438 -6.53125 3.265625 -5.769531 3.265625 -4.78125 L 3.265625 0 L 1.59375 0 L 1.59375 -12.984375 L 3.265625 -12.984375 L 3.265625 -7.96875 C 3.617188 -8.40625 4.078125 -8.742188 4.640625 -8.984375 C 5.210938 -9.234375 5.847656 -9.359375 6.546875 -9.359375 Z M 6.546875 -9.359375 "/></g></g></g><g fill="#000000" fill-opacity="1"><g transform="translate(213.20837, 284.502513)"><g><path d="M 4.96875 -9.359375 C 6.25 -9.359375 7.226562 -9.039062 7.90625 -8.40625 C 8.59375 -7.78125 8.9375 -6.84375 8.9375 -5.59375 L 8.9375 0 L 7.34375 0 L 7.34375 -1.21875 C 7.070312 -0.789062 6.675781 -0.460938 6.15625 -0.234375 C 5.632812 -0.00390625 5.019531 0.109375 4.3125 0.109375 C 3.269531 0.109375 2.4375 -0.140625 1.8125 -0.640625 C 1.1875 -1.148438 0.875 -1.8125 0.875 -2.625 C 0.875 -3.4375 1.171875 -4.09375 1.765625 -4.59375 C 2.359375 -5.09375 3.304688 -5.34375 4.609375 -5.34375 L 7.265625 -5.34375 L 7.265625 -5.671875 C 7.265625 -6.390625 7.050781 -6.941406 6.625 -7.328125 C 6.207031 -7.710938 5.59375 -7.90625 4.78125 -7.90625 C 4.226562 -7.90625 3.6875 -7.816406 3.15625 -7.640625 C 2.632812 -7.460938 2.195312 -7.21875 1.84375 -6.90625 L 1.140625 -8.171875 C 1.617188 -8.554688 2.1875 -8.847656 2.84375 -9.046875 C 3.507812 -9.253906 4.21875 -9.359375 4.96875 -9.359375 Z M 4.578125 -1.1875 C 5.222656 -1.1875 5.78125 -1.328125 6.25 -1.609375 C 6.71875 -1.898438 7.054688 -2.304688 7.265625 -2.828125 L 7.265625 -4.125 L 4.671875 -4.125 C 3.242188 -4.125 2.53125 -3.644531 2.53125 -2.6875 C 2.53125 -2.226562 2.710938 -1.863281 3.078125 -1.59375 C 3.441406 -1.320312 3.941406 -1.1875 4.578125 -1.1875 Z M 4.578125 -1.1875 "/></g></g></g><g fill="#000000" fill-opacity="1"><g transform="translate(223.673469, 284.502513)"><g><path d="M 10.234375 -9.28125 L 10.234375 0 L 8.640625 0 L 8.640625 -1.40625 C 8.304688 -0.925781 7.859375 -0.550781 7.296875 -0.28125 C 6.742188 -0.0195312 6.144531 0.109375 5.5 0.109375 C 4.257812 0.109375 3.28125 -0.226562 2.5625 -0.90625 C 1.851562 -1.59375 1.5 -2.601562 1.5 -3.9375 L 1.5 -9.28125 L 3.1875 -9.28125 L 3.1875 -4.125 C 3.1875 -3.226562 3.398438 -2.550781 3.828125 -2.09375 C 4.265625 -1.632812 4.882812 -1.40625 5.6875 -1.40625 C 6.570312 -1.40625 7.269531 -1.671875 7.78125 -2.203125 C 8.300781 -2.742188 8.5625 -3.503906 8.5625 -4.484375 L 8.5625 -9.28125 Z M 10.234375 -9.28125 "/></g></g></g><g fill="#000000" fill-opacity="1"><g transform="translate(235.521067, 284.502513)"><g><path d="M 4.984375 -11.703125 C 3.984375 -11.703125 3.484375 -11.160156 3.484375 -10.078125 L 3.484375 -9.28125 L 6.171875 -9.28125 L 6.171875 -7.890625 L 3.515625 -7.890625 L 3.515625 0 L 1.84375 0 L 1.84375 -7.890625 L 0.265625 -7.890625 L 0.265625 -9.28125 L 1.84375 -9.28125 L 1.84375 -10.09375 C 1.84375 -11.019531 2.109375 -11.75 2.640625 -12.28125 C 3.179688 -12.820312 3.9375 -13.09375 4.90625 -13.09375 C 5.269531 -13.09375 5.613281 -13.046875 5.9375 -12.953125 C 6.269531 -12.859375 6.554688 -12.722656 6.796875 -12.546875 L 6.28125 -11.265625 C 5.894531 -11.554688 5.460938 -11.703125 4.984375 -11.703125 Z M 4.984375 -11.703125 "/></g></g></g><g fill="#000000" fill-opacity="1"><g transform="translate(241.698611, 284.502513)"><g><path d="M 4.984375 -11.703125 C 3.984375 -11.703125 3.484375 -11.160156 3.484375 -10.078125 L 3.484375 -9.28125 L 6.171875 -9.28125 L 6.171875 -7.890625 L 3.515625 -7.890625 L 3.515625 0 L 1.84375 0 L 1.84375 -7.890625 L 0.265625 -7.890625 L 0.265625 -9.28125 L 1.84375 -9.28125 L 1.84375 -10.09375 C 1.84375 -11.019531 2.109375 -11.75 2.640625 -12.28125 C 3.179688 -12.820312 3.9375 -13.09375 4.90625 -13.09375 C 5.269531 -13.09375 5.613281 -13.046875 5.9375 -12.953125 C 6.269531 -12.859375 6.554688 -12.722656 6.796875 -12.546875 L 6.28125 -11.265625 C 5.894531 -11.554688 5.460938 -11.703125 4.984375 -11.703125 Z M 4.984375 -11.703125 "/></g></g></g><g fill="#000000" fill-opacity="1"><g transform="translate(247.876155, 284.502513)"><g><path d="M 9.96875 -4.578125 C 9.96875 -4.453125 9.957031 -4.285156 9.9375 -4.078125 L 2.421875 -4.078125 C 2.523438 -3.265625 2.878906 -2.609375 3.484375 -2.109375 C 4.097656 -1.609375 4.863281 -1.359375 5.78125 -1.359375 C 6.882812 -1.359375 7.773438 -1.734375 8.453125 -2.484375 L 9.375 -1.40625 C 8.957031 -0.914062 8.4375 -0.539062 7.8125 -0.28125 C 7.1875 -0.0195312 6.488281 0.109375 5.71875 0.109375 C 4.738281 0.109375 3.867188 -0.09375 3.109375 -0.5 C 2.359375 -0.90625 1.773438 -1.46875 1.359375 -2.1875 C 0.941406 -2.90625 0.734375 -3.722656 0.734375 -4.640625 C 0.734375 -5.535156 0.929688 -6.34375 1.328125 -7.0625 C 1.734375 -7.789062 2.289062 -8.351562 3 -8.75 C 3.707031 -9.15625 4.503906 -9.359375 5.390625 -9.359375 C 6.273438 -9.359375 7.0625 -9.15625 7.75 -8.75 C 8.445312 -8.351562 8.988281 -7.789062 9.375 -7.0625 C 9.769531 -6.34375 9.96875 -5.515625 9.96875 -4.578125 Z M 5.390625 -7.9375 C 4.585938 -7.9375 3.914062 -7.691406 3.375 -7.203125 C 2.832031 -6.710938 2.515625 -6.070312 2.421875 -5.28125 L 8.359375 -5.28125 C 8.265625 -6.0625 7.945312 -6.695312 7.40625 -7.1875 C 6.863281 -7.6875 6.191406 -7.9375 5.390625 -7.9375 Z M 5.390625 -7.9375 "/></g></g></g><g fill="#000000" fill-opacity="1"><g transform="translate(258.586253, 284.502513)"><g><path d="M 10.234375 -9.28125 L 10.234375 0 L 8.640625 0 L 8.640625 -1.40625 C 8.304688 -0.925781 7.859375 -0.550781 7.296875 -0.28125 C 6.742188 -0.0195312 6.144531 0.109375 5.5 0.109375 C 4.257812 0.109375 3.28125 -0.226562 2.5625 -0.90625 C 1.851562 -1.59375 1.5 -2.601562 1.5 -3.9375 L 1.5 -9.28125 L 3.1875 -9.28125 L 3.1875 -4.125 C 3.1875 -3.226562 3.398438 -2.550781 3.828125 -2.09375 C 4.265625 -1.632812 4.882812 -1.40625 5.6875 -1.40625 C 6.570312 -1.40625 7.269531 -1.671875 7.78125 -2.203125 C 8.300781 -2.742188 8.5625 -3.503906 8.5625 -4.484375 L 8.5625 -9.28125 Z M 10.234375 -9.28125 "/></g></g></g><g fill="#000000" fill-opacity="1"><g transform="translate(270.433851, 284.502513)"><g><path d="M 3.203125 -7.71875 C 3.492188 -8.25 3.925781 -8.65625 4.5 -8.9375 C 5.070312 -9.21875 5.765625 -9.359375 6.578125 -9.359375 L 6.578125 -7.734375 C 6.484375 -7.742188 6.351562 -7.75 6.1875 -7.75 C 5.28125 -7.75 4.566406 -7.476562 4.046875 -6.9375 C 3.523438 -6.394531 3.265625 -5.625 3.265625 -4.625 L 3.265625 0 L 1.59375 0 L 1.59375 -9.28125 L 3.203125 -9.28125 Z M 3.203125 -7.71875 "/></g></g></g></svg>