<svg xmlns="http://www.w3.org/2000/svg" xmlns:xlink="http://www.w3.org/1999/xlink" width="150" zoomAndPan="magnify" viewBox="0 0 112.5 37.5" height="50" preserveAspectRatio="xMidYMid meet" version="1.0"><defs><g/><clipPath id="6a4080722d"><path d="M 0.492188 0 L 111.511719 0 L 111.511719 37.007812 L 0.492188 37.007812 Z M 0.492188 0 " clip-rule="nonzero"/></clipPath><clipPath id="d3bedb3888"><path d="M 8.789062 6.527344 L 35.128906 6.527344 L 35.128906 33.164062 L 8.789062 33.164062 Z M 8.789062 6.527344 " clip-rule="nonzero"/></clipPath><clipPath id="8905349ec5"><path d="M 8.480469 26.679688 L 36.605469 26.679688 L 36.605469 27.351562 L 8.480469 27.351562 Z M 8.480469 26.679688 " clip-rule="nonzero"/></clipPath><clipPath id="f31f68c705"><path d="M 8.480469 20.796875 L 36.605469 20.796875 L 36.605469 21.472656 L 8.480469 21.472656 Z M 8.480469 20.796875 " clip-rule="nonzero"/></clipPath></defs><g clip-path="url(#6a4080722d)"><path fill="#ffffff" d="M 0.492188 0 L 111.511719 0 L 111.511719 37.007812 L 0.492188 37.007812 Z M 0.492188 0 " fill-opacity="1" fill-rule="nonzero"/><path fill="#ffffff" d="M 0.492188 0 L 111.511719 0 L 111.511719 37.007812 L 0.492188 37.007812 Z M 0.492188 0 " fill-opacity="1" fill-rule="nonzero"/></g><path fill="#000000" d="M 16.476562 16.84375 C 16.476562 16.84375 15.671875 16.855469 15.636719 16.976562 C 15.605469 17.101562 15.566406 17.207031 15.984375 17.148438 C 16.40625 17.09375 16.636719 16.914062 16.609375 16.882812 C 16.578125 16.855469 16.476562 16.84375 16.476562 16.84375 Z M 13.332031 17.277344 C 13.332031 17.277344 13.046875 17.28125 13.042969 17.339844 C 13.035156 17.402344 13.058594 17.46875 13.164062 17.453125 C 13.265625 17.441406 13.425781 17.355469 13.40625 17.324219 C 13.386719 17.289062 13.332031 17.277344 13.332031 17.277344 Z M 10.578125 18.566406 C 12.285156 18.011719 12.953125 20.429688 11.75 21.261719 C 12.109375 21.277344 12.375 21.328125 12.5625 21.191406 C 12.980469 20.886719 13.226562 19.738281 12.699219 18.96875 C 12.53125 18.527344 11.898438 17.988281 11.199219 18.105469 C 10.480469 18.222656 10.125 18.859375 10.125 18.859375 C 10.125 18.859375 10.125 18.859375 10.1875 18.867188 C 10.230469 18.875 10.289062 18.714844 10.578125 18.566406 Z M 21.933594 18.308594 C 23.503906 18.234375 23.886719 19.945312 23.496094 21.207031 L 24.765625 21.191406 C 25.382812 18.949219 24.210938 16.542969 21.644531 16.902344 C 20.527344 17.058594 19.875 17.921875 19.660156 18.21875 C 19.527344 18.394531 19.617188 18.40625 19.757812 18.269531 C 19.976562 18.058594 20.46875 17.589844 21.28125 17.351562 C 22.34375 17.035156 23.125 17.367188 23.652344 18.039062 C 23.1875 17.730469 22.457031 17.574219 21.792969 17.726562 C 20.488281 18.023438 19.605469 19.242188 19.722656 21.152344 C 19.730469 21.304688 20.464844 21.183594 20.464844 21.183594 C 20.464844 21.183594 20.339844 20.898438 20.335938 20.414062 C 20.328125 19.222656 20.917969 18.390625 21.933594 18.308594 Z M 30.613281 20.933594 C 30.613281 20.933594 32.648438 20.824219 33.242188 20.609375 C 33.425781 20.542969 33.578125 20.433594 33.699219 20.316406 C 32.390625 20.699219 27.351562 20.511719 27.351562 20.511719 C 27.351562 20.511719 26.984375 20.582031 26.96875 20.390625 C 26.953125 20.199219 27.433594 18.777344 27.824219 18.320312 C 28.097656 18.003906 29.375 17.984375 29.746094 18.152344 C 29.960938 18.25 30.199219 18.613281 30.488281 18.644531 C 30.78125 18.679688 32.902344 18.730469 33.210938 18.601562 C 33.519531 18.46875 33.5625 18.300781 33.738281 18.265625 C 33.917969 18.230469 34.523438 18.171875 34.574219 18.214844 C 34.605469 18.242188 34.636719 18.851562 34.460938 19.417969 C 34.417969 19.570312 34.152344 20.441406 33.425781 20.8125 C 32.628906 21.222656 31.691406 21.253906 31.691406 21.253906 Z M 9.597656 18.980469 C 9.597656 18.980469 10.042969 17.679688 10.339844 17.453125 C 10.636719 17.226562 10.914062 17.261719 11.203125 16.96875 C 11.496094 16.671875 12.578125 15.140625 12.789062 15.042969 C 12.824219 15.027344 13.003906 14.957031 13.269531 14.859375 C 13.15625 15.199219 12.800781 16.289062 12.855469 16.316406 C 12.910156 16.34375 13.351562 15.152344 13.511719 14.769531 C 14.113281 14.550781 14.996094 14.238281 15.824219 13.96875 C 15.628906 14.402344 15.261719 15.9375 15.261719 15.9375 C 15.261719 15.9375 15.261719 15.9375 15.273438 15.960938 C 15.28125 15.976562 15.773438 14.492188 16.148438 13.863281 C 17.042969 13.582031 17.820312 13.371094 18.03125 13.417969 C 18.421875 13.503906 19.042969 14.199219 19.523438 14.753906 C 19.429688 14.667969 19.34375 14.605469 19.28125 14.578125 C 19.050781 14.476562 18.179688 14.554688 17.984375 14.679688 C 17.789062 14.804688 17.925781 15.222656 17.925781 15.222656 C 17.925781 15.222656 17.984375 15.320312 18.132812 15.351562 C 18.28125 15.386719 18.851562 15.300781 19.089844 15.265625 C 19.230469 15.246094 19.4375 15.320312 19.578125 15.382812 C 17.59375 15.734375 12.214844 16.847656 12.214844 16.847656 C 12.214844 16.847656 11.839844 16.949219 11.890625 16.980469 C 11.917969 17 16.699219 16.238281 20.992188 15.875 C 22.257812 15.769531 23.503906 15.730469 24.554688 15.722656 C 24.558594 15.746094 24.566406 15.769531 24.574219 15.796875 C 24.644531 16 25.640625 17.039062 26.210938 17.203125 C 26.78125 17.363281 27.832031 17.222656 27.8125 17.175781 C 27.789062 17.125 27.0625 17.152344 26.59375 16.984375 C 26.125 16.820312 25.316406 16.027344 25.273438 15.882812 C 25.257812 15.820312 25.273438 15.765625 25.304688 15.722656 C 25.722656 15.726562 26.09375 15.730469 26.402344 15.738281 C 26.640625 15.785156 26.886719 15.847656 27.121094 15.941406 C 27.960938 16.269531 28.707031 16.980469 28.683594 17.0625 C 28.664062 17.140625 28.523438 17.152344 28.523438 17.152344 C 28.523438 17.152344 28.851562 17.226562 28.878906 16.976562 C 28.902344 16.765625 28.503906 16.117188 28.347656 15.890625 C 28.503906 15.925781 28.78125 16.003906 28.890625 16.109375 C 29.039062 16.253906 29.679688 17.5 30.015625 17.664062 C 30.347656 17.832031 33.847656 17.890625 33.964844 17.703125 C 34.082031 17.515625 33.371094 15.960938 33.371094 15.960938 C 33.371094 15.960938 31.773438 15.574219 29.722656 15.445312 C 29.597656 15.4375 29.46875 15.429688 29.335938 15.421875 C 29.320312 15.421875 29.308594 15.417969 29.292969 15.417969 C 28.597656 15.371094 25.570312 15.25 23.773438 15.296875 C 22.933594 15.320312 21.265625 15.484375 20.707031 14.875 C 20.550781 14.703125 19.632812 13.875 18.972656 13.339844 L 21.765625 14.859375 L 26.9375 14.953125 C 26.9375 14.953125 26.109375 14.234375 25.203125 13.855469 C 24.011719 13.359375 19.699219 12.84375 18.242188 12.863281 C 18.171875 12.855469 18.09375 12.859375 18.007812 12.871094 C 17.746094 12.902344 17.460938 12.996094 17.460938 12.996094 C 17.460938 12.996094 12.746094 14.710938 12.492188 14.945312 C 12.238281 15.183594 11.105469 16.832031 10.929688 16.886719 C 10.75 16.941406 10.34375 16.976562 10.164062 17.257812 C 10.058594 17.425781 9.703125 18.171875 9.574219 18.613281 C 9.488281 18.914062 9.597656 18.980469 9.597656 18.980469 " fill-opacity="1" fill-rule="evenodd"/><path stroke-linecap="round" transform="matrix(0.0061255, 0, 0, -0.0061255, 8.482136, 33.296492)" fill="none" stroke-linejoin="round" d="M 1305.106854 2685.944698 C 1305.106854 2685.944698 1173.739929 2684.031587 1168.000597 2664.262778 C 1162.898969 2643.856265 1156.521934 2626.63827 1224.756211 2636.203823 C 1293.628191 2645.131672 1331.252699 2674.466034 1326.788774 2679.567662 C 1321.687146 2684.031587 1305.106854 2685.944698 1305.106854 2685.944698 Z M 791.75552 2615.159607 C 791.75552 2615.159607 745.203163 2614.521903 744.56546 2604.956351 C 743.290053 2594.753094 747.116274 2583.912134 764.334269 2586.462948 C 780.91456 2588.376059 807.060405 2602.405536 803.871887 2607.507165 C 800.683369 2613.246496 791.75552 2615.159607 791.75552 2615.159607 Z M 342.174538 2404.717445 C 620.850977 2495.271345 729.898279 2100.532866 533.485594 1964.702016 C 592.154318 1962.151202 635.518158 1953.861056 666.127927 1976.180679 C 734.362203 2025.921554 774.537525 2213.406389 688.44755 2339.033982 C 661.026298 2411.09448 557.718328 2499.097566 443.569398 2479.966461 C 326.23195 2460.835355 268.20093 2356.889681 268.20093 2356.889681 C 268.20093 2356.889681 268.20093 2356.889681 278.404186 2355.614274 C 285.418925 2354.338867 294.984478 2380.484711 342.174538 2404.717445 Z M 2195.978672 2446.805877 C 2452.335488 2458.922244 2514.830433 2179.608102 2451.060081 1973.629865 L 2658.313725 1976.180679 C 2759.070881 2342.2225 2567.759825 2735.047869 2148.788612 2676.379145 C 1966.405405 2650.871004 1859.908917 2509.938526 1824.835223 2461.473058 C 1803.153304 2432.7764 1817.820485 2430.863289 1840.777811 2453.182913 C 1876.489209 2487.618903 1956.839852 2564.143325 2089.482184 2603.04324 C 2262.937542 2654.697225 2390.478246 2600.492426 2476.568221 2490.80742 C 2400.681502 2541.185998 2281.430944 2566.694139 2173.021346 2541.823702 C 1960.02837 2493.358234 1815.907374 2294.394736 1835.03848 1982.557715 C 1836.313887 1957.687277 1956.202149 1977.456086 1956.202149 1977.456086 C 1956.202149 1977.456086 1935.795636 2024.008443 1935.157932 2103.08368 C 1933.882525 2297.583254 2030.175757 2433.414104 2195.978672 2446.805877 Z M 3612.955895 2018.269112 C 3612.955895 2018.269112 3945.199429 2036.12481 4042.130364 2071.198504 C 4072.10243 2082.039464 4096.972867 2099.895162 4116.741676 2119.026268 C 3903.110997 2056.531323 3080.473455 2087.141092 3080.473455 2087.141092 C 3080.473455 2087.141092 3020.529324 2075.662429 3017.97851 2106.909901 C 3015.427696 2138.157374 3093.865229 2370.281455 3157.635581 2444.892767 C 3202.274828 2496.546752 3410.803879 2499.73527 3471.385713 2472.314018 C 3506.459407 2456.37143 3545.359322 2397.065003 3592.549382 2391.963375 C 3640.377146 2386.224043 3986.650158 2377.933897 4037.028736 2398.978113 C 4087.407314 2420.660033 4094.422053 2448.081284 4123.118711 2453.820616 C 4152.453073 2459.559948 4251.297119 2469.125501 4259.587265 2462.110762 C 4264.688893 2457.646837 4269.790521 2358.165088 4241.093863 2265.698078 C 4234.079124 2240.82764 4190.715285 2098.619755 4072.10243 2038.037921 C 3942.010912 1971.079051 3788.962067 1965.977423 3788.962067 1965.977423 Z M 182.110955 2337.120872 C 182.110955 2337.120872 254.809156 2549.476144 303.274623 2586.462948 C 351.740091 2623.449753 397.017041 2617.710421 444.207101 2665.538185 C 492.034866 2714.003653 668.678741 2963.983433 703.114731 2979.926021 C 708.854063 2982.476835 738.188424 2993.955498 781.552264 3009.898086 C 763.058862 2954.41788 705.027841 2776.498598 713.955691 2772.034673 C 722.88354 2767.570748 794.944038 2962.070322 821.089882 3024.565267 C 919.296224 3060.276664 1063.41722 3111.292946 1198.610366 3155.294489 C 1166.72519 3084.509398 1106.781059 2833.891914 1106.781059 2833.891914 C 1106.781059 2833.891914 1106.781059 2833.891914 1108.69417 2830.065693 C 1109.969577 2827.514879 1190.320221 3069.842217 1251.539758 3172.512484 C 1397.573865 3218.427137 1524.476865 3252.863127 1558.912855 3245.210685 C 1622.683207 3231.181208 1724.078067 3117.669981 1802.5156 3027.116081 C 1787.210716 3041.145559 1773.181238 3051.348815 1762.977982 3055.81274 C 1725.353474 3072.393031 1583.145589 3059.638961 1551.260413 3039.232448 C 1519.375237 3018.825935 1541.69486 2950.591659 1541.69486 2950.591659 C 1541.69486 2950.591659 1551.260413 2934.649071 1575.493147 2929.547442 C 1599.725881 2923.808111 1692.830595 2937.837588 1731.730509 2943.57692 C 1754.687836 2946.765438 1788.486123 2934.649071 1811.443449 2924.445814 C 1487.490061 2867.052497 609.372313 2685.306994 609.372313 2685.306994 C 609.372313 2685.306994 548.152775 2668.726703 556.442921 2663.625074 C 560.906846 2660.436557 1341.455955 2784.788743 2042.292124 2844.095171 C 2248.908065 2861.313166 2452.335488 2867.690201 2623.877735 2868.965608 C 2624.515438 2865.139387 2625.790845 2861.313166 2627.066252 2856.849241 C 2638.544916 2823.688658 2801.159313 2654.059522 2894.264027 2627.275974 C 2987.368741 2601.130129 3158.910988 2624.087456 3155.722471 2631.739898 C 3151.89625 2640.030044 3033.283395 2635.56612 2956.758972 2662.987371 C 2880.23455 2689.770919 2748.229921 2819.224733 2741.215182 2842.819764 C 2738.664368 2853.02302 2741.215182 2861.950869 2746.316811 2868.965608 C 2814.551087 2868.327905 2875.132922 2867.690201 2925.5115 2866.414794 C 2964.411415 2858.762352 3004.586736 2848.559095 3042.848948 2833.254211 C 3179.955205 2779.687115 3301.756577 2663.625074 3297.930356 2650.2333 C 3294.741838 2637.47923 3271.784511 2635.56612 3271.784511 2635.56612 C 3271.784511 2635.56612 3325.351607 2623.449753 3329.815532 2664.262778 C 3333.641753 2698.698768 3268.595994 2804.557552 3243.087853 2841.544357 C 3268.595994 2835.805025 3313.872944 2823.050955 3331.728642 2805.83296 C 3355.961376 2782.237929 3460.544754 2578.810506 3515.387256 2552.026958 C 3569.592056 2524.605707 4140.97441 2515.040154 4160.105516 2545.649923 C 4179.236621 2576.259692 4063.17458 2830.065693 4063.17458 2830.065693 C 4063.17458 2830.065693 3802.353841 2893.198342 3467.559492 2914.242558 C 3447.15298 2915.517965 3426.108763 2916.793372 3404.426844 2918.068779 C 3401.87603 2918.068779 3399.962919 2918.706483 3397.412105 2918.706483 C 3283.900878 2926.358925 2789.68065 2946.127734 2496.337031 2938.475292 C 2359.230774 2934.649071 2086.93137 2907.865523 1995.739767 3007.347272 C 1970.231626 3035.406227 1820.371299 3170.599373 1712.599404 3257.964756 L 2168.557421 3009.898086 L 3012.876882 2994.593202 C 3012.876882 2994.593202 2877.683736 3111.930649 2729.736519 3173.787891 C 2535.236945 3254.776238 1831.212259 3338.953103 1593.348845 3335.764585 C 1581.870182 3337.039992 1569.116112 3336.402289 1555.086634 3334.489178 C 1512.360498 3329.38755 1465.808141 3314.082665 1465.808141 3314.082665 C 1465.808141 3314.082665 696.099992 3034.13082 654.649263 2995.868609 C 613.198534 2956.968694 428.264513 2687.857808 399.567855 2678.929959 C 370.233493 2670.00211 303.912327 2664.262778 274.577965 2618.348124 C 257.35997 2590.926873 199.32895 2469.125501 178.284733 2397.065003 C 164.255256 2347.961832 182.110955 2337.120872 182.110955 2337.120872 Z M 182.110955 2337.120872 " stroke="#000000" stroke-width="2.268" stroke-opacity="1" stroke-miterlimit="10"/><g clip-path="url(#d3bedb3888)"><path fill="#df2633" d="M 9.917969 16.296875 C 9.296875 13.722656 8.824219 11.65625 8.84375 11.375 C 8.976562 9.238281 11.632812 7.835938 15.238281 7.125 C 17.257812 6.726562 19.609375 6.523438 21.964844 6.523438 C 24.316406 6.523438 26.667969 6.722656 28.6875 7.125 C 32.289062 7.835938 34.941406 9.238281 35.074219 11.375 C 35.089844 11.625 34.722656 13.28125 34.203125 15.449219 C 33.761719 15.3125 33.222656 15.167969 32.65625 15.023438 C 33.128906 13.078125 33.460938 11.636719 33.453125 11.46875 C 33.375 10.222656 31.261719 9.289062 28.375 8.71875 C 26.441406 8.339844 24.199219 8.148438 21.964844 8.148438 C 19.726562 8.148438 17.484375 8.339844 15.550781 8.71875 C 12.660156 9.292969 10.542969 10.222656 10.464844 11.46875 C 10.453125 11.636719 10.78125 13.054688 11.25 14.980469 L 11.070312 15.355469 C 10.941406 15.632812 10.359375 16.023438 9.976562 16.25 C 9.957031 16.261719 9.9375 16.277344 9.917969 16.296875 Z M 21.535156 33.179688 L 13.164062 28.289062 C 12.949219 28.160156 12.8125 27.949219 12.773438 27.71875 C 12.742188 27.597656 12.671875 27.324219 12.570312 26.929688 L 14.238281 26.910156 L 14.277344 27.050781 L 21.957031 31.539062 L 29.640625 27.050781 L 29.722656 26.722656 L 31.402344 26.703125 C 31.230469 27.375 31.128906 27.78125 31.125 27.785156 C 31.070312 28.003906 30.929688 28.179688 30.75 28.285156 L 30.75 28.289062 L 22.367188 33.183594 C 22.101562 33.339844 21.78125 33.328125 21.535156 33.179688 " fill-opacity="1" fill-rule="nonzero"/></g><path fill="#000000" d="M 33.429688 16.246094 C 33.449219 16.253906 33.761719 16.320312 33.941406 16.550781 C 34.125 16.777344 34.21875 17.070312 34.25 17.0625 C 34.28125 17.050781 34.164062 16.414062 33.90625 16.195312 C 33.652344 15.980469 33.265625 15.9375 33.265625 15.9375 C 33.265625 15.9375 33.257812 16.164062 33.265625 16.1875 C 33.277344 16.207031 33.429688 16.246094 33.429688 16.246094 " fill-opacity="1" fill-rule="evenodd"/><path fill="#ffffff" d="M 31.40625 17.417969 C 31.40625 17.417969 30.761719 16.117188 30.800781 16.003906 C 30.839844 15.886719 30.949219 15.976562 30.988281 16.019531 C 31.027344 16.0625 31.492188 17.429688 31.460938 17.441406 C 31.429688 17.457031 31.40625 17.417969 31.40625 17.417969 Z M 32.34375 17.511719 C 32.34375 17.511719 31.699219 16.210938 31.738281 16.09375 C 31.777344 15.980469 31.890625 16.070312 31.925781 16.113281 C 31.964844 16.15625 32.429688 17.523438 32.398438 17.535156 C 32.371094 17.546875 32.34375 17.511719 32.34375 17.511719 Z M 33.253906 17.472656 C 33.253906 17.472656 32.707031 16.265625 32.753906 16.160156 C 32.800781 16.050781 32.90625 16.132812 32.941406 16.175781 C 32.976562 16.214844 33.335938 17.480469 33.304688 17.492188 C 33.273438 17.507812 33.253906 17.472656 33.253906 17.472656 Z M 30.535156 17.394531 C 30.535156 17.394531 29.800781 16.132812 29.835938 16.015625 C 29.867188 15.898438 29.984375 15.980469 30.027344 16.023438 C 30.066406 16.0625 30.621094 17.398438 30.59375 17.414062 C 30.5625 17.429688 30.535156 17.394531 30.535156 17.394531 " fill-opacity="1" fill-rule="evenodd"/><g clip-path="url(#8905349ec5)"><path fill="#df2633" d="M 8.480469 26.683594 L 36.859375 26.683594 C 36.859375 26.683594 35.21875 27.007812 32.183594 27.15625 C 29.589844 27.285156 24.339844 27.304688 22.867188 27.308594 C 22.867188 27.308594 22.796875 27.308594 22.671875 27.308594 C 22.546875 27.308594 22.476562 27.308594 22.476562 27.308594 C 21.003906 27.304688 15.753906 27.285156 13.160156 27.15625 C 10.125 27.007812 8.480469 26.683594 8.480469 26.683594 " fill-opacity="1" fill-rule="evenodd"/></g><g clip-path="url(#f31f68c705)"><path fill="#df2633" d="M 8.480469 21.464844 L 36.859375 21.464844 C 36.859375 21.464844 35.21875 21.140625 32.183594 20.992188 C 29.589844 20.863281 24.339844 20.84375 22.867188 20.839844 C 22.867188 20.839844 22.796875 20.839844 22.671875 20.839844 C 22.546875 20.839844 22.476562 20.839844 22.476562 20.839844 C 21.003906 20.84375 15.753906 20.863281 13.160156 20.992188 C 10.125 21.140625 8.480469 21.464844 8.480469 21.464844 " fill-opacity="1" fill-rule="evenodd"/></g><g fill="#df2633" fill-opacity="1"><g transform="translate(43.698149, 14.376804)"><g><path d="M 3.421875 0.15625 C 2.804688 0.15625 2.207031 0.0820312 1.625 -0.0625 C 1.050781 -0.21875 0.585938 -0.425781 0.234375 -0.6875 L 0.9375 -2.265625 C 1.269531 -2.046875 1.660156 -1.863281 2.109375 -1.71875 C 2.554688 -1.582031 3 -1.515625 3.4375 -1.515625 C 4.257812 -1.515625 4.671875 -1.722656 4.671875 -2.140625 C 4.671875 -2.359375 4.550781 -2.519531 4.3125 -2.625 C 4.082031 -2.726562 3.707031 -2.835938 3.1875 -2.953125 C 2.613281 -3.078125 2.132812 -3.207031 1.75 -3.34375 C 1.375 -3.488281 1.046875 -3.710938 0.765625 -4.015625 C 0.492188 -4.328125 0.359375 -4.75 0.359375 -5.28125 C 0.359375 -5.738281 0.484375 -6.15625 0.734375 -6.53125 C 0.984375 -6.90625 1.359375 -7.203125 1.859375 -7.421875 C 2.367188 -7.640625 2.988281 -7.75 3.71875 -7.75 C 4.21875 -7.75 4.707031 -7.691406 5.1875 -7.578125 C 5.675781 -7.460938 6.101562 -7.296875 6.46875 -7.078125 L 5.8125 -5.484375 C 5.09375 -5.878906 4.390625 -6.078125 3.703125 -6.078125 C 3.273438 -6.078125 2.960938 -6.007812 2.765625 -5.875 C 2.578125 -5.75 2.484375 -5.585938 2.484375 -5.390625 C 2.484375 -5.179688 2.597656 -5.023438 2.828125 -4.921875 C 3.054688 -4.828125 3.429688 -4.726562 3.953125 -4.625 C 4.523438 -4.5 5 -4.363281 5.375 -4.21875 C 5.757812 -4.082031 6.085938 -3.859375 6.359375 -3.546875 C 6.640625 -3.242188 6.78125 -2.828125 6.78125 -2.296875 C 6.78125 -1.835938 6.65625 -1.425781 6.40625 -1.0625 C 6.15625 -0.695312 5.773438 -0.398438 5.265625 -0.171875 C 4.765625 0.046875 4.148438 0.15625 3.421875 0.15625 Z M 3.421875 0.15625 "/></g></g></g><g fill="#df2633" fill-opacity="1"><g transform="translate(50.716547, 14.376804)"><g><path d="M 2.375 -5.890625 L 0.046875 -5.890625 L 0.046875 -7.59375 L 6.84375 -7.59375 L 6.84375 -5.890625 L 4.515625 -5.890625 L 4.515625 0 L 2.375 0 Z M 2.375 -5.890625 "/></g></g></g><g fill="#df2633" fill-opacity="1"><g transform="translate(57.604764, 14.376804)"><g><path d="M 5.84375 -1.46875 L 2.640625 -1.46875 L 2.03125 0 L -0.15625 0 L 3.203125 -7.59375 L 5.3125 -7.59375 L 8.671875 0 L 6.4375 0 Z M 5.21875 -3.0625 L 4.234375 -5.484375 L 3.265625 -3.0625 Z M 5.21875 -3.0625 "/></g></g></g><g fill="#df2633" fill-opacity="1"><g transform="translate(66.13097, 14.376804)"><g><path d="M 7.984375 -7.59375 L 7.984375 0 L 6.21875 0 L 2.859375 -4.046875 L 2.859375 0 L 0.765625 0 L 0.765625 -7.59375 L 2.53125 -7.59375 L 5.875 -3.546875 L 5.875 -7.59375 Z M 7.984375 -7.59375 "/></g></g></g><g fill="#df2633" fill-opacity="1"><g transform="translate(74.874135, 14.376804)"><g><path d="M 0.765625 -7.59375 L 4.34375 -7.59375 C 5.175781 -7.59375 5.914062 -7.4375 6.5625 -7.125 C 7.207031 -6.8125 7.707031 -6.367188 8.0625 -5.796875 C 8.414062 -5.222656 8.59375 -4.554688 8.59375 -3.796875 C 8.59375 -3.023438 8.414062 -2.351562 8.0625 -1.78125 C 7.707031 -1.21875 7.207031 -0.78125 6.5625 -0.46875 C 5.914062 -0.15625 5.175781 0 4.34375 0 L 0.765625 0 Z M 4.265625 -1.71875 C 4.910156 -1.71875 5.429688 -1.898438 5.828125 -2.265625 C 6.222656 -2.628906 6.421875 -3.140625 6.421875 -3.796875 C 6.421875 -4.441406 6.222656 -4.945312 5.828125 -5.3125 C 5.429688 -5.6875 4.910156 -5.875 4.265625 -5.875 L 2.90625 -5.875 L 2.90625 -1.71875 Z M 4.265625 -1.71875 "/></g></g></g><g fill="#df2633" fill-opacity="1"><g transform="translate(83.834249, 14.376804)"><g><path d="M 2.90625 -5.9375 L 2.90625 -4.265625 L 6.25 -4.265625 L 6.25 -2.609375 L 2.90625 -2.609375 L 2.90625 0 L 0.765625 0 L 0.765625 -7.59375 L 6.71875 -7.59375 L 6.71875 -5.9375 Z M 2.90625 -5.9375 "/></g></g></g><g fill="#df2633" fill-opacity="1"><g transform="translate(90.798404, 14.376804)"><g><path d="M 0.765625 -7.59375 L 2.90625 -7.59375 L 2.90625 0 L 0.765625 0 Z M 0.765625 -7.59375 "/></g></g></g><g fill="#df2633" fill-opacity="1"><g transform="translate(94.47574, 14.376804)"><g><path d="M 2.375 -5.890625 L 0.046875 -5.890625 L 0.046875 -7.59375 L 6.84375 -7.59375 L 6.84375 -5.890625 L 4.515625 -5.890625 L 4.515625 0 L 2.375 0 Z M 2.375 -5.890625 "/></g></g></g><g fill="#000000" fill-opacity="1"><g transform="translate(43.698149, 23.190298)"><g><path d="M 0.71875 -4.828125 L 1.421875 -4.828125 L 1.421875 -0.59375 L 4.03125 -0.59375 L 4.03125 0 L 0.71875 0 Z M 0.71875 -4.828125 "/></g></g></g><g fill="#000000" fill-opacity="1"><g transform="translate(47.801471, 23.190298)"><g><path d="M 4.046875 -3.65625 L 4.046875 0 L 3.40625 0 L 3.40625 -0.546875 C 3.28125 -0.359375 3.109375 -0.210938 2.890625 -0.109375 C 2.671875 -0.00390625 2.429688 0.046875 2.171875 0.046875 C 1.679688 0.046875 1.296875 -0.0859375 1.015625 -0.359375 C 0.734375 -0.628906 0.59375 -1.023438 0.59375 -1.546875 L 0.59375 -3.65625 L 1.25 -3.65625 L 1.25 -1.625 C 1.25 -1.269531 1.332031 -1 1.5 -0.8125 C 1.675781 -0.632812 1.925781 -0.546875 2.25 -0.546875 C 2.59375 -0.546875 2.863281 -0.648438 3.0625 -0.859375 C 3.269531 -1.078125 3.375 -1.378906 3.375 -1.765625 L 3.375 -3.65625 Z M 4.046875 -3.65625 "/></g></g></g><g fill="#000000" fill-opacity="1"><g transform="translate(52.478151, 23.190298)"><g><path d="M 2.96875 0 L 1.90625 -1.40625 L 0.828125 0 L 0.09375 0 L 1.546875 -1.875 L 0.171875 -3.65625 L 0.90625 -3.65625 L 1.90625 -2.34375 L 2.921875 -3.65625 L 3.640625 -3.65625 L 2.265625 -1.875 L 3.71875 0 Z M 2.96875 0 "/></g></g></g><g fill="#000000" fill-opacity="1"><g transform="translate(56.291343, 23.190298)"><g><path d="M 4.046875 -3.65625 L 4.046875 0 L 3.40625 0 L 3.40625 -0.546875 C 3.28125 -0.359375 3.109375 -0.210938 2.890625 -0.109375 C 2.671875 -0.00390625 2.429688 0.046875 2.171875 0.046875 C 1.679688 0.046875 1.296875 -0.0859375 1.015625 -0.359375 C 0.734375 -0.628906 0.59375 -1.023438 0.59375 -1.546875 L 0.59375 -3.65625 L 1.25 -3.65625 L 1.25 -1.625 C 1.25 -1.269531 1.332031 -1 1.5 -0.8125 C 1.675781 -0.632812 1.925781 -0.546875 2.25 -0.546875 C 2.59375 -0.546875 2.863281 -0.648438 3.0625 -0.859375 C 3.269531 -1.078125 3.375 -1.378906 3.375 -1.765625 L 3.375 -3.65625 Z M 4.046875 -3.65625 "/></g></g></g><g fill="#000000" fill-opacity="1"><g transform="translate(60.968022, 23.190298)"><g><path d="M 1.265625 -3.046875 C 1.378906 -3.253906 1.546875 -3.410156 1.765625 -3.515625 C 1.992188 -3.628906 2.269531 -3.6875 2.59375 -3.6875 L 2.59375 -3.046875 C 2.5625 -3.054688 2.507812 -3.0625 2.4375 -3.0625 C 2.082031 -3.0625 1.800781 -2.953125 1.59375 -2.734375 C 1.394531 -2.523438 1.296875 -2.222656 1.296875 -1.828125 L 1.296875 0 L 0.625 0 L 0.625 -3.65625 L 1.265625 -3.65625 Z M 1.265625 -3.046875 "/></g></g></g><g fill="#000000" fill-opacity="1"><g transform="translate(63.800278, 23.190298)"><g><path d="M 3.875 -3.65625 L 2.09375 0.359375 C 1.9375 0.734375 1.753906 0.992188 1.546875 1.140625 C 1.335938 1.296875 1.082031 1.375 0.78125 1.375 C 0.601562 1.375 0.429688 1.34375 0.265625 1.28125 C 0.0976562 1.226562 -0.0390625 1.148438 -0.15625 1.046875 L 0.125 0.546875 C 0.320312 0.722656 0.539062 0.8125 0.78125 0.8125 C 0.945312 0.8125 1.082031 0.769531 1.1875 0.6875 C 1.300781 0.601562 1.398438 0.457031 1.484375 0.25 L 1.609375 0 L -0.015625 -3.65625 L 0.671875 -3.65625 L 1.953125 -0.734375 L 3.21875 -3.65625 Z M 3.875 -3.65625 "/></g></g></g><g fill="#000000" fill-opacity="1"><g transform="translate(67.661824, 23.190298)"><g/></g></g><g fill="#000000" fill-opacity="1"><g transform="translate(69.520065, 23.190298)"><g><path d="M 2.890625 0.0625 C 2.398438 0.0625 1.960938 -0.046875 1.578125 -0.265625 C 1.191406 -0.484375 0.882812 -0.78125 0.65625 -1.15625 C 0.4375 -1.53125 0.328125 -1.953125 0.328125 -2.421875 C 0.328125 -2.890625 0.4375 -3.3125 0.65625 -3.6875 C 0.882812 -4.0625 1.191406 -4.351562 1.578125 -4.5625 C 1.972656 -4.78125 2.410156 -4.890625 2.890625 -4.890625 C 3.265625 -4.890625 3.609375 -4.828125 3.921875 -4.703125 C 4.242188 -4.578125 4.515625 -4.390625 4.734375 -4.140625 L 4.28125 -3.703125 C 3.914062 -4.085938 3.460938 -4.28125 2.921875 -4.28125 C 2.554688 -4.28125 2.226562 -4.195312 1.9375 -4.03125 C 1.65625 -3.875 1.429688 -3.648438 1.265625 -3.359375 C 1.097656 -3.078125 1.015625 -2.765625 1.015625 -2.421875 C 1.015625 -2.066406 1.097656 -1.75 1.265625 -1.46875 C 1.429688 -1.1875 1.65625 -0.960938 1.9375 -0.796875 C 2.226562 -0.640625 2.554688 -0.5625 2.921875 -0.5625 C 3.460938 -0.5625 3.914062 -0.753906 4.28125 -1.140625 L 4.734375 -0.703125 C 4.515625 -0.453125 4.242188 -0.257812 3.921875 -0.125 C 3.609375 0 3.265625 0.0625 2.890625 0.0625 Z M 2.890625 0.0625 "/></g></g></g><g fill="#000000" fill-opacity="1"><g transform="translate(74.514509, 23.190298)"><g><path d="M 1.96875 -3.6875 C 2.46875 -3.6875 2.851562 -3.5625 3.125 -3.3125 C 3.394531 -3.070312 3.53125 -2.703125 3.53125 -2.203125 L 3.53125 0 L 2.90625 0 L 2.90625 -0.484375 C 2.789062 -0.316406 2.628906 -0.1875 2.421875 -0.09375 C 2.222656 0 1.984375 0.046875 1.703125 0.046875 C 1.285156 0.046875 0.953125 -0.0507812 0.703125 -0.25 C 0.460938 -0.445312 0.34375 -0.707031 0.34375 -1.03125 C 0.34375 -1.351562 0.457031 -1.613281 0.6875 -1.8125 C 0.925781 -2.007812 1.300781 -2.109375 1.8125 -2.109375 L 2.859375 -2.109375 L 2.859375 -2.234375 C 2.859375 -2.523438 2.773438 -2.742188 2.609375 -2.890625 C 2.453125 -3.046875 2.210938 -3.125 1.890625 -3.125 C 1.671875 -3.125 1.457031 -3.085938 1.25 -3.015625 C 1.039062 -2.941406 0.863281 -2.847656 0.71875 -2.734375 L 0.453125 -3.21875 C 0.640625 -3.375 0.863281 -3.488281 1.125 -3.5625 C 1.382812 -3.644531 1.664062 -3.6875 1.96875 -3.6875 Z M 1.8125 -0.46875 C 2.0625 -0.46875 2.273438 -0.523438 2.453125 -0.640625 C 2.640625 -0.753906 2.773438 -0.914062 2.859375 -1.125 L 2.859375 -1.625 L 1.84375 -1.625 C 1.28125 -1.625 1 -1.4375 1 -1.0625 C 1 -0.875 1.066406 -0.726562 1.203125 -0.625 C 1.347656 -0.519531 1.550781 -0.46875 1.8125 -0.46875 Z M 1.8125 -0.46875 "/></g></g></g><g fill="#000000" fill-opacity="1"><g transform="translate(78.645465, 23.190298)"><g><path d="M 1.265625 -3.046875 C 1.378906 -3.253906 1.546875 -3.410156 1.765625 -3.515625 C 1.992188 -3.628906 2.269531 -3.6875 2.59375 -3.6875 L 2.59375 -3.046875 C 2.5625 -3.054688 2.507812 -3.0625 2.4375 -3.0625 C 2.082031 -3.0625 1.800781 -2.953125 1.59375 -2.734375 C 1.394531 -2.523438 1.296875 -2.222656 1.296875 -1.828125 L 1.296875 0 L 0.625 0 L 0.625 -3.65625 L 1.265625 -3.65625 Z M 1.265625 -3.046875 "/></g></g></g><g fill="#000000" fill-opacity="1"><g transform="translate(43.698149, 30.098198)"><g><path d="M 3.953125 0 L 2.921875 -1.484375 C 2.785156 -1.472656 2.679688 -1.46875 2.609375 -1.46875 L 1.421875 -1.46875 L 1.421875 0 L 0.71875 0 L 0.71875 -4.828125 L 2.609375 -4.828125 C 3.234375 -4.828125 3.722656 -4.675781 4.078125 -4.375 C 4.441406 -4.082031 4.625 -3.675781 4.625 -3.15625 C 4.625 -2.78125 4.53125 -2.457031 4.34375 -2.1875 C 4.164062 -1.925781 3.90625 -1.738281 3.5625 -1.625 L 4.703125 0 Z M 2.59375 -2.0625 C 3.03125 -2.0625 3.363281 -2.15625 3.59375 -2.34375 C 3.820312 -2.53125 3.9375 -2.800781 3.9375 -3.15625 C 3.9375 -3.5 3.820312 -3.765625 3.59375 -3.953125 C 3.363281 -4.140625 3.03125 -4.234375 2.59375 -4.234375 L 1.421875 -4.234375 L 1.421875 -2.0625 Z M 2.59375 -2.0625 "/></g></g></g><g fill="#000000" fill-opacity="1"><g transform="translate(48.720227, 30.098198)"><g><path d="M 3.9375 -1.8125 C 3.9375 -1.757812 3.929688 -1.691406 3.921875 -1.609375 L 0.953125 -1.609375 C 0.992188 -1.285156 1.132812 -1.023438 1.375 -0.828125 C 1.613281 -0.628906 1.914062 -0.53125 2.28125 -0.53125 C 2.71875 -0.53125 3.066406 -0.679688 3.328125 -0.984375 L 3.703125 -0.546875 C 3.535156 -0.359375 3.328125 -0.210938 3.078125 -0.109375 C 2.835938 -0.00390625 2.566406 0.046875 2.265625 0.046875 C 1.867188 0.046875 1.519531 -0.03125 1.21875 -0.1875 C 0.925781 -0.351562 0.695312 -0.578125 0.53125 -0.859375 C 0.375 -1.148438 0.296875 -1.472656 0.296875 -1.828125 C 0.296875 -2.179688 0.375 -2.5 0.53125 -2.78125 C 0.6875 -3.070312 0.90625 -3.296875 1.1875 -3.453125 C 1.46875 -3.609375 1.78125 -3.6875 2.125 -3.6875 C 2.476562 -3.6875 2.789062 -3.609375 3.0625 -3.453125 C 3.332031 -3.296875 3.546875 -3.070312 3.703125 -2.78125 C 3.859375 -2.5 3.9375 -2.175781 3.9375 -1.8125 Z M 2.125 -3.140625 C 1.8125 -3.140625 1.546875 -3.039062 1.328125 -2.84375 C 1.117188 -2.65625 0.992188 -2.398438 0.953125 -2.078125 L 3.296875 -2.078125 C 3.265625 -2.390625 3.140625 -2.644531 2.921875 -2.84375 C 2.710938 -3.039062 2.445312 -3.140625 2.125 -3.140625 Z M 2.125 -3.140625 "/></g></g></g><g fill="#000000" fill-opacity="1"><g transform="translate(52.947893, 30.098198)"><g><path d="M 2.578125 -3.6875 C 3.046875 -3.6875 3.414062 -3.550781 3.6875 -3.28125 C 3.96875 -3.019531 4.109375 -2.628906 4.109375 -2.109375 L 4.109375 0 L 3.4375 0 L 3.4375 -2.03125 C 3.4375 -2.382812 3.347656 -2.648438 3.171875 -2.828125 C 3.003906 -3.003906 2.765625 -3.09375 2.453125 -3.09375 C 2.085938 -3.09375 1.800781 -2.988281 1.59375 -2.78125 C 1.394531 -2.570312 1.296875 -2.273438 1.296875 -1.890625 L 1.296875 0 L 0.625 0 L 0.625 -3.65625 L 1.265625 -3.65625 L 1.265625 -3.109375 C 1.398438 -3.296875 1.578125 -3.4375 1.796875 -3.53125 C 2.023438 -3.632812 2.285156 -3.6875 2.578125 -3.6875 Z M 2.578125 -3.6875 "/></g></g></g><g fill="#000000" fill-opacity="1"><g transform="translate(57.652207, 30.098198)"><g><path d="M 2.6875 -0.21875 C 2.59375 -0.132812 2.472656 -0.0664062 2.328125 -0.015625 C 2.179688 0.0234375 2.035156 0.046875 1.890625 0.046875 C 1.515625 0.046875 1.222656 -0.0507812 1.015625 -0.25 C 0.816406 -0.445312 0.71875 -0.734375 0.71875 -1.109375 L 0.71875 -3.109375 L 0.109375 -3.109375 L 0.109375 -3.65625 L 0.71875 -3.65625 L 0.71875 -4.46875 L 1.390625 -4.46875 L 1.390625 -3.65625 L 2.4375 -3.65625 L 2.4375 -3.109375 L 1.390625 -3.109375 L 1.390625 -1.125 C 1.390625 -0.925781 1.4375 -0.773438 1.53125 -0.671875 C 1.632812 -0.566406 1.78125 -0.515625 1.96875 -0.515625 C 2.164062 -0.515625 2.335938 -0.570312 2.484375 -0.6875 Z M 2.6875 -0.21875 "/></g></g></g><g fill="#000000" fill-opacity="1"><g transform="translate(60.512096, 30.098198)"><g><path d="M 1.96875 -3.6875 C 2.46875 -3.6875 2.851562 -3.5625 3.125 -3.3125 C 3.394531 -3.070312 3.53125 -2.703125 3.53125 -2.203125 L 3.53125 0 L 2.90625 0 L 2.90625 -0.484375 C 2.789062 -0.316406 2.628906 -0.1875 2.421875 -0.09375 C 2.222656 0 1.984375 0.046875 1.703125 0.046875 C 1.285156 0.046875 0.953125 -0.0507812 0.703125 -0.25 C 0.460938 -0.445312 0.34375 -0.707031 0.34375 -1.03125 C 0.34375 -1.351562 0.457031 -1.613281 0.6875 -1.8125 C 0.925781 -2.007812 1.300781 -2.109375 1.8125 -2.109375 L 2.859375 -2.109375 L 2.859375 -2.234375 C 2.859375 -2.523438 2.773438 -2.742188 2.609375 -2.890625 C 2.453125 -3.046875 2.210938 -3.125 1.890625 -3.125 C 1.671875 -3.125 1.457031 -3.085938 1.25 -3.015625 C 1.039062 -2.941406 0.863281 -2.847656 0.71875 -2.734375 L 0.453125 -3.21875 C 0.640625 -3.375 0.863281 -3.488281 1.125 -3.5625 C 1.382812 -3.644531 1.664062 -3.6875 1.96875 -3.6875 Z M 1.8125 -0.46875 C 2.0625 -0.46875 2.273438 -0.523438 2.453125 -0.640625 C 2.640625 -0.753906 2.773438 -0.914062 2.859375 -1.125 L 2.859375 -1.625 L 1.84375 -1.625 C 1.28125 -1.625 1 -1.4375 1 -1.0625 C 1 -0.875 1.066406 -0.726562 1.203125 -0.625 C 1.347656 -0.519531 1.550781 -0.46875 1.8125 -0.46875 Z M 1.8125 -0.46875 "/></g></g></g><g fill="#000000" fill-opacity="1"><g transform="translate(64.643053, 30.098198)"><g><path d="M 0.625 -5.125 L 1.296875 -5.125 L 1.296875 0 L 0.625 0 Z M 0.625 -5.125 "/></g></g></g><g fill="#000000" fill-opacity="1"><g transform="translate(66.57037, 30.098198)"><g><path d="M 1.671875 0.046875 C 1.378906 0.046875 1.09375 0.00390625 0.8125 -0.078125 C 0.539062 -0.160156 0.328125 -0.265625 0.171875 -0.390625 L 0.4375 -0.90625 C 0.601562 -0.789062 0.800781 -0.695312 1.03125 -0.625 C 1.257812 -0.5625 1.492188 -0.53125 1.734375 -0.53125 C 2.304688 -0.53125 2.59375 -0.695312 2.59375 -1.03125 C 2.59375 -1.132812 2.550781 -1.21875 2.46875 -1.28125 C 2.394531 -1.351562 2.300781 -1.40625 2.1875 -1.4375 C 2.070312 -1.46875 1.90625 -1.5 1.6875 -1.53125 C 1.394531 -1.582031 1.15625 -1.632812 0.96875 -1.6875 C 0.78125 -1.75 0.617188 -1.847656 0.484375 -1.984375 C 0.347656 -2.128906 0.28125 -2.332031 0.28125 -2.59375 C 0.28125 -2.925781 0.414062 -3.191406 0.6875 -3.390625 C 0.96875 -3.585938 1.34375 -3.6875 1.8125 -3.6875 C 2.050781 -3.6875 2.289062 -3.65625 2.53125 -3.59375 C 2.78125 -3.539062 2.984375 -3.460938 3.140625 -3.359375 L 2.859375 -2.84375 C 2.554688 -3.03125 2.203125 -3.125 1.796875 -3.125 C 1.515625 -3.125 1.300781 -3.078125 1.15625 -2.984375 C 1.007812 -2.898438 0.9375 -2.78125 0.9375 -2.625 C 0.9375 -2.5 0.976562 -2.398438 1.0625 -2.328125 C 1.144531 -2.265625 1.242188 -2.21875 1.359375 -2.1875 C 1.484375 -2.15625 1.660156 -2.117188 1.890625 -2.078125 C 2.179688 -2.023438 2.414062 -1.96875 2.59375 -1.90625 C 2.78125 -1.851562 2.9375 -1.757812 3.0625 -1.625 C 3.195312 -1.488281 3.265625 -1.296875 3.265625 -1.046875 C 3.265625 -0.710938 3.117188 -0.445312 2.828125 -0.25 C 2.546875 -0.0507812 2.160156 0.046875 1.671875 0.046875 Z M 1.671875 0.046875 "/></g></g></g><g fill="#000000" fill-opacity="1"><g transform="translate(70.03125, 30.098198)"><g/></g></g><g fill="#000000" fill-opacity="1"><g transform="translate(71.889491, 30.098198)"><g><path d="M 2.140625 0.0625 C 1.773438 0.0625 1.421875 0.00390625 1.078125 -0.109375 C 0.742188 -0.222656 0.476562 -0.367188 0.28125 -0.546875 L 0.53125 -1.09375 C 0.71875 -0.925781 0.953125 -0.789062 1.234375 -0.6875 C 1.523438 -0.582031 1.828125 -0.53125 2.140625 -0.53125 C 2.535156 -0.53125 2.832031 -0.597656 3.03125 -0.734375 C 3.226562 -0.867188 3.328125 -1.050781 3.328125 -1.28125 C 3.328125 -1.445312 3.269531 -1.582031 3.15625 -1.6875 C 3.050781 -1.789062 2.921875 -1.867188 2.765625 -1.921875 C 2.609375 -1.972656 2.382812 -2.035156 2.09375 -2.109375 C 1.726562 -2.191406 1.429688 -2.273438 1.203125 -2.359375 C 0.984375 -2.453125 0.796875 -2.585938 0.640625 -2.765625 C 0.484375 -2.953125 0.40625 -3.203125 0.40625 -3.515625 C 0.40625 -3.765625 0.472656 -3.992188 0.609375 -4.203125 C 0.742188 -4.410156 0.945312 -4.578125 1.21875 -4.703125 C 1.5 -4.828125 1.84375 -4.890625 2.25 -4.890625 C 2.53125 -4.890625 2.8125 -4.851562 3.09375 -4.78125 C 3.375 -4.707031 3.613281 -4.601562 3.8125 -4.46875 L 3.578125 -3.90625 C 3.378906 -4.039062 3.160156 -4.140625 2.921875 -4.203125 C 2.691406 -4.265625 2.46875 -4.296875 2.25 -4.296875 C 1.863281 -4.296875 1.570312 -4.222656 1.375 -4.078125 C 1.175781 -3.941406 1.078125 -3.757812 1.078125 -3.53125 C 1.078125 -3.363281 1.128906 -3.226562 1.234375 -3.125 C 1.347656 -3.03125 1.488281 -2.953125 1.65625 -2.890625 C 1.820312 -2.828125 2.046875 -2.765625 2.328125 -2.703125 C 2.679688 -2.617188 2.96875 -2.53125 3.1875 -2.4375 C 3.414062 -2.351562 3.609375 -2.222656 3.765625 -2.046875 C 3.921875 -1.867188 4 -1.625 4 -1.3125 C 4 -1.0625 3.929688 -0.832031 3.796875 -0.625 C 3.660156 -0.414062 3.453125 -0.25 3.171875 -0.125 C 2.890625 0 2.546875 0.0625 2.140625 0.0625 Z M 2.140625 0.0625 "/></g></g></g><g fill="#000000" fill-opacity="1"><g transform="translate(76.17933, 30.098198)"><g><path d="M 3.9375 -1.8125 C 3.9375 -1.757812 3.929688 -1.691406 3.921875 -1.609375 L 0.953125 -1.609375 C 0.992188 -1.285156 1.132812 -1.023438 1.375 -0.828125 C 1.613281 -0.628906 1.914062 -0.53125 2.28125 -0.53125 C 2.71875 -0.53125 3.066406 -0.679688 3.328125 -0.984375 L 3.703125 -0.546875 C 3.535156 -0.359375 3.328125 -0.210938 3.078125 -0.109375 C 2.835938 -0.00390625 2.566406 0.046875 2.265625 0.046875 C 1.867188 0.046875 1.519531 -0.03125 1.21875 -0.1875 C 0.925781 -0.351562 0.695312 -0.578125 0.53125 -0.859375 C 0.375 -1.148438 0.296875 -1.472656 0.296875 -1.828125 C 0.296875 -2.179688 0.375 -2.5 0.53125 -2.78125 C 0.6875 -3.070312 0.90625 -3.296875 1.1875 -3.453125 C 1.46875 -3.609375 1.78125 -3.6875 2.125 -3.6875 C 2.476562 -3.6875 2.789062 -3.609375 3.0625 -3.453125 C 3.332031 -3.296875 3.546875 -3.070312 3.703125 -2.78125 C 3.859375 -2.5 3.9375 -2.175781 3.9375 -1.8125 Z M 2.125 -3.140625 C 1.8125 -3.140625 1.546875 -3.039062 1.328125 -2.84375 C 1.117188 -2.65625 0.992188 -2.398438 0.953125 -2.078125 L 3.296875 -2.078125 C 3.265625 -2.390625 3.140625 -2.644531 2.921875 -2.84375 C 2.710938 -3.039062 2.445312 -3.140625 2.125 -3.140625 Z M 2.125 -3.140625 "/></g></g></g><g fill="#000000" fill-opacity="1"><g transform="translate(80.406996, 30.098198)"><g><path d="M 1.265625 -3.046875 C 1.378906 -3.253906 1.546875 -3.410156 1.765625 -3.515625 C 1.992188 -3.628906 2.269531 -3.6875 2.59375 -3.6875 L 2.59375 -3.046875 C 2.5625 -3.054688 2.507812 -3.0625 2.4375 -3.0625 C 2.082031 -3.0625 1.800781 -2.953125 1.59375 -2.734375 C 1.394531 -2.523438 1.296875 -2.222656 1.296875 -1.828125 L 1.296875 0 L 0.625 0 L 0.625 -3.65625 L 1.265625 -3.65625 Z M 1.265625 -3.046875 "/></g></g></g><g fill="#000000" fill-opacity="1"><g transform="translate(83.239252, 30.098198)"><g><path d="M 3.875 -3.65625 L 2.265625 0 L 1.59375 0 L -0.015625 -3.65625 L 0.671875 -3.65625 L 1.9375 -0.71875 L 3.21875 -3.65625 Z M 3.875 -3.65625 "/></g></g></g><g fill="#000000" fill-opacity="1"><g transform="translate(87.100799, 30.098198)"><g><path d="M 0.625 -3.65625 L 1.296875 -3.65625 L 1.296875 0 L 0.625 0 Z M 0.953125 -4.359375 C 0.828125 -4.359375 0.722656 -4.398438 0.640625 -4.484375 C 0.554688 -4.566406 0.515625 -4.671875 0.515625 -4.796875 C 0.515625 -4.910156 0.554688 -5.007812 0.640625 -5.09375 C 0.722656 -5.1875 0.828125 -5.234375 0.953125 -5.234375 C 1.085938 -5.234375 1.195312 -5.191406 1.28125 -5.109375 C 1.363281 -5.023438 1.40625 -4.925781 1.40625 -4.8125 C 1.40625 -4.6875 1.363281 -4.578125 1.28125 -4.484375 C 1.195312 -4.398438 1.085938 -4.359375 0.953125 -4.359375 Z M 0.953125 -4.359375 "/></g></g></g><g fill="#000000" fill-opacity="1"><g transform="translate(89.028116, 30.098198)"><g><path d="M 2.21875 0.046875 C 1.851562 0.046875 1.519531 -0.03125 1.21875 -0.1875 C 0.925781 -0.351562 0.695312 -0.578125 0.53125 -0.859375 C 0.375 -1.148438 0.296875 -1.472656 0.296875 -1.828125 C 0.296875 -2.191406 0.375 -2.515625 0.53125 -2.796875 C 0.695312 -3.078125 0.925781 -3.296875 1.21875 -3.453125 C 1.519531 -3.609375 1.851562 -3.6875 2.21875 -3.6875 C 2.550781 -3.6875 2.847656 -3.617188 3.109375 -3.484375 C 3.367188 -3.359375 3.570312 -3.171875 3.71875 -2.921875 L 3.21875 -2.59375 C 3.09375 -2.769531 2.945312 -2.898438 2.78125 -2.984375 C 2.613281 -3.066406 2.425781 -3.109375 2.21875 -3.109375 C 1.976562 -3.109375 1.757812 -3.054688 1.5625 -2.953125 C 1.375 -2.847656 1.222656 -2.695312 1.109375 -2.5 C 1.003906 -2.300781 0.953125 -2.078125 0.953125 -1.828125 C 0.953125 -1.566406 1.003906 -1.335938 1.109375 -1.140625 C 1.222656 -0.953125 1.375 -0.800781 1.5625 -0.6875 C 1.757812 -0.582031 1.976562 -0.53125 2.21875 -0.53125 C 2.425781 -0.53125 2.613281 -0.570312 2.78125 -0.65625 C 2.945312 -0.75 3.09375 -0.882812 3.21875 -1.0625 L 3.71875 -0.75 C 3.570312 -0.488281 3.367188 -0.289062 3.109375 -0.15625 C 2.847656 -0.0195312 2.550781 0.046875 2.21875 0.046875 Z M 2.21875 0.046875 "/></g></g></g><g fill="#000000" fill-opacity="1"><g transform="translate(92.972556, 30.098198)"><g><path d="M 3.9375 -1.8125 C 3.9375 -1.757812 3.929688 -1.691406 3.921875 -1.609375 L 0.953125 -1.609375 C 0.992188 -1.285156 1.132812 -1.023438 1.375 -0.828125 C 1.613281 -0.628906 1.914062 -0.53125 2.28125 -0.53125 C 2.71875 -0.53125 3.066406 -0.679688 3.328125 -0.984375 L 3.703125 -0.546875 C 3.535156 -0.359375 3.328125 -0.210938 3.078125 -0.109375 C 2.835938 -0.00390625 2.566406 0.046875 2.265625 0.046875 C 1.867188 0.046875 1.519531 -0.03125 1.21875 -0.1875 C 0.925781 -0.351562 0.695312 -0.578125 0.53125 -0.859375 C 0.375 -1.148438 0.296875 -1.472656 0.296875 -1.828125 C 0.296875 -2.179688 0.375 -2.5 0.53125 -2.78125 C 0.6875 -3.070312 0.90625 -3.296875 1.1875 -3.453125 C 1.46875 -3.609375 1.78125 -3.6875 2.125 -3.6875 C 2.476562 -3.6875 2.789062 -3.609375 3.0625 -3.453125 C 3.332031 -3.296875 3.546875 -3.070312 3.703125 -2.78125 C 3.859375 -2.5 3.9375 -2.175781 3.9375 -1.8125 Z M 2.125 -3.140625 C 1.8125 -3.140625 1.546875 -3.039062 1.328125 -2.84375 C 1.117188 -2.65625 0.992188 -2.398438 0.953125 -2.078125 L 3.296875 -2.078125 C 3.265625 -2.390625 3.140625 -2.644531 2.921875 -2.84375 C 2.710938 -3.039062 2.445312 -3.140625 2.125 -3.140625 Z M 2.125 -3.140625 "/></g></g></g><g fill="#000000" fill-opacity="1"><g transform="translate(97.200222, 30.098198)"><g><path d="M 1.671875 0.046875 C 1.378906 0.046875 1.09375 0.00390625 0.8125 -0.078125 C 0.539062 -0.160156 0.328125 -0.265625 0.171875 -0.390625 L 0.4375 -0.90625 C 0.601562 -0.789062 0.800781 -0.695312 1.03125 -0.625 C 1.257812 -0.5625 1.492188 -0.53125 1.734375 -0.53125 C 2.304688 -0.53125 2.59375 -0.695312 2.59375 -1.03125 C 2.59375 -1.132812 2.550781 -1.21875 2.46875 -1.28125 C 2.394531 -1.351562 2.300781 -1.40625 2.1875 -1.4375 C 2.070312 -1.46875 1.90625 -1.5 1.6875 -1.53125 C 1.394531 -1.582031 1.15625 -1.632812 0.96875 -1.6875 C 0.78125 -1.75 0.617188 -1.847656 0.484375 -1.984375 C 0.347656 -2.128906 0.28125 -2.332031 0.28125 -2.59375 C 0.28125 -2.925781 0.414062 -3.191406 0.6875 -3.390625 C 0.96875 -3.585938 1.34375 -3.6875 1.8125 -3.6875 C 2.050781 -3.6875 2.289062 -3.65625 2.53125 -3.59375 C 2.78125 -3.539062 2.984375 -3.460938 3.140625 -3.359375 L 2.859375 -2.84375 C 2.554688 -3.03125 2.203125 -3.125 1.796875 -3.125 C 1.515625 -3.125 1.300781 -3.078125 1.15625 -2.984375 C 1.007812 -2.898438 0.9375 -2.78125 0.9375 -2.625 C 0.9375 -2.5 0.976562 -2.398438 1.0625 -2.328125 C 1.144531 -2.265625 1.242188 -2.21875 1.359375 -2.1875 C 1.484375 -2.15625 1.660156 -2.117188 1.890625 -2.078125 C 2.179688 -2.023438 2.414062 -1.96875 2.59375 -1.90625 C 2.78125 -1.851562 2.9375 -1.757812 3.0625 -1.625 C 3.195312 -1.488281 3.265625 -1.296875 3.265625 -1.046875 C 3.265625 -0.710938 3.117188 -0.445312 2.828125 -0.25 C 2.546875 -0.0507812 2.160156 0.046875 1.671875 0.046875 Z M 1.671875 0.046875 "/></g></g></g></svg>